<svg xmlns="http://www.w3.org/2000/svg" version="1.1" xmlns:xlink="http://www.w3.org/1999/xlink" width="512" height="512" x="0" y="0" viewBox="0 0 480 480" style="enable-background:new 0 0 512 512" xml:space="preserve" class=""><g><path d="M240 0C107.453 0 0 107.453 0 240s107.453 240 240 240 240-107.453 240-240C479.852 107.516 372.484.148 240 0zm0 464C116.29 464 16 363.71 16 240S116.29 16 240 16s224 100.29 224 224c-.14 123.652-100.348 223.86-224 224zm0 0" fill="#cc0000" opacity="1" data-original="#000000" class=""></path><path d="M392.39 104a8.002 8.002 0 0 0-6.046 2.336l-280 280a8.002 8.002 0 0 0-2.332 6.05 8.01 8.01 0 0 0 2.918 5.79A221.05 221.05 0 0 0 240 448c110.809 0 208-97.191 208-208a221.109 221.109 0 0 0-49.816-133.07 7.988 7.988 0 0 0-5.793-2.93zM291.314 224H384v32H259.312zM240 432a203.519 203.519 0 0 1-115.953-40.734L243.313 272H392a8 8 0 0 0 8-8v-48a8 8 0 0 0-8-8h-84.688l83.954-83.953A203.519 203.519 0 0 1 432 240c0 102.281-89.719 192-192 192zM120 208H88a8 8 0 0 0-8 8v48a8 8 0 0 0 8 8h32a8 8 0 0 0 8-8v-48a8 8 0 0 0-8-8zm-8 48H96v-32h16zM88 192a8 8 0 0 0 8-8c0-1.96.727-48 64-48a7.99 7.99 0 0 0 6.18-2.922 7.995 7.995 0 0 0 1.668-6.629 36.327 36.327 0 0 1 3.77-25.664A14.973 14.973 0 0 1 184 96a8 8 0 0 0 0-16 30.476 30.476 0 0 0-24.8 10.664 44.428 44.428 0 0 0-8.087 29.602C80.848 124.8 80 183.383 80 184a8 8 0 0 0 8 8zm0 0" fill="#cc0000" opacity="1" data-original="#000000" class=""></path><path d="M215.656 135.398C229.734 133.297 248 125.152 248 104c0-32-25.04-32-40-32a8 8 0 0 0 0 16c17.832 0 24 .8 24 16 0 15.664-23.04 16-24 16a8 8 0 0 0-8 8c0 16 0 24-40 24-47.45 0-48 31.68-48 32a7.917 7.917 0 0 0 7.816 7.895H120a8.09 8.09 0 0 0 8-7.72c.078-1.655 1.656-16.175 32-16.175 34.246 0 52.953-5.258 55.656-32.602zm0 0" fill="#cc0000" opacity="1" data-original="#000000" class=""></path><path d="M373.656 93.656a8.006 8.006 0 0 0 2.332-6.086 7.988 7.988 0 0 0-2.972-5.8C343.199 57.71 292.55 32 240 32 129.191 32 32 129.191 32 240c0 52.55 25.71 103.2 49.77 133.016a7.986 7.986 0 0 0 5.804 2.976H88a8.001 8.001 0 0 0 5.656-2.344zM88.801 355.895A209.038 209.038 0 0 1 48 240c0-102.281 89.719-192 192-192a209.038 209.038 0 0 1 115.895 40.8L236.687 208H152a8 8 0 0 0-8 8v48a8 8 0 0 0 8 8h20.687zM160 256v-32h60.687l-32 32zm0 0" fill="#cc0000" opacity="1" data-original="#000000" class=""></path></g></svg>