<svg xmlns="http://www.w3.org/2000/svg" version="1.1" xmlns:xlink="http://www.w3.org/1999/xlink" width="512" height="512" x="0" y="0" viewBox="0 0 64 64" style="enable-background:new 0 0 512 512" xml:space="preserve" class=""><g><path d="M11 5h6v2h-6zM21 10H7c-1.103 0-2 .897-2 2v20c0 1.103.897 2 2 2h14c1.103 0 2-.897 2-2V12c0-1.103-.897-2-2-2zm0 2v2.465l-1.307.871a4.017 4.017 0 0 1-4.387 0L14.803 15a5.938 5.938 0 0 0-3.303-1h-.331c-.919 0-1.839.217-2.663.628L7 15.382V12zM7 32V17.618l2.401-1.201A3.992 3.992 0 0 1 11.169 16h.331c.783 0 1.542.229 2.193.664l.504.336c.981.654 2.124 1 3.303 1s2.321-.346 3.303-1l.197-.132L21.001 32z" fill="#cc0000" opacity="1" data-original="#000000" class=""></path><path d="M18 22h-1v-1a1 1 0 0 0-1-1h-4a1 1 0 0 0-1 1v1h-1a1 1 0 0 0-1 1v4a1 1 0 0 0 1 1h1v1a1 1 0 0 0 1 1h4a1 1 0 0 0 1-1v-1h1a1 1 0 0 0 1-1v-4a1 1 0 0 0-1-1zm-1 4h-1a1 1 0 0 0-1 1v1h-2v-1a1 1 0 0 0-1-1h-1v-2h1a1 1 0 0 0 1-1v-1h2v1a1 1 0 0 0 1 1h1z" fill="#cc0000" opacity="1" data-original="#000000" class=""></path><path d="M63 8.5C63 6.57 61.43 5 59.5 5c-.612 0-1.178.172-1.679.448C57.371 4.034 56.061 3 54.5 3c-.612 0-1.178.172-1.679.448C52.371 2.034 51.061 1 49.5 1s-2.871 1.034-3.321 2.448A3.463 3.463 0 0 0 44.5 3C42.57 3 41 4.57 41 6.5v1.601A5.009 5.009 0 0 0 37 13v8a8.959 8.959 0 0 0 5 8.064V55H18c-1.654 0-3-1.346-3-3v-6c1.654 0 3-1.346 3-3v-1.184A2.996 2.996 0 0 0 20 39v-1h4c1.654 0 3-1.346 3-3V9c0-1.654-1.346-3-3-3h-.757a1.989 1.989 0 0 1-1.415-.586l-2-2C18.271 1.857 16.202 1 14 1s-4.271.857-5.828 2.414l-2 2c-.378.378-.88.586-1.415.586H4C2.346 6 1 7.346 1 9v26c0 1.654 1.346 3 3 3h4v1c0 1.302.839 2.402 2 2.816V43c0 1.654 1.346 3 3 3v6c0 2.757 2.243 5 5 5h24v5h2v-5h2c2.757 0 5-2.243 5-5v-7c1.103 0 2-.897 2-2v-3h1a1 1 0 0 0 1-1v-4a1 1 0 0 0-1-1h-3v-2h-2v2h-3a1 1 0 0 0-1 1v4a1 1 0 0 0 1 1h1v3c0 1.103.897 2 2 2v7c0 1.654-1.346 3-3 3h-2V28.418a1 1 0 0 0-.625-.927A6.971 6.971 0 0 1 39 21v-8c0-1.654 1.346-3 3-3h4.5c.827 0 1.5.673 1.5 1.5s-.673 1.5-1.5 1.5H43a1 1 0 0 0-1 1v6a1 1 0 0 0 1 1c2.757 0 5 2.243 5 5h2c0-3.521-2.612-6.442-6-6.929v-.111c.165.023.331.04.5.04.98 0 1.864-.407 2.5-1.058a3.485 3.485 0 0 0 5 0 3.485 3.485 0 0 0 5 0A3.485 3.485 0 0 0 59.5 19c.539 0 1.044-.133 1.5-.351V21a6.971 6.971 0 0 1-4.375 6.491 1 1 0 0 0-.625.927V62h2V29.065A8.961 8.961 0 0 0 63 21v-5h-.051c.024-.165.051-.329.051-.5zM3 35V9c0-.551.449-1 1-1h.757a3.975 3.975 0 0 0 2.829-1.172l2-2C10.765 3.649 12.333 3 14 3s3.235.649 4.414 1.828l2 2A3.972 3.972 0 0 0 23.243 8H24c.551 0 1 .449 1 1v26c0 .552-.449 1-1 1H4c-.551 0-1-.448-1-1zm15 3v1c0 .552-.449 1-1 1h-6c-.551 0-1-.448-1-1v-1zm-6 5v-1h4v1c0 .552-.449 1-1 1h-2c-.551 0-1-.448-1-1zm35-7h6v2h-6zm4 4v3h-2v-3zM44.5 5c.827 0 1.5.673 1.5 1.5V8h-3V6.5c0-.827.673-1.5 1.5-1.5zm0 12a1.5 1.5 0 0 1-.5-.089V15h2v.5c0 .827-.673 1.5-1.5 1.5zm5 0c-.827 0-1.5-.673-1.5-1.5v-.851c1.178-.564 2-1.758 2-3.149s-.822-2.585-2-3.149V4.5c0-.827.673-1.5 1.5-1.5s1.5.673 1.5 1.5v11c0 .827-.673 1.5-1.5 1.5zm5 0c-.827 0-1.5-.673-1.5-1.5v-9c0-.827.673-1.5 1.5-1.5s1.5.673 1.5 1.5v9c0 .827-.673 1.5-1.5 1.5zm5 0c-.827 0-1.5-.673-1.5-1.5v-7c0-.827.673-1.5 1.5-1.5s1.5.673 1.5 1.5v7c0 .827-.673 1.5-1.5 1.5z" fill="#cc0000" opacity="1" data-original="#000000" class=""></path></g></svg>