<?xml version="1.0" encoding="UTF-8"?>
<!DOCTYPE svg PUBLIC "-//W3C//DTD SVG 1.1//EN" "http://www.w3.org/Graphics/SVG/1.1/DTD/svg11.dtd">
<!-- Creator: CorelDRAW -->
<svg xmlns="http://www.w3.org/2000/svg" xml:space="preserve" width="100px" height="120px" version="1.1" style="shape-rendering:geometricPrecision; text-rendering:geometricPrecision; image-rendering:optimizeQuality; fill-rule:evenodd; clip-rule:evenodd"
viewBox="0 0 100 120.01"
 xmlns:xlink="http://www.w3.org/1999/xlink"
 xmlns:xodm="http://www.corel.com/coreldraw/odm/2003">
 <defs>
  <style type="text/css">
   <![CDATA[
    .fil0 {fill:#CC0000;fill-rule:nonzero}
   ]]>
  </style>
 </defs>
 <g id="Layer_x0020_1">
  <metadata id="CorelCorpID_0Corel-Layer"/>
  <path class="fil0" d="M50.09 24.84c-16.98,0 -30.85,13.32 -30.85,29.63 0,8.53 3.89,16.74 10.43,22.28 4.89,4.69 4.44,14.71 4.33,14.82 0,0.53 0.11,0.95 0.56,1.38 0.33,0.32 0.89,0.53 1.33,0.53l28.3 0c0.55,0 1,-0.21 1.33,-0.53 0.33,-0.32 0.55,-0.85 0.55,-1.38 0,-0.11 -0.55,-10.13 4.33,-14.82l0.33 -0.32c6.44,-5.65 10.21,-13.65 10.21,-21.96 0,-16.31 -13.87,-29.63 -30.85,-29.63zm17.76 49.14c-0.11,0.1 -0.33,0.32 -0.33,0.42 -4.33,4.48 -5.11,11.84 -5.22,15.35l-24.52 0c-0.11,-3.51 -0.89,-11.19 -5.55,-15.77 -5.89,-4.91 -9.32,-12.05 -9.32,-19.62 0,-14.38 12.09,-26 27.07,-26 14.98,0 27.08,11.62 27.08,26 0,7.57 -3.33,14.71 -9.21,19.62z"/>
  <path class="fil0" d="M62.3 99.47l-24.63 0c-2.56,0 -4.67,2.11 -4.67,4.66 0,2.56 2.11,4.66 4.67,4.66l24.52 0c2.66,-0.11 4.77,-2.1 4.77,-4.66 0,-2.55 -2.11,-4.66 -4.66,-4.66zm0 5.44l-24.63 0c-0.45,0 -0.89,-0.33 -0.89,-0.89 0,-0.55 0.33,-0.89 0.89,-0.89l24.52 0c0.44,0 0.89,0.34 0.89,0.89 0,0.56 -0.34,0.89 -0.78,0.89zm-3.66 5.77l-17.31 0c-2.56,0 -4.66,2.11 -4.66,4.67 0,2.55 2.1,4.66 4.66,4.66l17.31 0c2.55,0 4.66,-2.11 4.66,-4.66 0,-2.67 -2.11,-4.67 -4.66,-4.67zm0 5.44l-17.31 0c-0.45,0 -0.89,-0.33 -0.89,-0.89 0,-0.55 0.33,-0.88 0.89,-0.88l17.31 0c0.44,0 0.89,0.33 0.89,0.88 0,0.56 -0.45,0.89 -0.89,0.89zm-8.66 -99.47c1.11,0 1.89,-0.88 1.89,-1.88l0 -12.88c0,-1 -0.89,-1.89 -1.89,-1.89 -1,0 -1.88,0.89 -1.88,1.89l0 12.88c0,1 0.88,1.88 1.88,1.88zm31.41 -7.1c-0.89,-0.67 -2,-0.33 -2.55,0.44l-7.11 10.66c-0.66,0.89 -0.44,2.11 0.45,2.67 0.33,0.22 0.66,0.33 1,0.33 0.66,0 1.22,-0.33 1.55,-0.89l7.1 -10.66c0.67,-0.77 0.45,-2 -0.44,-2.55zm-53.93 13.65c0.33,0 0.66,-0.11 0.99,-0.33 0.89,-0.55 1.11,-1.78 0.56,-2.66l-6.88 -10.77c-0.56,-0.89 -1.78,-1.11 -2.66,-0.56 -0.89,0.56 -1.11,1.78 -0.56,2.67l6.88 10.77c0.44,0.66 1,0.88 1.67,0.88zm-13.43 11.77l-11.21 -6.1c-0.89,-0.45 -2.11,-0.11 -2.55,0.77 -0.56,0.89 -0.23,2.11 0.77,2.56l11.21 6.1c0.34,0.11 0.56,0.22 0.89,0.22 0.67,0 1.33,-0.33 1.66,-1 0.45,-0.88 0.11,-2.11 -0.77,-2.55zm85.78 -5.33c-0.45,-0.88 -1.67,-1.22 -2.55,-0.77l-11.32 6.1c-0.89,0.44 -1.22,1.67 -0.78,2.55 0.33,0.67 1,1 1.67,1 0.33,0 0.66,-0.11 0.88,-0.22l11.32 -6.1c0.89,-0.45 1.22,-1.67 0.78,-2.56z"/>
  <path class="fil0" d="M64.97 46.25l-2.04 0 0 -0.74c0.01,-0.29 -0.17,-0.55 -0.43,-0.63 -1.41,-0.39 -2.87,-0.59 -4.33,-0.58 -2.4,0 -5.67,0.57 -8.08,3.16 -2.41,-2.62 -5.7,-3.16 -8.09,-3.16 -1.46,-0.01 -2.92,0.19 -4.33,0.58 -0.26,0.08 -0.44,0.34 -0.43,0.63l0 0.73 -2.02 0c-0.34,0 -0.6,0.28 -0.6,0.63l0 20.2c0,0.35 0.26,0.63 0.6,0.63 0.1,0 0.2,-0.03 0.29,-0.08 0.06,-0.03 6.06,-3.49 14.44,-1.26l0.14 0c0.05,0 0.1,0 0.15,0 8.4,-2.25 14.4,1.2 14.43,1.26 0.19,0.11 0.41,0.11 0.6,0 0.19,-0.11 0.3,-0.32 0.3,-0.54l0 -20.2c0,-0.35 -0.27,-0.63 -0.6,-0.63zm-29.15 19.82l0 -18.56 1.43 0 0 15.86c0,0.19 0.07,0.36 0.21,0.49 0.13,0.12 0.31,0.17 0.48,0.14 1.24,-0.2 2.49,-0.3 3.75,-0.31 1.74,-0.03 3.47,0.24 5.12,0.81 -3.73,-0.47 -7.51,0.06 -10.99,1.57zm5.87 -3.64c-1.09,0 -2.18,0.08 -3.26,0.22l0 -16.64c1.16,-0.27 2.36,-0.41 3.55,-0.42 2.25,0 5.34,0.55 7.49,3.1l0.02 15.76c-1.25,-0.86 -3.68,-2.02 -7.8,-2.02zm9 -13.74c2.15,-2.53 5.25,-3.1 7.49,-3.1 1.2,0.01 2.39,0.15 3.56,0.42l0 16.64c-1.08,-0.15 -2.16,-0.22 -3.25,-0.23 -4.09,0 -6.53,1.16 -7.8,2.02l0 -15.75zm13.68 17.38c-3.49,-1.51 -7.29,-2.05 -11.03,-1.57 1.66,-0.57 3.4,-0.85 5.15,-0.81 1.27,0 2.53,0.11 3.78,0.31 0.17,0.03 0.35,-0.03 0.48,-0.15 0.13,-0.12 0.21,-0.3 0.21,-0.49l0 -15.85 1.43 0 -0.02 18.56z"/>
 </g>
</svg>
