<svg xmlns="http://www.w3.org/2000/svg" version="1.1" xmlns:xlink="http://www.w3.org/1999/xlink" width="512" height="512" x="0" y="0" viewBox="0 0 512 512" style="enable-background:new 0 0 512 512" xml:space="preserve" class=""><g><path fill="#cc0000" d="M364.415 443.901H181.276v-10h183.139zm56.04-103.58h-10V268.19h10zm-318.916-92.383h-10V89.033a5 5 0 0 1 1.464-3.535l73.033-73.033A5 5 0 0 1 169.572 11h224.471c14.564 0 26.413 11.849 26.413 26.412v174.09h-10V37.412c0-9.05-7.363-16.412-16.413-16.412h-222.4l-70.104 70.104z" opacity="1" data-original="#1a3b70" class=""></path><path fill="#cc0000" d="M148.159 94.033h-51.62v-10h51.621c9.05 0 16.413-7.362 16.413-16.412V16h10v51.621c-.001 14.564-11.85 26.412-26.414 26.412zM255.997 349.638h-54.501a5 5 0 1 1 0-10h54.501a5 5 0 1 1 0 10zm105.357-29.64h-159.79a5 5 0 1 1 0-10h159.79a5 5 0 1 1 0 10zm0-29.639h-159.72a5 5 0 1 1 0-10h159.721a5 5 0 1 1-.001 10zm0-29.638H199.776a5 5 0 1 1 0-10h161.579a5 5 0 1 1-.001 10zm0-29.639H150.638c-2.762 0-5-2.238-5-5s2.238-5 5-5h210.716a5 5 0 1 1 0 10zM382.959 301.13a5 5 0 0 1-4.974-5.514l3.563-34.516a4.99 4.99 0 0 1 .644-1.986l83.039-143.827c5.286-9.155 17.034-12.305 26.19-7.018 9.155 5.286 12.303 17.035 7.017 26.189L415.4 278.286a5.025 5.025 0 0 1-1.398 1.551l-28.11 20.344c-.872.63-1.9.949-2.933.949zm8.428-37.941-2.306 22.339 18.192-13.167 82.505-142.902c2.529-4.38 1.023-10-3.357-12.529-4.381-2.529-10-1.022-12.53 3.357z" opacity="1" data-original="#1a3b70" class=""></path><path fill="#cc0000" d="m384.018 265.958 5-8.66 24.546 14.172-5 8.66zM459.88 134.55l5-8.66 24.546 14.173-5 8.66z" opacity="1" data-original="#1a3b70" class=""></path><path fill="#cc0000" d="M468.182 423.16v-10a5.008 5.008 0 0 0 5.003-5.002v-5.941a5.008 5.008 0 0 0-5.003-5.003H363.187a5.008 5.008 0 0 0-5.002 5.003v5.941a5.008 5.008 0 0 0 5.002 5.002h10v10h-10c-8.272 0-15.002-6.729-15.002-15.002v-5.941c0-8.272 6.73-15.003 15.002-15.003h104.995c8.272 0 15.003 6.73 15.003 15.003v5.941c0 8.273-6.73 15.002-15.003 15.002z" opacity="1" data-original="#f88125" class=""></path><path fill="#cc0000" d="M485.994 397.214h-17.812v-10h17.812a5.008 5.008 0 0 0 5.003-5.002v-5.941a5.008 5.008 0 0 0-5.003-5.003H380.999a5.008 5.008 0 0 0-5.002 5.003v5.941a5.008 5.008 0 0 0 5.002 5.002v10c-8.272 0-15.002-6.729-15.002-15.002v-5.941c0-8.272 6.73-15.003 15.002-15.003h104.995c8.272 0 15.003 6.73 15.003 15.003v5.941c0 8.272-6.731 15.002-15.003 15.002z" opacity="1" data-original="#f88125" class=""></path><path fill="#cc0000" d="M478.183 371.268v-10a5.008 5.008 0 0 0 5.002-5.002v-5.941a5.008 5.008 0 0 0-5.002-5.003H373.187a5.008 5.008 0 0 0-5.002 5.003v5.941a5.008 5.008 0 0 0 5.002 5.002h7.812v10h-7.812c-8.272 0-15.002-6.729-15.002-15.002v-5.941c0-8.272 6.73-15.003 15.002-15.003h104.995c8.272 0 15.002 6.73 15.002 15.003v5.941c.001 8.272-6.729 15.002-15.001 15.002zM468.182 501H363.187c-8.272 0-15.002-6.73-15.002-15.003v-5.941c0-8.272 6.73-15.002 15.002-15.002h104.995c8.272 0 15.003 6.729 15.003 15.002v5.941c0 8.273-6.73 15.003-15.003 15.003zm-104.995-25.946a5.008 5.008 0 0 0-5.002 5.002v5.941a5.008 5.008 0 0 0 5.002 5.003h104.995a5.008 5.008 0 0 0 5.003-5.003v-5.941a5.008 5.008 0 0 0-5.003-5.002z" opacity="1" data-original="#f88125" class=""></path><path fill="#cc0000" d="M485.994 475.054h-17.812v-10h17.812a5.008 5.008 0 0 0 5.003-5.003v-5.941a5.008 5.008 0 0 0-5.003-5.002H380.999a5.008 5.008 0 0 0-5.002 5.002v5.941a5.008 5.008 0 0 0 5.002 5.003v10c-8.272 0-15.002-6.73-15.002-15.003v-5.941c0-8.272 6.73-15.002 15.002-15.002h104.995c8.272 0 15.003 6.729 15.003 15.002v5.941c0 8.272-6.731 15.003-15.003 15.003z" opacity="1" data-original="#f88125" class=""></path><path fill="#cc0000" d="M478.183 449.107v-10a5.008 5.008 0 0 0 5.002-5.003v-5.941a5.008 5.008 0 0 0-5.002-5.003H373.187a5.008 5.008 0 0 0-5.002 5.003v5.941a5.008 5.008 0 0 0 5.002 5.003h7.812v10h-7.812c-8.272 0-15.002-6.73-15.002-15.003v-5.941c0-8.272 6.73-15.003 15.002-15.003h104.995c8.272 0 15.002 6.73 15.002 15.003v5.941c.001 8.273-6.729 15.003-15.001 15.003z" opacity="1" data-original="#f88125" class=""></path><path fill="#cc0000" d="M161.189 501H35.997c-6.68 0-12.966-2.614-17.702-7.36-4.722-4.732-7.313-11.001-7.298-17.651l.485-208.062c.032-13.778 11.247-24.987 25-24.987h125.193c6.68 0 12.966 2.614 17.703 7.361 4.721 4.732 7.312 11 7.297 17.649l-.485 208.062C186.157 489.79 174.942 501 161.189 501zM36.482 252.938c-8.252 0-14.981 6.733-15 15.011l-.485 208.062c-.009 3.975 1.545 7.727 4.377 10.564C28.22 489.429 31.992 491 35.997 491H161.19c8.251 0 14.98-6.734 15-15.012l.485-208.062c.009-3.974-1.545-7.725-4.376-10.562-2.846-2.854-6.619-4.425-10.623-4.425H36.482z" opacity="1" data-original="#1a3b70" class=""></path><path fill="#cc0000" d="M153.61 333.634H44.547c-5.514 0-10-4.486-10-10v-47.631c0-5.514 4.486-10 10-10H153.61c5.514 0 10 4.486 10 10v47.631c0 5.513-4.486 10-10 10zm0-57.631H44.544l.003 47.631H153.61zM60.864 385.174H44.547c-5.514 0-10-4.486-10-10v-16.316c0-5.514 4.486-10 10-10h16.317c5.514 0 10 4.486 10 10v16.316c-.001 5.514-4.487 10-10 10zm-.001-26.317H44.544l.003 16.316h16.316zM153.61 385.174h-16.317c-5.514 0-10-4.486-10-10v-16.316c0-5.514 4.486-10 10-10h16.317c5.514 0 10 4.486 10 10v16.316c0 5.514-4.486 10-10 10zm0-26.317h-16.32l.003 16.316h16.316v-16.316zM107.237 385.174H90.92c-5.514 0-10-4.486-10-10v-16.316c0-5.514 4.486-10 10-10h16.317c5.514 0 10 4.486 10 10v16.316c-.001 5.514-4.487 10-10 10zm-.001-26.317H90.917l.003 16.316h16.316zM60.864 431.547H44.547c-5.514 0-10-4.486-10-10V405.23c0-5.514 4.486-10 10-10h16.317c5.514 0 10 4.486 10 10v16.316c-.001 5.515-4.487 10.001-10 10.001zm-.001-26.317H44.544l.003 16.316h16.316zM60.864 477.92H44.547c-5.514 0-10-4.486-10-10v-16.316c0-5.514 4.486-10 10-10h16.317c5.514 0 10 4.486 10 10v16.316c-.001 5.514-4.487 10-10 10zm-.001-26.316H44.544l.003 16.316h16.316zM107.237 431.547H90.92c-5.514 0-10-4.486-10-10V405.23c0-5.514 4.486-10 10-10h16.317c5.514 0 10 4.486 10 10v16.316c-.001 5.515-4.487 10.001-10 10.001zm-.001-26.317H90.917l.003 16.316h16.316zM153.61 477.92h-16.317c-5.514 0-10-4.486-10-10v-62.69c0-5.514 4.486-10 10-10h16.317c5.514 0 10 4.486 10 10v62.689c0 5.515-4.486 10.001-10 10.001zm0-72.69h-16.32l.003 62.689h16.316V405.23zM107.237 477.92H90.92c-5.514 0-10-4.486-10-10v-16.316c0-5.514 4.486-10 10-10h16.317c5.514 0 10 4.486 10 10v16.316c-.001 5.514-4.487 10-10 10zm-.001-26.316H90.917l.003 16.316h16.316z" opacity="1" data-original="#1a3b70" class=""></path><path fill="#cc0000" d="M255.997 187.854c-38.485 0-69.795-31.31-69.795-69.795s31.31-69.795 69.795-69.795 69.795 31.31 69.795 69.795-31.311 69.795-69.795 69.795zm0-129.589c-32.971 0-59.795 26.824-59.795 59.795s26.824 59.795 59.795 59.795 59.795-26.824 59.795-59.795-26.824-59.795-59.795-59.795z" opacity="1" data-original="#f88125" class=""></path><path fill="#cc0000" d="M255.997 162.708a5 5 0 0 1-5-5v-3.688a20.74 20.74 0 0 1-12.392-8.798 5 5 0 1 1 8.364-5.481 10.765 10.765 0 0 0 9.027 4.884c5.946 0 10.784-4.837 10.784-10.783s-4.837-10.783-10.784-10.783c-11.46 0-20.783-9.323-20.783-20.783 0-9.737 6.731-17.932 15.783-20.176v-3.689a5 5 0 1 1 10 0v3.687a20.743 20.743 0 0 1 12.392 8.798 5 5 0 0 1-8.364 5.483 10.763 10.763 0 0 0-9.028-4.886c-5.946 0-10.783 4.838-10.783 10.784s4.837 10.783 10.783 10.783c11.46 0 20.784 9.323 20.784 20.783 0 9.737-6.73 17.932-15.784 20.176v3.689a4.998 4.998 0 0 1-4.999 5z" opacity="1" data-original="#f88125" class=""></path></g></svg>