<svg xmlns="http://www.w3.org/2000/svg" version="1.1" xmlns:xlink="http://www.w3.org/1999/xlink" width="512" height="512" x="0" y="0" viewBox="0 0 512 512" style="enable-background:new 0 0 512 512" xml:space="preserve" class=""><g><path d="M80.67 182.689a8 8 0 0 1 8-8h229.554a8 8 0 0 1 0 16H88.67a8 8 0 0 1-8-8zm8-82.003h175.695a8 8 0 0 0 0-16H88.67a8 8 0 0 0 0 16zm0 45.002h229.554a8 8 0 0 0 0-16H88.67a8 8 0 0 0 0 16zm0 90.002h229.554a8 8 0 0 0 0-16H88.67a8 8 0 0 0 0 16zm379.815 125.181c-1.287 2.547-1.692 4.842-1.354 7.673l1.918 16.041c1.565 13.1-5.531 25.39-17.658 30.584l-8.539 3.657 23.181 49.79a9.88 9.88 0 0 1-1.118 10.211 9.892 9.892 0 0 1-9.57 3.736l-23.483-4.103-11.975 20.608a9.882 9.882 0 0 1-9.019 4.921 9.874 9.874 0 0 1-8.538-5.724l-22.737-48.836-6.511-1.968c-2.729-.824-5.059-.825-7.791 0l-6.51 1.967-22.739 48.842a9.884 9.884 0 0 1-8.997 5.729 9.88 9.88 0 0 1-8.557-4.929l-11.978-20.61-23.479 4.102a9.883 9.883 0 0 1-9.57-3.73 9.887 9.887 0 0 1-1.119-10.219l6.796-14.599H49.67c-9.191 0-16.669-7.478-16.669-16.669V24.669C33.001 15.478 40.479 8 49.67 8h265.764c2.333 0 4.545.459 6.583 1.335.304.123.599.261.883.419a16.769 16.769 0 0 1 4.321 3.128l48.677 48.676a16.757 16.757 0 0 1 3.128 4.322c.157.284.296.578.418.881a16.564 16.564 0 0 1 1.335 6.583v165.341a29.998 29.998 0 0 1 6.065 3.513l12.933 9.681c2.283 1.709 4.473 2.506 7.321 2.664l16.13.897c13.173.733 24.045 9.855 27.054 22.701l3.685 15.728c.65 2.778 1.815 4.796 3.896 6.748l11.779 11.056c9.619 9.028 12.084 23.005 6.133 34.778zM327.024 35.314v26.44h26.44zm-40.438 402.7 8.933-19.188-8.54-3.657c-12.128-5.195-19.224-17.486-17.657-30.584l1.66-13.889H88.67a8 8 0 0 1 0-16h178.095l-4.166-8.242c-3.389-6.704-4.041-14.119-2.205-20.932l-171.716.172h-.008a8 8 0 0 1-.008-16l182.375-.182 9.474-8.892c2.08-1.953 3.244-3.97 3.895-6.746l3.088-13.181H88.67a8 8 0 0 1 0-16h206.595c5.037-5.392 12.042-8.813 19.879-9.25l16.13-.897c2.849-.158 5.038-.955 7.321-2.665l12.934-9.681a29.536 29.536 0 0 1 13.25-5.585V77.754h-41.42c-6.801 0-12.334-5.534-12.334-12.335V24H49.67a.687.687 0 0 0-.669.669v412.675c0 .356.312.669.669.669h236.916zm52.724 15.326c-9.033-.578-17.451-5.303-22.669-13.284l-7.802-11.93-17.071 36.667 17.48-3.054a7.998 7.998 0 0 1 8.294 3.861l8.917 15.344zm107.294 11.453-17.072-36.668-7.802 11.931c-5.218 7.978-13.629 12.724-22.659 13.304l12.841 27.583 8.916-15.344a8.001 8.001 0 0 1 8.294-3.861zm12.087-141.452-11.779-11.056c-4.369-4.1-7.157-8.929-8.524-14.765l-3.685-15.729c-1.396-5.962-6.25-10.034-12.364-10.374l-16.13-.897c-5.982-.333-11.223-2.24-16.021-5.831l-12.933-9.681c-4.902-3.67-11.237-3.669-16.14 0l-12.934 9.681c-4.798 3.591-10.038 5.499-16.021 5.831l-16.129.897c-6.114.34-10.967 4.412-12.363 10.374l-3.686 15.729c-1.365 5.832-4.152 10.662-8.522 14.764l-11.78 11.056c-4.466 4.191-5.565 10.43-2.803 15.894l7.287 14.418a29.555 29.555 0 0 1 2.493 6.927c.074.271.133.547.179.828.56 2.916.662 5.911.289 9.035l-1.917 16.04c-.727 6.08 2.44 11.566 8.069 13.978l14.851 6.359c5.508 2.359 9.779 5.944 13.06 10.958l8.843 13.521c3.352 5.125 9.302 7.292 15.167 5.52l15.463-4.673c2.868-.867 5.697-1.3 8.524-1.3 2.829 0 5.656.433 8.525 1.3l15.463 4.673c5.862 1.77 11.816-.396 15.166-5.52l8.842-13.52c3.281-5.015 7.553-8.6 13.061-10.959l14.851-6.36c5.629-2.411 8.797-7.897 8.07-13.978l-1.918-16.04c-.711-5.95.258-11.441 2.961-16.791l7.288-14.417c2.762-5.462 1.662-11.701-2.803-15.892zm-21.942 21.502c0 37.254-30.309 67.563-67.563 67.563s-67.562-30.309-67.562-67.563 30.309-67.562 67.562-67.562c37.254 0 67.563 30.308 67.563 67.562zm-16 0c0-28.432-23.131-51.562-51.563-51.562s-51.562 23.131-51.562 51.562c0 28.432 23.131 51.563 51.562 51.563 28.432 0 51.563-23.131 51.563-51.563zm-29.514-23.554-33.211 30.139-10.607-10.608a8 8 0 0 0-11.314 11.313L352.1 368.13a7.981 7.981 0 0 0 5.658 2.343 7.975 7.975 0 0 0 5.375-2.076l38.854-35.26a7.999 7.999 0 0 0 .548-11.3 8 8 0 0 0-11.3-.548z" fill="#cc0000" opacity="1" data-original="#000000" class=""></path></g></svg>