<svg xmlns="http://www.w3.org/2000/svg" version="1.1" xmlns:xlink="http://www.w3.org/1999/xlink" width="512" height="512" x="0" y="0" viewBox="0 0 64 64" style="enable-background:new 0 0 512 512" xml:space="preserve" class=""><g><path d="M63 54a1 1 0 0 1-1-1V13h-6.3L45 42.178V50a1 1 0 0 1-2 0v-8a1.019 1.019 0 0 1 .061-.345l11-30A1 1 0 0 1 55 11h8a1 1 0 0 1 1 1v41a1 1 0 0 1-1 1Z" fill="#cc0000" opacity="1" data-original="#000000"></path><path d="M47.833 43a1 1 0 0 1-.938-1.345l9.166-25A1 1 0 0 1 57 16h2a1 1 0 0 1 0 2h-1.3l-8.928 24.345a1 1 0 0 1-.939.655ZM1 51a1 1 0 0 1-1-1v-8a1.019 1.019 0 0 1 .061-.345l11-30A1 1 0 0 1 12 11h8a1 1 0 0 1 1 1v5a1 1 0 0 1-2 0v-4h-6.3L2 42.178V50a1 1 0 0 1-1 1Z" fill="#cc0000" opacity="1" data-original="#000000"></path><path d="M50 18H16a1 1 0 0 1 0-2h34a1 1 0 0 1 0 2ZM34.565 39a1 1 0 0 1-.989-1.152C36.164 21.022 46.485 20.037 46.923 20a1 1 0 0 1 .159 2c-.374.033-9.2.983-11.53 16.155a1 1 0 0 1-.987.845ZM21.731 38a.971.971 0 0 1-.177-.016 1 1 0 0 1-.808-1.161C23.593 20.978 33.5 20.035 33.923 20a1 1 0 0 1 .159 2c-.358.031-8.809.939-11.367 15.18a1 1 0 0 1-.984.82ZM8.208 42a.864.864 0 0 1-.088 0 1 1 0 0 1-.91-1.083C8.926 21.152 20.434 20.041 20.923 20a1 1 0 0 1 .159 2c-.42.037-10.319 1.116-11.879 19.09a1 1 0 0 1-.995.91ZM63 54a8.47 8.47 0 0 1-5.781-2.209 6.694 6.694 0 0 0-9.115 0 8.664 8.664 0 0 1-11.558 0 6.685 6.685 0 0 0-9.108 0 8.662 8.662 0 0 1-11.557 0A6.521 6.521 0 0 0 11.328 50a6.52 6.52 0 0 0-4.552 1.791 1 1 0 0 1-1.224-1.582A8.458 8.458 0 0 1 11.328 48a8.461 8.461 0 0 1 5.777 2.209 6.685 6.685 0 0 0 9.108 0 8.664 8.664 0 0 1 11.558 0 6.688 6.688 0 0 0 9.11 0 8.669 8.669 0 0 1 11.562 0A6.529 6.529 0 0 0 63 52a1 1 0 0 1 0 2ZM1 54a1 1 0 0 1 0-2 6.094 6.094 0 0 0 2.588-.506 1 1 0 0 1 .824 1.822A8.123 8.123 0 0 1 1 54ZM63 60a7.913 7.913 0 0 1-4.288-1.146 1 1 0 1 1 1.039-1.708A5.862 5.862 0 0 0 63 58a1 1 0 0 1 0 2Z" fill="#cc0000" opacity="1" data-original="#000000"></path><path d="M42.324 60a8.462 8.462 0 0 1-5.778-2.209 6.685 6.685 0 0 0-9.108 0 8.662 8.662 0 0 1-11.557 0A6.521 6.521 0 0 0 11.328 56a6.52 6.52 0 0 0-4.552 1.791A8.458 8.458 0 0 1 1 60a1 1 0 0 1 0-2 6.518 6.518 0 0 0 4.552-1.791A8.458 8.458 0 0 1 11.328 54a8.461 8.461 0 0 1 5.777 2.209 6.685 6.685 0 0 0 9.108 0 8.664 8.664 0 0 1 11.558 0 6.688 6.688 0 0 0 9.11 0A8.47 8.47 0 0 1 52.662 54a7.9 7.9 0 0 1 4.916 1.56 1 1 0 0 1-1.156 1.632A5.905 5.905 0 0 0 52.662 56a6.534 6.534 0 0 0-4.562 1.791A8.466 8.466 0 0 1 42.324 60ZM51 22H21a1 1 0 0 1 0-2h30a1 1 0 0 1 0 2ZM5 49a1 1 0 0 1-1-1 5.006 5.006 0 0 1 5-5 4.834 4.834 0 0 1 1.064.119 6 6 0 0 1 11.872 0 4.989 4.989 0 0 1 4.887 1.687 1 1 0 0 1-1.534 1.283 2.98 2.98 0 0 0-3.83-.647 1 1 0 0 1-1.511-.971l.023-.176A2.216 2.216 0 0 0 20 44a4 4 0 0 0-8 0 2.216 2.216 0 0 0 .029.3l.023.176a1 1 0 0 1-1.511.971A2.935 2.935 0 0 0 9 45a3 3 0 0 0-3 3 1 1 0 0 1-1 1ZM40 50a1 1 0 0 1-1-1 3 3 0 0 0-3-3c.035 0-.017.008-.071.01a1.022 1.022 0 0 1-1.009-.8A4.009 4.009 0 0 0 31 42a3.928 3.928 0 0 0-3.194 1.621 1 1 0 0 1-1.612-1.185A5.912 5.912 0 0 1 31 40a6.018 6.018 0 0 1 5.672 4.045A5.008 5.008 0 0 1 41 49a1 1 0 0 1-1 1Z" fill="#cc0000" opacity="1" data-original="#000000"></path></g></svg>