<?xml version="1.0" encoding="UTF-8"?>
<!DOCTYPE svg PUBLIC "-//W3C//DTD SVG 1.1//EN" "http://www.w3.org/Graphics/SVG/1.1/DTD/svg11.dtd">
<!-- Creator: CorelDRAW -->
<svg xmlns="http://www.w3.org/2000/svg" xml:space="preserve" width="87px" height="104px" version="1.1" style="shape-rendering:geometricPrecision; text-rendering:geometricPrecision; image-rendering:optimizeQuality; fill-rule:evenodd; clip-rule:evenodd"
viewBox="0 0 1.3 1.56"
 xmlns:xlink="http://www.w3.org/1999/xlink"
 xmlns:xodm="http://www.corel.com/coreldraw/odm/2003">
 <defs>
  <style type="text/css">
   <![CDATA[
    .fil0 {fill:#CC0000;fill-rule:nonzero}
   ]]>
  </style>
 </defs>
 <g id="Layer_x0020_1">
  <metadata id="CorelCorpID_0Corel-Layer"/>
  <g id="_1779411464560">
   <g>
    <path class="fil0" d="M0.3 0.41c-0.06,0 -0.1,0.04 -0.1,0.09 0,0.06 0.04,0.1 0.1,0.1 0.05,0 0.1,-0.04 0.1,-0.1 0,-0.05 -0.05,-0.09 -0.1,-0.09zm0 0.14c-0.03,0 -0.05,-0.02 -0.05,-0.05 0,-0.02 0.02,-0.05 0.05,-0.05 0.03,0 0.05,0.03 0.05,0.05 0,0.03 -0.02,0.05 -0.05,0.05zm0.37 -0.17c0,-0.05 -0.04,-0.1 -0.1,-0.1 -0.05,0 -0.1,0.05 -0.1,0.1 0,0.05 0.05,0.1 0.1,0.1 0.06,0 0.1,-0.05 0.1,-0.1zm-0.15 0c0,-0.03 0.03,-0.05 0.05,-0.05 0.03,0 0.05,0.02 0.05,0.05 0,0.03 -0.02,0.05 -0.05,0.05 -0.02,0 -0.05,-0.02 -0.05,-0.05zm-0.4 0.42c0,0.05 0.05,0.09 0.1,0.09 0.06,0 0.1,-0.04 0.1,-0.09 0,-0.06 -0.04,-0.1 -0.1,-0.1 -0.05,0 -0.1,0.04 -0.1,0.1zm0.1 -0.05c0.03,0 0.05,0.02 0.05,0.05 0,0.02 -0.02,0.05 -0.05,0.05 -0.02,0 -0.05,-0.03 -0.05,-0.05 0,-0.03 0.03,-0.05 0.05,-0.05zm0.13 0.24c0,0.06 0.04,0.1 0.1,0.1 0.05,0 0.1,-0.04 0.1,-0.1 0,-0.05 -0.05,-0.1 -0.1,-0.1 -0.06,0 -0.1,0.05 -0.1,0.1zm0.15 0c0,0.03 -0.02,0.05 -0.05,0.05 -0.03,0 -0.05,-0.02 -0.05,-0.05 0,-0.03 0.02,-0.05 0.05,-0.05 0.03,0 0.05,0.02 0.05,0.05zm0 0z" data-original="#000000"/>
    <path class="fil0" d="M1.02 0.23c0,-0.06 -0.08,-0.19 -0.1,-0.22 0,-0.01 -0.01,-0.01 -0.02,-0.01 -0.01,0 -0.02,0 -0.02,0.01 -0.02,0.02 -0.08,0.13 -0.1,0.2 -0.16,-0.07 -0.32,-0.06 -0.47,0 -0.14,0.07 -0.25,0.2 -0.29,0.36 -0.01,0.01 0,0.03 0.01,0.03 0.01,0 0.01,0 0.01,0 0.01,0 0.02,-0.01 0.02,-0.02 0.04,-0.14 0.14,-0.26 0.28,-0.32 0.13,-0.07 0.29,-0.07 0.44,0 0.01,0.03 0.03,0.06 0.06,0.08 -0.02,0.05 -0.03,0.13 -0.04,0.23 0,0.03 0,0.08 0,0.12 -0.1,0.05 -0.16,0.15 -0.15,0.27 0,0.05 0.01,0.12 -0.07,0.18 -0.05,0.05 -0.13,0.06 -0.2,0.03 -0.18,-0.06 -0.31,-0.22 -0.33,-0.4 0,-0.01 -0.01,-0.02 -0.02,-0.02 -0.02,0 -0.03,0.01 -0.03,0.02 0.03,0.21 0.17,0.38 0.37,0.45 0.08,0.03 0.18,0.01 0.25,-0.04 0.09,-0.08 0.08,-0.17 0.08,-0.22 -0.01,-0.09 0.03,-0.17 0.1,-0.21l0 0c0,0.11 0.01,0.34 0.05,0.45 0,0.01 0.02,0.05 0.05,0.05 0.03,0 0.05,-0.04 0.05,-0.05 0.04,-0.11 0.05,-0.33 0.05,-0.45 0,-0.02 0,-0.04 0,-0.05 0.01,0 0.01,0 0.02,0 0.05,0 0.09,-0.03 0.11,-0.07 0.04,-0.12 -0.04,-0.24 -0.14,-0.31 0.02,-0.03 0.03,-0.06 0.03,-0.09 0,0 0,0 0,0l0 0zm-0.12 -0.16c0.04,0.06 0.07,0.14 0.07,0.16 0,0.04 -0.03,0.08 -0.07,0.08 -0.04,-0.01 -0.08,-0.04 -0.08,-0.08 0,-0.02 0.04,-0.1 0.08,-0.16zm0 0.28c0,0 0.01,0 0.01,0 0.01,0.05 0.03,0.12 0.03,0.2 -0.01,0 -0.03,0 -0.04,0 -0.01,0 -0.03,0 -0.04,0 0,-0.08 0.01,-0.15 0.02,-0.2 0.01,0 0.01,0 0.02,0l0 0zm0 0.84c-0.04,-0.08 -0.05,-0.34 -0.05,-0.44 0,-0.02 0,-0.05 0,-0.05 0,-0.03 0,-0.07 0,-0.1 0.02,0 0.03,0 0.05,0 0.01,0 0.03,0 0.04,0 0.01,0.02 0.01,0.05 0.01,0.08 0,0.02 0,0.04 0,0.07 0,0.11 -0.01,0.36 -0.05,0.44l0 0zm0.18 -0.58c-0.01,0.02 -0.03,0.04 -0.06,0.04 0,0 -0.01,0 -0.01,0 0,0 -0.01,0 -0.01,0 0,-0.03 -0.01,-0.06 -0.01,-0.08 0,0 0,0 0,0 0,-0.09 -0.01,-0.16 -0.02,-0.21 0.1,0.08 0.14,0.18 0.11,0.25l0 0zm0 0z" data-original="#000000"/>
    <path class="fil0" d="M0.05 0.67c0,0.02 -0.01,0.03 -0.03,0.03 -0.01,0 -0.02,-0.01 -0.02,-0.03 0,-0.01 0.01,-0.02 0.02,-0.02 0.02,0 0.03,0.01 0.03,0.02zm0 0z" data-original="#000000"/>
   </g>
  </g>
  <g id="_1779411471568">
   <g>
    <path class="fil0" d="M0.94 1.03l0 0.34c-0.02,-0.02 -0.05,-0.03 -0.07,-0.03 -0.06,0 -0.1,0.05 -0.1,0.11 0,0.06 0.04,0.11 0.1,0.11 0.05,0 0.1,-0.05 0.1,-0.11l0 0 0 -0.27 0.3 -0.08 0 0.18c-0.02,-0.02 -0.05,-0.03 -0.07,-0.03 -0.06,0 -0.1,0.05 -0.1,0.11 0,0.06 0.04,0.11 0.1,0.11 0.05,0 0.1,-0.05 0.1,-0.11l0 -0.43 -0.36 0.1zm-0.07 0.49c-0.04,0 -0.07,-0.03 -0.07,-0.07 0,-0.04 0.03,-0.07 0.07,-0.07 0.04,0 0.07,0.03 0.07,0.07 0,0.04 -0.03,0.07 -0.07,0.07zm0.1 -0.38l0 -0.08 0.3 -0.08 0 0.08 -0.3 0.08 0 0zm0.23 0.29c-0.04,0 -0.07,-0.03 -0.07,-0.07 0,-0.04 0.03,-0.07 0.07,-0.07 0.04,0 0.07,0.03 0.07,0.07 0,0.04 -0.03,0.07 -0.07,0.07z" data-original="#000000"/>
   </g>
  </g>
 </g>
</svg>
