<svg xmlns="http://www.w3.org/2000/svg" version="1.1" xmlns:xlink="http://www.w3.org/1999/xlink" width="512" height="512" x="0" y="0" viewBox="0 0 512 512" style="enable-background:new 0 0 512 512" xml:space="preserve" class=""><g><path d="M32 120a24.027 24.027 0 0 1 24-24h24v16H56a8 8 0 0 0-8 8v336a8 8 0 0 0 8 8h224a8 8 0 0 0 8-8v-20h-16v12H64v-68.686l50.343 50.343A8 8 0 0 0 120 432h152v-16H128v-56a8 8 0 0 0-8-8H64V128h16a8 8 0 0 0 8 8h160a8 8 0 0 0 8-8h16v32h16v-40a8 8 0 0 0-8-8h-24V96h24a24.027 24.027 0 0 1 24 24v48h16v-48a40.045 40.045 0 0 0-40-40h-36.686l-13.657-13.657A8 8 0 0 0 224 64h-24a32 32 0 0 0-64 0h-24a8 8 0 0 0-5.657 2.343L92.686 80H56a40.045 40.045 0 0 0-40 40v32h16zm80 284.686L75.314 368H112zM115.314 80H144a8 8 0 0 0 8-8v-8a16 16 0 0 1 32 0v8a8 8 0 0 0 8 8h28.686L240 99.313V120H96V99.313z" fill="#cc0000" opacity="1" data-original="#000000" class=""></path><path d="M304 456a24.027 24.027 0 0 1-24 24H56a24.027 24.027 0 0 1-24-24V168H16v288a40.045 40.045 0 0 0 40 40h224a40.045 40.045 0 0 0 40-40v-16h-16zM112 200v-16h16v-16h-16v-16H96v16H80v16h16v16zM144 152h112v16H144zM144 184h72v16h-72zM112 216h96v16h-96z" fill="#cc0000" opacity="1" data-original="#000000" class=""></path><path d="M80 216h16v16H80zM112 248h96v16h-96zM112 280h120v16H112zM80 280h16v16H80zM112 312h144v16H112zM144 344h112v16H144zM144 376h112v16H144z" fill="#cc0000" opacity="1" data-original="#000000" class=""></path><path d="M472 24a8 8 0 0 0-8-8h-16a16 16 0 0 0 0 32h16a8 8 0 0 0 8-8 8.009 8.009 0 0 1 8 8v120a64 64 0 0 1-128 0V48a8.009 8.009 0 0 1 8-8 8 8 0 0 0 8 8h16a16 16 0 0 0 0-32h-16a8 8 0 0 0-8 8 24.028 24.028 0 0 0-24 24v120a80.11 80.11 0 0 0 72 79.6V364a59.965 59.965 0 0 1-88 53.043V296h-16v108.735A59.765 59.765 0 0 1 288 364v-76.581a56 56 0 1 0-16 0V364a76 76 0 0 0 152 0V247.6a80.11 80.11 0 0 0 72-79.6V48a24.028 24.028 0 0 0-24-24zM272 232a8 8 0 1 1 8 8 8.009 8.009 0 0 1-8-8zm-32 0a40 40 0 1 1 48 39.2v-16.576a24 24 0 1 0-16 0V271.2a40.067 40.067 0 0 1-32-39.2z" fill="#cc0000" opacity="1" data-original="#000000" class=""></path></g></svg>