<svg xmlns="http://www.w3.org/2000/svg" version="1.1" xmlns:xlink="http://www.w3.org/1999/xlink" width="512" height="512" x="0" y="0" viewBox="0 0 512 512" style="enable-background:new 0 0 512 512" xml:space="preserve" class=""><g><path d="M277.92 139.017c35.846 0 65.008-29.163 65.008-65.009S313.766 9 277.92 9c-17.365 0-33.69 6.762-45.968 19.041s-19.04 28.604-19.04 45.968c0 35.846 29.162 65.008 65.008 65.008zM241.851 37.94C251.486 28.306 264.295 23 277.92 23c28.126 0 51.008 22.882 51.008 51.008s-22.882 51.009-51.008 51.009-51.008-22.882-51.008-51.008c-.001-13.625 5.305-26.435 14.939-36.069zm229.016 371.158h-87.605v-20.125l63.583-47.38c24.953-18.594 31.33-55.968 14.519-85.085l-73.775-127.783c-7.444-12.893-23.99-17.326-36.882-9.882l-70.352 40.617c-6.417 3.705-11.066 9.975-12.769 17.213l-30.61 117.059h-92.762c-15.669 0-28.528 12.234-29.544 27.651H62.137C32.838 321.384 9 345.221 9 374.521v46.137a7 7 0 0 0 7 7h29.222c8.241 26.45 32.956 45.706 62.083 45.706s53.842-19.256 62.083-45.706h29.221a7 7 0 0 0 7-7v-46.137c0-7.435-1.599-14.796-4.612-21.555h59.376c13.92 0 24.628-10.133 29.376-27.8l17.504-65.116 32.645 56.542-31.74 35.582H284.28c-9.374 0-17 7.626-17 17v12.718h-34.247a7 7 0 0 0-7 7V496a7 7 0 0 0 7 7h143.228a7 7 0 0 0 7-7v-22.636h87.605c17.718 0 32.133-14.415 32.133-32.133s-14.414-32.133-32.132-32.133zM23 413.658v-39.137c0-21.581 17.557-39.137 39.137-39.137h55.025a29.753 29.753 0 0 0 7.759 10.408 64.807 64.807 0 0 0-17.617-2.446c-17.364 0-33.689 6.762-45.968 19.041s-19.041 28.604-19.041 45.968a65.5 65.5 0 0 0 .234 5.303zm84.305 45.706c-28.126 0-51.008-22.882-51.008-51.008 0-13.625 5.305-26.435 14.94-36.069 9.634-9.634 22.443-14.94 36.068-14.94 28.126 0 51.008 22.882 51.008 51.008s-22.882 51.009-51.008 51.009zm84.304-84.843v39.137h-19.53a65.5 65.5 0 0 0 .234-5.303c0-23.511-12.546-44.146-31.294-55.564 1.05.113 2.115.175 3.195.175h40.876c4.275 6.406 6.519 13.794 6.519 21.555zm162.943-60.546-42.164-73.03 10.074-37.476a7 7 0 1 0-13.52-3.634L276.23 321.532c-2.138 7.953-6.625 17.434-15.857 17.434h-116.16c-8.611 0-15.617-7.005-15.617-15.617s7.005-15.617 15.617-15.617h98.167a7 7 0 0 0 6.772-5.229l32.001-122.38c.017-.065.033-.13.048-.196.824-3.565 3.009-6.528 6.152-8.344l70.352-40.617c6.207-3.585 14.173-1.449 17.758 4.758l73.775 127.783c13.32 23.07 8.593 52.438-10.76 66.86l-69.144 51.524h-27.32v-12.718c0-8.76-6.663-15.991-15.186-16.9l26.885-30.14a6.994 6.994 0 0 0 .839-8.158zm-73.272 55.199c0-1.626 1.374-3 3-3h40.735c1.654 0 3 1.346 3 3v12.718H281.28zM369.261 489H240.033v-93.108h129.228zm101.606-29.636h-87.605v-36.266h87.605c9.999 0 18.133 8.134 18.133 18.133s-8.135 18.133-18.133 18.133zM101.524 250.645c50.215 0 91.067-40.853 91.067-91.067S151.739 68.51 101.524 68.51s-91.067 40.853-91.067 91.067 40.852 91.068 91.067 91.068zm0-168.135c42.495 0 77.067 34.572 77.067 77.067s-34.572 77.067-77.067 77.067-77.067-34.572-77.067-77.067S59.029 82.51 101.524 82.51zm-20.938 98.006v31.793a7 7 0 0 0 7 7h27.876a7 7 0 0 0 7-7v-31.793h31.793a7 7 0 0 0 7-7V145.64a7 7 0 0 0-7-7h-31.793v-31.794a7 7 0 0 0-7-7H87.586a7 7 0 0 0-7 7v31.794H48.792a7 7 0 0 0-7 7v27.876a7 7 0 0 0 7 7zM55.792 152.64h31.794a7 7 0 0 0 7-7v-31.794h13.876v31.794a7 7 0 0 0 7 7h31.793v13.876h-31.793a7 7 0 0 0-7 7v31.793H94.586v-31.793a7 7 0 0 0-7-7H55.792zm149.817 343.359a7 7 0 0 1-7 7H16a7 7 0 1 1 0-14h182.609a7 7 0 0 1 7 7zm71.428-53.553a7 7 0 0 1 7-7h13.61v-13.61a7 7 0 1 1 14 0v13.61h13.611a7 7 0 1 1 0 14h-13.611v13.61a7 7 0 1 1-14 0v-13.61h-13.61a7 7 0 0 1-7-7z" fill="#cc0000" opacity="1" data-original="#000000" class=""></path></g></svg>