<svg xmlns="http://www.w3.org/2000/svg" version="1.1" xmlns:xlink="http://www.w3.org/1999/xlink" width="512" height="512" x="0" y="0" viewBox="0 0 496 496" style="enable-background:new 0 0 512 512" xml:space="preserve" class=""><g><path d="M447.808 390.192c-5.368-32.232-27.968-58.68-58.976-69.016L320 298.232V288h-16v15.008l-11.944 47.768L259.744 312h-23.496l-32.312 38.776L192 303.008V288h-16v10.232l-68.832 22.944c-31 10.336-53.6 36.784-58.976 69.016L30.552 496h434.896l-17.64-105.808zM104.76 480H49.448l2.568-15.44 53.616 6.704-.872 8.736zm104.304 0H120.84l7.12-71.2-15.92-1.592-4.816 48.136-52.576-6.576 9.32-55.944c4.4-26.368 22.888-48.008 48.256-56.464l66.104-22.04 17.728 70.904 18.04-21.648 9.544 14.32L209.064 480zm61.712 0h-45.552l15.128-105.896-15.568-23.352L243.744 328h8.504l18.96 22.752-15.568 23.352L270.776 480zm113.184-72.8-15.92 1.592 7.12 71.2h-88.224l-14.584-102.104 9.544-14.32 18.048 21.656 17.728-70.904 66.104 22.04c25.368 8.456 43.856 30.096 48.256 56.472l9.32 55.944-52.576 6.576-4.816-48.152zm7.28 72.8-.872-8.736 53.616-6.704 2.568 15.44H391.24z" fill="#cc0000" opacity="1" data-original="#000000" class=""></path><path d="M121.128 150.88C115.512 157.768 112 166.44 112 176c0 20.528 15.6 37.296 35.536 39.552 4.08 14.04 11.616 26.912 22.24 37.536l31.2 31.2c7.552 7.552 17.592 11.712 28.28 11.712h37.496c10.68 0 20.728-4.16 28.28-11.712l31.2-31.2c10.624-10.624 18.16-23.504 22.24-37.536C368.4 213.296 384 196.528 384 176c0-9.56-3.512-18.232-9.128-25.12C384.744 147.904 392 138.832 392 128c0-13.232-10.768-24-24-24h-1.136C360.488 56.776 326.024 17.264 280 4.504V0h-64v4.504c-46.024 12.76-80.496 52.28-86.864 99.496H128c-13.232 0-24 10.768-24 24 0 10.832 7.256 19.904 17.128 22.88zM128 176c0-10.416 6.712-19.216 16-22.528v37.392c0 2.616.152 5.208.376 7.784C134.896 195.44 128 186.552 128 176zm207.992 14.864c.008 19.232-7.48 37.312-21.08 50.912l-31.2 31.2c-4.464 4.464-10.648 7.024-16.968 7.024h-37.496c-6.32 0-12.496-2.56-16.968-7.024l-31.2-31.2c-13.6-13.6-21.088-31.68-21.088-50.912V152h176v38.864zm15.632 7.776c.224-2.568.376-5.16.376-7.776v-37.392c9.288 3.312 16 12.112 16 22.528 0 10.552-6.896 19.44-16.376 22.64zM216 21.168V88h16V16h32v72h16V21.168C317.08 33.192 344.752 65.48 350.768 104H145.232C151.248 65.48 178.92 33.192 216 21.168zM128 120h240c4.408 0 8 3.592 8 8s-3.592 8-8 8H128c-4.408 0-8-3.592-8-8s3.592-8 8-8z" fill="#cc0000" opacity="1" data-original="#000000" class=""></path><path d="M296 72h16v16h-16zM184 72h16v16h-16z" fill="#cc0000" opacity="1" data-original="#000000" class=""></path></g></svg>