<?xml version="1.0" encoding="UTF-8"?>
<!DOCTYPE svg PUBLIC "-//W3C//DTD SVG 1.1//EN" "http://www.w3.org/Graphics/SVG/1.1/DTD/svg11.dtd">
<!-- Creator: CorelDRAW -->
<svg xmlns="http://www.w3.org/2000/svg" xml:space="preserve" width="100px" height="100px" version="1.1" style="shape-rendering:geometricPrecision; text-rendering:geometricPrecision; image-rendering:optimizeQuality; fill-rule:evenodd; clip-rule:evenodd"
viewBox="0 0 1.61 1.61"
 xmlns:xlink="http://www.w3.org/1999/xlink"
 xmlns:xodm="http://www.corel.com/coreldraw/odm/2003">
 <defs>
  <style type="text/css">
   <![CDATA[
    .fil0 {fill:#CC0000;fill-rule:nonzero}
   ]]>
  </style>
 </defs>
 <g id="Layer_x0020_1">
  <metadata id="CorelCorpID_0Corel-Layer"/>
  <g id="_1778709144112">
   <g>
    <path class="fil0" d="M1.04 0.72c-0.02,0 -0.03,0.01 -0.03,0.03l0 0.03c0,0.01 0.01,0.02 0.03,0.02 0.01,0 0.02,-0.01 0.02,-0.02l0 -0.03c0,-0.02 -0.01,-0.03 -0.02,-0.03l0 0zm-0.07 0.04c-0.01,-0.01 -0.02,-0.01 -0.02,-0.01 -0.02,0 -0.03,0.01 -0.03,0.02 0,0.01 0,0.01 0.01,0.01l0.01 0.03c0,0.01 0.01,0.01 0.02,0.01 0,0 0.01,0 0.01,0 0.01,-0.01 0.01,-0.02 0.01,-0.02 0,-0.01 0,-0.01 0,-0.02l-0.01 -0.02zm0.17 -0.01c0,0 -0.01,0 -0.01,0 -0.01,0 -0.02,0 -0.02,0.01l-0.02 0.02c0,0.01 0,0.01 0,0.02 0,0.01 0.01,0.02 0.02,0.02 0.01,0 0.02,0 0.02,-0.01l0.02 -0.03c0,0 0,0 0,-0.01 0,-0.01 0,-0.02 -0.01,-0.02l0 0zm-0.55 -0.41c0.02,0.02 0.05,0.03 0.08,0.03 0.03,0 0.06,-0.01 0.08,-0.04 0.05,-0.04 0.05,-0.12 0.01,-0.17 0,-0.01 -0.01,-0.01 -0.02,-0.01 0,0 0,0 0,0 -0.01,0 -0.02,0 -0.03,0.01l-0.13 0.13c0,0.01 0,0.02 0,0.03 0,0 0,0 0,0 0,0.01 0,0.02 0.01,0.02l0 0zm0.15 -0.13c0.01,0.03 0.01,0.06 -0.02,0.09 -0.02,0.02 -0.06,0.03 -0.09,0.01l0.11 -0.1zm0.68 0.12c0.01,0 0.02,0.01 0.03,0.01 0,0 0,0 0,0 0.01,0 0.02,-0.01 0.02,-0.02 0.04,-0.05 0.04,-0.12 0,-0.17 -0.05,-0.04 -0.12,-0.05 -0.17,-0.01 -0.01,0.01 -0.01,0.02 -0.01,0.03 0,0 0,0 0,0 0,0.01 0,0.02 0.01,0.03l0.12 0.13zm0.01 -0.14c0.03,0.02 0.03,0.06 0.02,0.09l-0.11 -0.11c0.03,-0.01 0.07,-0.01 0.09,0.02z" data-original="#000000"/>
    <path class="fil0" d="M1.58 0.87l-0.05 0c0.02,-0.06 0.03,-0.13 0.02,-0.19 0,-0.01 -0.01,-0.02 -0.02,-0.02 -0.02,-0.01 -0.05,-0.01 -0.07,-0.01 0,-0.01 -0.01,-0.02 -0.02,-0.04 -0.02,-0.05 -0.06,-0.08 -0.11,-0.1 -0.02,0 -0.04,-0.01 -0.06,-0.01 0,0 -0.01,0 -0.02,0 0,0 0,0 0,0 0.03,-0.01 0.06,-0.03 0.09,-0.05 0.01,-0.01 0.01,-0.02 0.01,-0.03 0,0 0,0 0,0 0,-0.01 0,-0.02 -0.01,-0.03l-0.37 -0.38c0,-0.01 -0.01,-0.01 -0.02,-0.01 0,0 -0.01,0 -0.01,0 -0.01,0 -0.02,0.01 -0.02,0.01 -0.11,0.12 -0.1,0.3 0,0.41 -0.01,0 -0.01,0.01 -0.01,0.01 -0.04,-0.02 -0.09,-0.03 -0.13,-0.03 -0.05,0.01 -0.08,0.03 -0.11,0.07 -0.03,-0.01 -0.07,-0.01 -0.1,0.02 0,-0.13 -0.06,-0.23 -0.13,-0.23 -0.06,0 -0.1,0.06 -0.12,0.14 0,0 0,0 -0.01,0 -0.09,-0.09 -0.2,-0.12 -0.25,-0.07 -0.05,0.05 -0.02,0.16 0.07,0.26 0,0 0,0 0,0 -0.08,0.02 -0.13,0.07 -0.13,0.12 0,0.08 0.09,0.13 0.22,0.14 -0.01,0 -0.01,0.01 -0.02,0.02l-0.12 0c-0.02,0 -0.04,0.02 -0.04,0.04l0 0.06c0,0.02 0.02,0.04 0.04,0.04l0.03 0c0.01,0.12 0.05,0.23 0.11,0.33 0.08,0.11 0.18,0.21 0.31,0.27 0.01,0 0.02,0 0.04,0l0.32 0c0.02,0 0.03,-0.01 0.03,-0.02 0,-0.01 -0.01,-0.02 -0.03,-0.02l-0.32 0c-0.01,0 -0.02,-0.01 -0.02,-0.01 -0.12,-0.05 -0.22,-0.14 -0.29,-0.25 -0.06,-0.09 -0.09,-0.19 -0.1,-0.3l1.34 0c-0.01,0.11 -0.05,0.21 -0.11,0.3 -0.07,0.11 -0.16,0.2 -0.28,0.25 -0.01,0 -0.02,0.01 -0.02,0.01l-0.09 0c-0.01,0 -0.02,0.01 -0.02,0.02 0,0.01 0.01,0.02 0.02,0.02l0.09 0c0.01,0 0.03,0 0.04,0 0.12,-0.06 0.23,-0.16 0.3,-0.27 0.07,-0.1 0.11,-0.21 0.12,-0.33l0.03 0c0.02,0 0.03,-0.02 0.03,-0.04l0 -0.06c0,-0.02 -0.01,-0.04 -0.03,-0.04l0 0zm-0.07 -0.13c0,0.04 -0.01,0.09 -0.04,0.13l-0.09 0 0.13 -0.13zm-0.03 -0.04l-0.16 0.16c0,-0.03 -0.01,-0.06 -0.03,-0.08 0.06,-0.05 0.12,-0.08 0.19,-0.08l0 0zm-0.18 -0.28c-0.02,0.01 -0.04,0.03 -0.06,0.04 -0.01,-0.02 -0.02,-0.03 -0.03,-0.04 0.02,-0.01 0.04,-0.02 0.06,-0.04l0.03 0.04zm-0.22 -0.23l0.09 0.09c-0.01,0 -0.02,0 -0.03,0 0,0 0,0 0,0 -0.02,0 -0.03,0 -0.05,-0.01 -0.02,-0.03 -0.02,-0.06 -0.01,-0.08l0 0zm-0.13 -0.14l0.03 0.04c-0.02,0.02 -0.03,0.04 -0.04,0.07 0,0.01 0,0.01 0,0.01 0,0.01 0.01,0.02 0.02,0.02 0.01,0 0.02,0 0.03,-0.01 0,-0.02 0.01,-0.04 0.02,-0.06l0.04 0.03c-0.03,0.05 -0.03,0.11 0.01,0.15 0.02,0.02 0.05,0.03 0.08,0.03 0.02,0 0.04,0 0.06,-0.02l0.04 0.04c-0.03,0.02 -0.05,0.03 -0.08,0.03 -0.02,-0.01 -0.05,-0.02 -0.07,-0.03 -0.01,0 -0.02,0 -0.03,0 0,0 0,0 -0.01,0 -0.01,0 -0.01,-0.01 -0.02,-0.02 -0.02,-0.01 -0.03,-0.03 -0.04,-0.06 0,-0.01 -0.01,-0.01 -0.02,-0.01 0,0 -0.01,0 -0.01,0 -0.01,0 -0.01,0.01 -0.01,0.02 0,0.01 0,0.01 0,0.01 0.01,0.03 0.02,0.06 0.04,0.08l0 0c-0.01,0 -0.02,0.01 -0.04,0.02 -0.08,-0.1 -0.08,-0.24 0,-0.34l0 0zm-0.16 0.4c0.04,0 0.08,0.01 0.11,0.03 0.01,0.01 0.01,0.01 0.02,0.01 0,0 0.01,-0.01 0.02,-0.01 0.03,-0.05 0.08,-0.08 0.14,-0.08 0.06,0.01 0.11,0.06 0.13,0.11 -0.03,0.01 -0.05,0.03 -0.07,0.04 -0.03,-0.03 -0.07,-0.05 -0.12,-0.05 -0.08,-0.01 -0.15,0.04 -0.18,0.1 -0.02,0 -0.04,-0.01 -0.05,-0.01 -0.01,0 -0.01,0 -0.01,0 -0.02,0 -0.03,0 -0.05,0.01 0,-0.04 -0.01,-0.08 -0.02,-0.11 0.02,-0.02 0.05,-0.03 0.08,-0.04l0 0zm-0.06 0.2c0.01,-0.01 0.03,-0.01 0.05,-0.01 0,0 0,0 0,0 0.02,0 0.04,0.01 0.06,0.02 0,0 0.01,0 0.01,0 0.01,0 0.02,-0.01 0.02,-0.02 0.03,-0.06 0.08,-0.1 0.15,-0.09 0.04,0 0.08,0.02 0.11,0.05 0,0.01 0.01,0.01 0.01,0.01 0,0 0,0 0,0 0.01,0 0.02,0 0.02,-0.01 0.04,-0.04 0.1,-0.06 0.16,-0.04 0.03,0.01 0.06,0.04 0.08,0.07 0.01,0.01 0.01,0.02 0.01,0.03 -0.05,0.01 -0.1,0.04 -0.15,0.08 -0.05,-0.07 -0.13,-0.11 -0.22,-0.11 -0.15,0 -0.27,0.1 -0.29,0.24l-0.06 0 -0.02 -0.07c0,0 0,0 0,0 0,-0.01 0,-0.01 0,-0.02 0.01,-0.01 0.02,-0.03 0.03,-0.04 0.01,-0.03 0.02,-0.06 0.03,-0.09l0 0zm0.48 0.18c0,-0.01 -0.01,-0.02 -0.02,-0.02 0,0 0,0.01 -0.01,0.01l-0.02 0.01c-0.01,0.01 -0.01,0.01 -0.01,0.02 0,0.01 0,0.02 0,0.02l-0.23 0c0.01,0 0.01,-0.01 0.01,-0.02 0,-0.01 -0.01,-0.01 -0.01,-0.02l-0.03 -0.01c0,0 -0.01,-0.01 -0.01,-0.01 -0.01,0 -0.02,0.02 -0.02,0.03 0,0.01 0,0.02 0.01,0.02l0.02 0.01 -0.1 0c0.03,-0.11 0.13,-0.19 0.25,-0.19 0.11,0 0.21,0.08 0.24,0.19l-0.09 0 0.02 -0.01c0,0 0.01,-0.01 0.01,-0.02 0,-0.01 0,-0.01 -0.01,-0.01l0 0zm-0.93 -0.4c0.01,0.01 0.02,0.03 0.03,0.04 0.01,0.01 0.02,0.01 0.02,0.01 0.02,0 0.03,-0.01 0.03,-0.02 0.01,-0.09 0.05,-0.15 0.08,-0.15 0.04,0 0.08,0.08 0.08,0.19 0,0.01 0,0.02 0,0.04 0,0 0,0 0,0 0,0.01 0.01,0.02 0.02,0.02 0.01,0 0.02,0 0.02,0 0.04,-0.04 0.07,-0.06 0.1,-0.05 0.03,0.02 0.04,0.11 0,0.2 -0.01,0.02 -0.02,0.03 -0.03,0.05 -0.01,0.02 -0.01,0.04 -0.01,0.06l0.02 0.05 -0.01 0 -0.09 -0.09 0.02 -0.15c0,0 0,0 0,-0.01 0,-0.01 -0.01,-0.02 -0.02,-0.02 -0.01,0 -0.02,0.01 -0.02,0.02l-0.02 0.12 -0.07 -0.07 0.02 -0.16c0,0 0,0 0,0 0,-0.01 -0.01,-0.02 -0.02,-0.02 -0.01,0 -0.02,0.01 -0.02,0.02l-0.02 0.12 -0.27 -0.28c0.04,-0.01 0.1,0.02 0.16,0.08zm1.29 0.53l-1.48 0 0 -0.04 0.31 0c0.01,0 0.02,-0.01 0.02,-0.03 0,-0.01 -0.01,-0.02 -0.02,-0.02l-0.14 0c0.01,-0.01 0.01,-0.02 0.03,-0.03 0,-0.01 0,-0.01 0,-0.02 0,-0.01 -0.01,-0.02 -0.02,-0.02 0,0 0,0 0,0 -0.02,0 -0.03,0 -0.04,0 -0.11,0 -0.18,-0.05 -0.18,-0.09 0,-0.03 0.05,-0.07 0.14,-0.08 0.01,0 0.02,-0.01 0.02,-0.02 0,-0.01 0,-0.02 -0.01,-0.02 -0.01,-0.01 -0.02,-0.03 -0.04,-0.04 -0.03,-0.03 -0.06,-0.08 -0.07,-0.11 -0.01,-0.02 -0.01,-0.04 -0.01,-0.05l0.27 0.27 -0.11 0.02c-0.01,0 -0.02,0.01 -0.02,0.02 0,0.02 0.01,0.03 0.02,0.03 0,0 0,0 0,0l0.16 -0.03 0.06 0.07 -0.11 0.02c-0.01,0 -0.02,0.01 -0.02,0.03 0,0.01 0.01,0.02 0.02,0.02 0,0 0,0 0.01,0l0.15 -0.02 0.05 0.05 -0.05 0c-0.02,0 -0.03,0.01 -0.03,0.02 0,0.02 0.01,0.03 0.03,0.03l1.06 0 0 0.04z" data-original="#000000"/>
   </g>
  </g>
 </g>
</svg>
