<svg xmlns="http://www.w3.org/2000/svg" version="1.1" xmlns:xlink="http://www.w3.org/1999/xlink" width="512" height="512" x="0" y="0" viewBox="0 0 511.999 511.999" style="enable-background:new 0 0 512 512" xml:space="preserve"><g><path d="M478.946 33.018C457.68 11.751 429.315.039 399.052.039s-58.637 11.711-79.895 32.978l-63.168 63.164-63.164-63.164C171.558 11.75 143.194.039 112.93.039c-30.254 0-58.628 11.711-79.886 32.978-44.06 44.06-44.06 115.747 0 159.798l63.146 63.154-63.146 63.143c-44.051 44.06-44.051 115.747 0 159.807 21.267 21.267 49.64 32.969 79.895 32.969 30.263 0 58.646-11.703 79.904-32.969l286.112-286.104c44.06-44.05 44.06-115.738-.009-159.797zM56.201 169.659c-31.284-31.292-31.284-82.201 0-113.485 15.083-15.074 35.205-23.387 56.72-23.387s41.655 8.304 56.738 23.387l63.168 63.168L119.352 232.81l-63.151-63.151zm113.485 286.095c-15.083 15.074-35.232 23.387-56.747 23.387-21.506 0-41.655-8.313-56.738-23.378-31.275-31.292-31.275-82.201 0-113.485l74.521-74.517c.071-.068.148-.127.218-.197.073-.073.134-.154.206-.228L342.314 56.183c15.083-15.083 35.232-23.387 56.738-23.387 21.497 0 41.655 8.304 56.729 23.37 31.284 31.292 31.284 82.201.009 113.485L169.686 455.754zM435.233 275.425c-6.388-6.415-16.76-6.415-23.157 0-6.397 6.388-6.397 16.751 0 23.148l43.696 43.705c31.284 31.284 31.284 82.193.009 113.476-31.284 31.284-82.201 31.284-113.485-.009L298.6 412.058c-6.388-6.397-16.76-6.406-23.165 0-6.397 6.388-6.397 16.76.009 23.165l43.696 43.687c22.039 22.039 50.962 33.049 79.904 33.049 28.924 0 57.874-11.01 79.895-33.04 44.051-44.051 44.051-115.739 0-159.798l-43.706-43.696z" fill="#cc0000" opacity="1" data-original="#000000"></path><path d="M297.216 137.417c-6.388-6.406-16.76-6.406-23.157 0-6.406 6.388-6.406 16.76 0 23.157l77.331 77.331c3.203 3.203 7.391 4.8 11.587 4.8s8.375-1.606 11.569-4.8c6.406-6.388 6.406-16.76 0-23.157l-77.33-77.331zM349.349 143.406c5.856 0 11.534-2.307 15.704-6.477 4.161-4.17 6.468-9.848 6.468-15.704 0-5.767-2.298-11.534-6.468-15.615-8.26-8.34-23.157-8.251-31.408 0-4.072 4.081-6.477 9.76-6.477 15.615 0 5.856 2.396 11.534 6.477 15.704 4.171 4.17 9.849 6.477 15.704 6.477zM374.99 146.955c-4.072 4.081-6.477 9.759-6.477 15.615s2.396 11.623 6.477 15.704c4.17 4.17 9.848 6.477 15.704 6.477s11.534-2.307 15.704-6.477c4.072-4.17 6.468-9.848 6.468-15.704 0-5.767-2.298-11.534-6.468-15.615-8.26-8.251-23.157-8.34-31.408 0zM390.783 102.061c5.856 0 11.543-2.396 15.704-6.565 4.072-4.081 6.468-9.848 6.468-15.615 0-5.856-2.387-11.534-6.468-15.704-8.251-8.251-23.157-8.251-31.408 0-4.161 4.081-6.477 9.848-6.477 15.704s2.307 11.534 6.477 15.615c4.081 4.17 9.857 6.565 15.704 6.565zM416.424 105.522c-4.17 4.17-6.477 9.848-6.477 15.704 0 5.767 2.298 11.534 6.477 15.615 4.081 4.17 9.848 6.565 15.704 6.565s11.534-2.396 15.704-6.565c4.072-4.081 6.468-9.759 6.468-15.615s-2.387-11.623-6.468-15.704c-8.341-8.252-23.157-8.252-31.408 0zM121.244 371.512c5.856 0 11.623-2.387 15.704-6.477 4.17-4.161 6.477-9.839 6.477-15.704s-2.307-11.534-6.477-15.704c-8.251-8.251-23.068-8.251-31.319 0-4.17 4.17-6.565 9.839-6.565 15.704s2.396 11.543 6.565 15.704c4.081 4.081 9.848 6.477 15.615 6.477zM146.973 374.972c-4.17 4.161-6.565 9.839-6.565 15.704s2.396 11.534 6.565 15.704c4.081 4.081 9.848 6.477 15.615 6.477 5.856 0 11.623-2.387 15.704-6.477 4.17-4.17 6.477-9.839 6.477-15.704s-2.307-11.543-6.477-15.704c-8.251-8.26-23.067-8.26-31.319 0zM95.603 375.061c-8.34-8.251-23.157-8.251-31.408 0-4.17 4.072-6.477 9.848-6.477 15.704 0 5.776 2.307 11.543 6.477 15.615 4.081 4.17 9.848 6.565 15.704 6.565s11.534-2.387 15.704-6.565c4.081-4.072 6.477-9.848 6.477-15.615 0-5.865-2.396-11.632-6.477-15.704zM105.54 416.405c-4.17 4.072-6.477 9.848-6.477 15.704 0 5.776 2.307 11.534 6.477 15.615 4.17 4.17 9.848 6.565 15.704 6.565s11.534-2.387 15.704-6.565c4.081-4.081 6.477-9.848 6.477-15.615 0-5.865-2.396-11.632-6.477-15.704-8.34-8.26-23.157-8.26-31.408 0zM160.592 274.041c-6.397-6.397-16.769-6.388-23.165 0-6.397 6.388-6.397 16.769 0 23.165l77.331 77.339a16.325 16.325 0 0 0 11.578 4.8c4.188 0 8.384-1.606 11.587-4.8 6.397-6.388 6.397-16.769 0-23.165l-77.331-77.339z" fill="#cc0000" opacity="1" data-original="#000000"></path></g></svg>