<svg xmlns="http://www.w3.org/2000/svg" version="1.1" xmlns:xlink="http://www.w3.org/1999/xlink" width="512" height="512" x="0" y="0" viewBox="0 0 677.869 423.149" style="enable-background:new 0 0 512 512" xml:space="preserve" class=""><g><path d="M469.2 69.176c.024 0 .048.004.072.004l.299-4.613a3.263 3.263 0 0 0 1.954.646 3.28 3.28 0 0 0 3.27-3.067c1.744-26.68-4.289-33.044-5.516-34.049a3.263 3.263 0 0 0-1.977-.737 3.172 3.172 0 0 0-.336-.018h-15.844c-.113 0-.225.006-.335.018a3.262 3.262 0 0 0-1.977.737c-1.227 1.005-7.26 7.368-5.517 34.05a3.28 3.28 0 0 0 3.488 3.059 3.261 3.261 0 0 0 1.736-.639l1.113 17.166c3.421-7.4 10.896-12.557 19.57-12.557z" fill="#cc0000" opacity="1" data-original="#000000"></path><circle cx="459.044" cy="15.778" r="9.227" transform="rotate(-67.48 459.08 15.642)" fill="#cc0000" opacity="1" data-original="#000000"></circle><path d="m528.4 116.118 1.894-29.216a3.717 3.717 0 0 0 2.226.736 3.737 3.737 0 0 0 3.726-3.494c1.987-30.396-4.887-37.645-6.285-38.79a3.718 3.718 0 0 0-2.252-.84 3.622 3.622 0 0 0-.383-.02h-18.05c-.129 0-.256.007-.382.02a3.717 3.717 0 0 0-2.252.84c-1.398 1.145-8.271 8.394-6.285 38.79a3.738 3.738 0 0 0 3.973 3.486 3.718 3.718 0 0 0 1.979-.728l1.456 22.476c.93-.099 1.872-.152 2.827-.152 6.85 0 13.1 2.612 17.809 6.892z" fill="#cc0000" opacity="1" data-original="#000000"></path><circle cx="518.302" cy="31.319" r="10.512" fill="#cc0000" opacity="1" data-original="#000000"></circle><path d="M298.373 49.394a2.915 2.915 0 0 0 4.641 2.151l1.984 30.615a4.504 4.504 0 0 0 4.787 4.203 4.48 4.48 0 0 0 2.582-1.03 4.48 4.48 0 0 0 2.582 1.03 4.504 4.504 0 0 0 4.786-4.203l1.984-30.615a2.897 2.897 0 0 0 1.737.574 2.915 2.915 0 0 0 2.905-2.725c1.55-23.705-3.81-29.358-4.901-30.25a2.9 2.9 0 0 0-1.757-.656 2.844 2.844 0 0 0-.298-.016H305.33c-.101 0-.2.006-.298.016a2.9 2.9 0 0 0-1.757.655c-1.09.893-6.45 6.546-4.901 30.25z" fill="#cc0000" opacity="1" data-original="#000000"></path><circle cx="312.367" cy="8.198" r="8.198" fill="#cc0000" opacity="1" data-original="#000000"></circle><path d="M135.877 49.394a2.915 2.915 0 0 0 4.642 2.151l1.984 30.615a4.504 4.504 0 0 0 4.786 4.203 4.48 4.48 0 0 0 2.583-1.03 4.48 4.48 0 0 0 2.582 1.03 4.504 4.504 0 0 0 4.786-4.203l1.984-30.615a2.898 2.898 0 0 0 1.736.574 2.915 2.915 0 0 0 2.906-2.725c1.549-23.705-3.811-29.358-4.902-30.25a2.9 2.9 0 0 0-1.756-.656 2.844 2.844 0 0 0-.298-.016h-14.077c-.1 0-.2.006-.298.016a2.9 2.9 0 0 0-1.756.655c-1.09.893-6.45 6.546-4.902 30.25zM149.872 16.396a8.198 8.198 0 1 0 0-16.396 8.198 8.198 0 0 0 0 16.396zM260.716 72.213l.496-7.646a3.263 3.263 0 0 0 1.954.646 3.28 3.28 0 0 0 3.27-3.067c1.744-26.68-4.29-33.044-5.516-34.049a3.262 3.262 0 0 0-1.978-.737 3.172 3.172 0 0 0-.335-.018h-15.844c-.114 0-.225.006-.335.018a3.263 3.263 0 0 0-1.978.737c-1.227 1.005-7.26 7.368-5.516 34.049a3.28 3.28 0 0 0 5.224 2.421l2.233 34.459a5.07 5.07 0 0 0 5.387 4.731 5.042 5.042 0 0 0 2.907-1.16 5.043 5.043 0 0 0 2.906 1.16c.313.02.62.002.92-.033-2.739-3.616-4.384-8.104-4.384-12.98 0-7.88 4.262-14.768 10.59-18.531zM259.912 15.778a9.227 9.227 0 1 0-18.455 0 9.227 9.227 0 0 0 18.455 0zM637.192 80.42a7.763 7.763 0 0 1 4.613-1.76c.23-.022.46-.033.696-.033h2.02c.006-.191.008-.372.014-.562-4.204-3.015-6.957-7.931-6.957-13.488 0-4.435 1.758-8.46 4.6-11.441-1.61-5.262-3.545-7.232-4.217-7.782a3.718 3.718 0 0 0-2.252-.84 3.622 3.622 0 0 0-.382-.02h-18.05c-.13 0-.257.007-.382.02a3.717 3.717 0 0 0-2.253.84c-1.398 1.145-8.271 8.394-6.285 38.79a3.738 3.738 0 0 0 3.973 3.486 3.718 3.718 0 0 0 1.98-.728l2.543 39.257a5.776 5.776 0 0 0 6.138 5.39 5.744 5.744 0 0 0 3.31-1.323c.46.383.982.695 1.55.922-2.173-38.128 6.567-48.458 9.34-50.728z" fill="#cc0000" opacity="1" data-original="#000000"></path><circle cx="626.302" cy="31.319" r="10.512" fill="#cc0000" opacity="1" data-original="#000000"></circle><path d="m216.327 143.938.009-.14c-.081.047-.16.095-.242.14zM187.822 106.049c4.314-4.259 10.235-6.893 16.761-6.893 6.607 0 12.595 2.699 16.922 7.05a4.252 4.252 0 0 0 4.104-3.968c2.264-34.641-5.57-42.903-7.163-44.208a4.236 4.236 0 0 0-2.567-.957 4.142 4.142 0 0 0-.436-.024h-20.571c-.147 0-.292.009-.435.024a4.235 4.235 0 0 0-2.567.957c-1.594 1.305-9.427 9.567-7.163 44.208.121 1.856 1.42 3.34 3.115 3.81z" fill="#cc0000" opacity="1" data-original="#000000"></path><circle cx="205.158" cy="42.035" r="11.98" transform="rotate(-13.34 204.874 42.18)" fill="#cc0000" opacity="1" data-original="#000000"></circle><path d="M100.052 162.671a11.856 11.856 0 0 1 5.328-2.488l.59-9.094a26.346 26.346 0 0 1-4.93-15.363c0-10.043 5.615-18.798 13.87-23.292-1.063-22.31-6.987-28.514-8.427-29.693a4.812 4.812 0 0 0-2.915-1.087 4.718 4.718 0 0 0-.495-.027h-23.36c-.168 0-.332.01-.495.027a4.811 4.811 0 0 0-2.915 1.087c-1.81 1.481-10.705 10.864-8.134 50.202a4.837 4.837 0 0 0 5.142 4.512 4.81 4.81 0 0 0 2.56-.942l3.293 50.807c.26 3.992 3.608 7.037 7.562 6.981 3.625-21.575 10.45-29.277 13.326-31.63z" fill="#cc0000" opacity="1" data-original="#000000"></path><circle cx="91.393" cy="64.577" r="13.605" fill="#cc0000" opacity="1" data-original="#000000"></circle><path d="M669.272 82.741a4.812 4.812 0 0 0-2.915-1.087 4.717 4.717 0 0 0-.495-.027h-23.36c-.168 0-.332.01-.495.027a4.811 4.811 0 0 0-2.915 1.087c-1.81 1.481-10.705 10.864-8.134 50.202a4.837 4.837 0 0 0 5.142 4.512 4.81 4.81 0 0 0 2.56-.942l3.293 50.807a7.475 7.475 0 0 0 7.944 6.976 7.435 7.435 0 0 0 4.285-1.712 7.435 7.435 0 0 0 4.285 1.712 7.475 7.475 0 0 0 7.943-6.976l3.293-50.807a4.81 4.81 0 0 0 2.881.952 4.837 4.837 0 0 0 4.822-4.522c2.571-39.338-6.324-48.72-8.134-50.202z" fill="#cc0000" opacity="1" data-original="#000000"></path><circle cx="654.182" cy="64.577" r="13.605" fill="#cc0000" opacity="1" data-original="#000000"></circle><path d="M38.777 82.741a4.812 4.812 0 0 0-2.915-1.087 4.716 4.716 0 0 0-.495-.027h-23.36c-.168 0-.333.01-.495.027a4.812 4.812 0 0 0-2.915 1.087C6.787 84.222-2.108 93.605.463 132.943a4.837 4.837 0 0 0 5.142 4.512 4.81 4.81 0 0 0 2.56-.942l3.293 50.807a7.475 7.475 0 0 0 7.943 6.976 7.436 7.436 0 0 0 4.286-1.712 7.434 7.434 0 0 0 4.285 1.712 7.475 7.475 0 0 0 7.943-6.976l3.292-50.807a4.81 4.81 0 0 0 2.882.952 4.837 4.837 0 0 0 4.822-4.522c2.57-39.338-6.325-48.72-8.134-50.202z" fill="#cc0000" opacity="1" data-original="#000000"></path><circle cx="23.687" cy="64.577" r="13.605" fill="#cc0000" opacity="1" data-original="#000000"></circle><path d="M468.193 249.053c-4.27-65.33 10.332-82.634 14.91-86.382a11.883 11.883 0 0 1 7.084-2.695c.358-.034.72-.052 1.088-.052h8.495v-.018c-9.23-4.148-15.678-13.422-15.678-24.18 0-7.082 2.798-13.519 7.339-18.277-1.201-1.836-2.212-2.813-2.745-3.25a6.212 6.212 0 0 0-3.764-1.403 6.086 6.086 0 0 0-.64-.035h-30.165c-.216 0-.429.013-.638.035a6.212 6.212 0 0 0-3.765 1.403c-1.732 1.418-8.487 8.461-10.517 32.694 4.538 4.12 16.497 20.478 12.85 76.27-.034.533-.119 1.052-.227 1.562l1.59 24.518c.344 5.321 4.937 9.353 10.256 9.008a9.599 9.599 0 0 0 5.534-2.21 9.633 9.633 0 0 0 4.018 1.99c-2.841-2.03-4.783-5.261-5.025-8.978z" fill="#cc0000" opacity="1" data-original="#000000"></path><circle cx="469.2" cy="90.744" r="17.568" fill="#cc0000" opacity="1" data-original="#000000"></circle><path d="M237.715 179.287c-.01-.137-.015-.265-.024-.401-2.93-21.29-9.3-27.878-11.064-29.321a7.028 7.028 0 0 0-4.258-1.588 6.885 6.885 0 0 0-.723-.04H187.52c-.244 0-.485.015-.722.04a7.028 7.028 0 0 0-4.259 1.588c-2.4 1.965-13.338 13.453-12.513 58.592.361 4.557.592 9.553.663 15.023a7.061 7.061 0 0 0 7.48 6.312 7.026 7.026 0 0 0 3.74-1.376l4.81 74.22c.39 6.02 5.587 10.581 11.604 10.191a10.861 10.861 0 0 0 6.26-2.5 10.86 10.86 0 0 0 6.26 2.5c6.016.39 11.213-4.17 11.603-10.191l4.81-74.22a7.026 7.026 0 0 0 4.21 1.392c3.692 0 6.8-2.869 7.043-6.606 1.175-17.978.71-31.673-.563-42.072a10.207 10.207 0 0 1-.231-1.543z" fill="#cc0000" opacity="1" data-original="#000000"></path><circle cx="204.583" cy="123.03" r="19.874" fill="#cc0000" opacity="1" data-original="#000000"></circle><path d="M152.498 165.766a7.957 7.957 0 0 0-4.822-1.798 7.797 7.797 0 0 0-.818-.044h-38.635c-.276 0-.549.016-.817.044a7.957 7.957 0 0 0-4.822 1.798c-2.992 2.45-17.704 17.967-13.452 83.026a8 8 0 0 0 8.504 7.462 7.954 7.954 0 0 0 4.236-1.558l5.445 84.026c.441 6.815 6.324 11.979 13.137 11.538a12.295 12.295 0 0 0 7.087-2.831 12.296 12.296 0 0 0 7.087 2.83c6.811.442 12.695-4.722 13.136-11.537l5.445-84.026a7.954 7.954 0 0 0 4.766 1.575 8 8 0 0 0 7.975-7.479c4.252-65.06-10.46-80.576-13.452-83.026z" fill="#cc0000" opacity="1" data-original="#000000"></path><circle cx="127.541" cy="135.725" r="22.5" fill="#cc0000" opacity="1" data-original="#000000"></circle><path d="M400.23 56.096a6.699 6.699 0 0 1 3.985-1.518c.05-.005.102-.004.152-.008l.173-2.662c-2.422-2.59-3.917-6.056-3.917-9.873 0-5.617 3.222-10.487 7.91-12.887-1.305-7.128-3.563-9.46-4.229-10.005a2.9 2.9 0 0 0-1.756-.655 2.841 2.841 0 0 0-.299-.016h-14.076c-.1 0-.2.006-.298.016a2.9 2.9 0 0 0-1.757.655c-1.09.893-6.45 6.546-4.9 30.25a2.915 2.915 0 0 0 4.64 2.152l1.985 30.615a4.499 4.499 0 0 0 3.97 4.174c.657-21.914 6.378-28.568 8.417-30.238z" fill="#cc0000" opacity="1" data-original="#000000"></path><circle cx="395.211" cy="8.198" r="8.198" fill="#cc0000" opacity="1" data-original="#000000"></circle><path d="M397.463 105.959c4.306-4.205 10.187-6.803 16.667-6.803 6.61 0 12.6 2.701 16.927 7.056a4.26 4.26 0 0 0 4.497-3.974c2.264-34.641-5.57-42.903-7.163-44.207a4.237 4.237 0 0 0-2.567-.958 4.145 4.145 0 0 0-.436-.023h-20.571c-.147 0-.292.008-.435.023a4.236 4.236 0 0 0-2.567.958c-1.593 1.304-9.427 9.566-7.163 44.207a4.25 4.25 0 0 0 2.811 3.72zM426.272 143.938l.024-.377c-.216.128-.434.255-.655.377z" fill="#cc0000" opacity="1" data-original="#000000"></path><circle cx="415.103" cy="42.035" r="11.98" transform="rotate(-9.25 415.528 42.343)" fill="#cc0000" opacity="1" data-original="#000000"></circle><path d="M352.997 187.635a29.06 29.06 0 0 1-.674 6.209c.652.24 1.342.405 2.07.452a7.475 7.475 0 0 0 7.944-6.976l3.292-50.807a4.809 4.809 0 0 0 2.882.953 4.837 4.837 0 0 0 4.822-4.523c2.57-39.338-6.325-48.72-8.134-50.202a4.812 4.812 0 0 0-2.915-1.087 4.718 4.718 0 0 0-.495-.027h-23.36c-.168 0-.333.01-.495.027a4.811 4.811 0 0 0-2.915 1.087c-1.81 1.481-10.705 10.864-8.134 50.202a4.837 4.837 0 0 0 5.142 4.512 4.81 4.81 0 0 0 2.56-.942l1.605 24.763c9.916 4.64 16.805 14.707 16.805 26.359z" fill="#cc0000" opacity="1" data-original="#000000"></path><circle cx="350.109" cy="64.577" r="13.605" fill="#cc0000" opacity="1" data-original="#000000"></circle><path d="M588.593 98.51a5.583 5.583 0 0 0-3.382-1.261 5.487 5.487 0 0 0-.575-.031h-27.103c-.194 0-.385.011-.574.03a5.583 5.583 0 0 0-3.382 1.262c-2.099 1.719-12.42 12.604-9.437 58.246a5.612 5.612 0 0 0 5.966 5.234 5.58 5.58 0 0 0 2.971-1.093l3.82 58.947a8.673 8.673 0 0 0 9.216 8.094 8.626 8.626 0 0 0 4.972-1.986 8.626 8.626 0 0 0 4.971 1.986 8.673 8.673 0 0 0 9.216-8.094l3.82-58.947a5.581 5.581 0 0 0 3.343 1.105c2.933 0 5.401-2.278 5.595-5.246 2.983-45.642-7.338-56.527-9.437-58.246z" fill="#cc0000" opacity="1" data-original="#000000"></path><circle cx="571.085" cy="77.436" r="15.784" fill="#cc0000" opacity="1" data-original="#000000"></circle><path d="M291.737 183.635a6.212 6.212 0 0 0 3.221 1.205c.604-6.307 3.232-12.03 7.223-16.516 1.153-41.82-8.838-52.354-11-54.125a6.211 6.211 0 0 0-3.764-1.403 6.086 6.086 0 0 0-.64-.035h-30.165c-.216 0-.429.013-.638.035a6.212 6.212 0 0 0-3.765 1.403c-2.336 1.913-13.823 14.029-10.503 64.827a6.246 6.246 0 0 0 6.64 5.826 6.21 6.21 0 0 0 3.307-1.216l4.251 65.607c.345 5.32 4.938 9.353 10.257 9.008a9.599 9.599 0 0 0 5.534-2.21 9.6 9.6 0 0 0 6.486 2.224c2.459-19.435 7.192-30.14 11.045-35.874z" fill="#cc0000" opacity="1" data-original="#000000"></path><circle cx="271.695" cy="90.744" r="17.568" fill="#cc0000" opacity="1" data-original="#000000"></circle><path d="M436.174 149.565a7.028 7.028 0 0 0-4.258-1.588 6.89 6.89 0 0 0-.723-.04h-34.126a6.88 6.88 0 0 0-.722.04 7.029 7.029 0 0 0-4.259 1.588c-2.643 2.164-15.638 15.87-11.882 73.337a7.066 7.066 0 0 0 7.511 6.59 7.025 7.025 0 0 0 3.741-1.376l4.81 74.22c.39 6.02 5.586 10.581 11.604 10.191a10.862 10.862 0 0 0 6.26-2.5 10.86 10.86 0 0 0 6.26 2.5c6.016.39 11.213-4.17 11.603-10.191l4.81-74.22a7.025 7.025 0 0 0 4.21 1.392c3.692 0 6.8-2.869 7.043-6.606 3.756-57.467-9.239-71.173-11.882-73.337z" fill="#cc0000" opacity="1" data-original="#000000"></path><circle cx="414.13" cy="123.03" r="19.874" fill="#cc0000" opacity="1" data-original="#000000"></circle><path d="M535.55 165.766a7.957 7.957 0 0 0-4.822-1.798 7.797 7.797 0 0 0-.819-.044h-38.634c-.277 0-.55.016-.818.044a7.957 7.957 0 0 0-4.821 1.798c-2.992 2.45-17.704 17.967-13.452 83.026a8 8 0 0 0 8.504 7.462 7.954 7.954 0 0 0 4.235-1.558l5.445 84.026c.442 6.815 6.325 11.979 13.137 11.538a12.295 12.295 0 0 0 7.087-2.831 12.296 12.296 0 0 0 7.087 2.83c6.811.442 12.695-4.722 13.137-11.537l5.445-84.026a7.954 7.954 0 0 0 4.766 1.575 8 8 0 0 0 7.974-7.479c4.252-65.06-10.46-80.576-13.452-83.026z" fill="#cc0000" opacity="1" data-original="#000000"></path><circle cx="510.592" cy="135.725" r="22.5" fill="#cc0000" opacity="1" data-original="#000000"></circle><path d="M301.808 218.635a8.735 8.735 0 0 0-5.292 1.974c-3.285 2.689-19.433 19.721-14.766 91.134a8.781 8.781 0 0 0 9.334 8.19 8.73 8.73 0 0 0 4.65-1.71l5.976 92.233c.485 7.48 6.942 13.149 14.42 12.664a13.497 13.497 0 0 0 7.78-3.107 13.496 13.496 0 0 0 7.778 3.107c7.477.485 13.935-5.183 14.42-12.664l5.977-92.233a8.73 8.73 0 0 0 5.231 1.73 8.781 8.781 0 0 0 8.753-8.21c4.667-71.413-11.481-88.445-14.766-91.134a8.736 8.736 0 0 0-5.292-1.974 8.573 8.573 0 0 0-.898-.048h-42.408c-.303 0-.602.017-.897.048z" fill="#cc0000" opacity="1" data-original="#000000"></path><circle cx="323.909" cy="187.635" r="24.697" transform="rotate(-45 323.899 187.708)" fill="#cc0000" opacity="1" data-original="#000000"></circle></g></svg>