<svg xmlns="http://www.w3.org/2000/svg" version="1.1" xmlns:xlink="http://www.w3.org/1999/xlink" width="512" height="512" x="0" y="0" viewBox="0 0 512 512" style="enable-background:new 0 0 512 512" xml:space="preserve" class=""><g><path d="M359.9 186.75a23.06 23.06 0 1 0 28.59-22.31V118.9a5.43 5.43 0 0 0-.68-2.53 6.1 6.1 0 0 0-.4-.59 5.36 5.36 0 0 0-1.42-1.39c-.13-.09-.19-.25-.33-.33L255.05 41.27a5.5 5.5 0 0 0-5.39 0l-130.61 72.79a5.54 5.54 0 0 0 0 9.67l64.66 36.05v36.09a147.17 147.17 0 0 0-45.24 37.45s-.1 0-.14.06 0 .19-.11.27A145.6 145.6 0 0 0 106 325.06c0 80.71 65.66 146.37 146.37 146.37a146.29 146.29 0 0 0 122.26-66.13 5.54 5.54 0 0 0 1.12-1.83 145.7 145.7 0 0 0 17.6-39.66 5.34 5.34 0 0 0 .64-2.45 145.33 145.33 0 0 0-73-165.47v-36.1l56.43-31.45v36.12a23.06 23.06 0 0 0-17.52 22.29zM252.35 460.37c-74.6 0-135.3-60.7-135.3-135.31a134.45 134.45 0 0 1 25.88-79.26l32.47 32.47v23.89l-13.11 13.11a5.53 5.53 0 0 0 0 7.82l20.78 20.78v31.8a5.56 5.56 0 0 0 1.62 3.91l16.72 16.72a5.53 5.53 0 0 0 7.82 0l26.71-26.71 19.34 19.34v21.45L233 432.69a5.54 5.54 0 0 0 0 7.83l19.83 19.82c-.18 0-.33.03-.48.03zm115-64.33h-23v-24.23a5.52 5.52 0 0 0-1.62-3.91l-52.28-52.29v-30.7h42.95l25.54 25.54v50.91a5.54 5.54 0 0 0 5.53 5.53H381A134.47 134.47 0 0 1 367.33 396zm20.33-71a135 135 0 0 1-3.68 30.78h-14v-47.67a5.53 5.53 0 0 0-1.63-3.91l-28.77-28.78a5.58 5.58 0 0 0-3.92-1.62h-50.75a5.54 5.54 0 0 0-5.53 5.54v38.52a5.54 5.54 0 0 0 1.62 3.92l52.28 52.28v27.47a5.53 5.53 0 0 0 5.54 5.53h20.86a135.16 135.16 0 0 1-92.34 52.38c-.1-.11-.06-.28-.17-.39L244.7 436.6l20-20a5.52 5.52 0 0 0 1.62-3.91v-26a5.52 5.52 0 0 0-1.62-3.91l-24.87-24.87a5.52 5.52 0 0 0-7.83 0l-26.7 26.7-11.18-11.18v-31.8a5.5 5.5 0 0 0-1.62-3.91L174 319.18l10.81-10.82a5.51 5.51 0 0 0 1.63-3.91V276a5.54 5.54 0 0 0-1.63-3.91l-35-35a136.06 136.06 0 0 1 40.39-32c26.74 4.07 59.53 18.78 59.87 18.93a5.45 5.45 0 0 0 4.56 0c.34-.15 33.13-14.86 59.88-18.93a135.36 135.36 0 0 1 73.15 119.97zM194.77 194.48v-65.92c4.46-3.69 20.7-14.54 57.58-14.54s53.13 10.87 57.59 14.55v65.91c-23.66 4.15-49.77 15-57.59 18.37-7.82-3.39-33.93-14.22-57.58-18.37zM321 147.1v-20.92a5.57 5.57 0 0 0-1.32-3.6c-.69-.8-17.35-19.63-67.33-19.63s-66.63 18.83-67.35 19.63a5.51 5.51 0 0 0-1.32 3.6v20.93L133.1 118.9l119.25-66.46L371.6 118.9zm62 27.66a12 12 0 1 1-12 12 12 12 0 0 1 12-12z" fill="#cc0000" opacity="1" data-original="#000000"></path></g></svg>