<svg xmlns="http://www.w3.org/2000/svg" version="1.1" xmlns:xlink="http://www.w3.org/1999/xlink" width="512" height="512" x="0" y="0" viewBox="0 0 64 64" style="enable-background:new 0 0 512 512" xml:space="preserve" class=""><g><g data-name="Get Treathment"><path d="M56.8 33.76h-1.69V16.55a1 1 0 0 0-1-1H52V13a1 1 0 0 0-1-1h-1.46V4a1 1 0 0 0-2 0v8h-1.45a1 1 0 0 0-1 1v2.55H43a1 1 0 0 0-1 1v17.21h-4.64v-9.19a5.12 5.12 0 0 0-3.28-4.75l-1.86-.7a3.65 3.65 0 0 1-2.35-3.4v-2.84h.91a1 1 0 0 0 1-1V4a1 1 0 0 0-1-1H9.58a1 1 0 0 0-1 1v7.88a1 1 0 0 0 1 1h.91v2.84a3.65 3.65 0 0 1-2.35 3.4l-1.86.7A5.12 5.12 0 0 0 3 24.57v30.72A5.71 5.71 0 0 0 8.71 61H56.8a4.2 4.2 0 0 0 4.2-4.2V38a4.21 4.21 0 0 0-4.2-4.24ZM10.58 5h19.2v5.88h-19.2Zm36.51 9H50v1.55h-2.91ZM44 17.55h9.13v3.6H50.7a1 1 0 0 0 0 2h2.41v2.61h-4.48a1 1 0 0 0 0 2h4.48v2.61H50.7a1 1 0 0 0 0 2h2.41v1.39H44ZM16.2 33.76A4.21 4.21 0 0 0 12 38v8.42H5V27.69h30.36v6.07ZM7 21.7l1.85-.7a5.65 5.65 0 0 0 3.64-5.27v-2.85h15.38v2.84A5.65 5.65 0 0 0 31.51 21l1.86.71a3.08 3.08 0 0 1 2 2.87v1.12H5v-1.13a3.08 3.08 0 0 1 2-2.87ZM5 55.29v-6.91h7v8.42a4.13 4.13 0 0 0 .64 2.2H8.71A3.71 3.71 0 0 1 5 55.29Zm54 1.51a2.21 2.21 0 0 1-2.2 2.2H16.2a2.21 2.21 0 0 1-2.2-2.2V38a2.21 2.21 0 0 1 2.2-2.2h40.6A2.21 2.21 0 0 1 59 38Z" fill="#cc0000" opacity="1" data-original="#000000" class=""></path><path d="M20.07 38.3a4.15 4.15 0 1 0 4.15 4.15 4.15 4.15 0 0 0-4.15-4.15Zm0 6.3a2.15 2.15 0 1 1 2.15-2.15 2.16 2.16 0 0 1-2.15 2.15ZM20.07 48.17a4.15 4.15 0 1 0 4.15 4.14 4.15 4.15 0 0 0-4.15-4.14Zm0 6.29a2.15 2.15 0 1 1 2.15-2.15 2.15 2.15 0 0 1-2.15 2.15ZM31 38.3a4.15 4.15 0 1 0 4.15 4.15A4.15 4.15 0 0 0 31 38.3Zm0 6.3a2.15 2.15 0 1 1 2.15-2.15A2.15 2.15 0 0 1 31 44.6ZM31 48.17a4.15 4.15 0 1 0 4.15 4.14A4.15 4.15 0 0 0 31 48.17Zm0 6.29a2.15 2.15 0 1 1 2.15-2.15A2.14 2.14 0 0 1 31 54.46ZM42 38.3a4.15 4.15 0 1 0 4.14 4.15A4.15 4.15 0 0 0 42 38.3Zm0 6.3a2.15 2.15 0 1 1 2.14-2.15A2.15 2.15 0 0 1 42 44.6ZM42 48.17a4.15 4.15 0 1 0 4.14 4.14A4.15 4.15 0 0 0 42 48.17Zm0 6.29a2.15 2.15 0 1 1 2.14-2.15A2.15 2.15 0 0 1 42 54.46ZM52.93 38.3a4.15 4.15 0 1 0 4.15 4.15 4.15 4.15 0 0 0-4.15-4.15Zm0 6.3a2.15 2.15 0 1 1 2.15-2.15 2.15 2.15 0 0 1-2.15 2.15ZM52.93 48.17a4.15 4.15 0 1 0 4.15 4.14 4.15 4.15 0 0 0-4.15-4.14Zm0 6.29a2.15 2.15 0 1 1 2.15-2.15 2.15 2.15 0 0 1-2.15 2.15Z" fill="#cc0000" opacity="1" data-original="#000000" class=""></path></g></g></svg>