<svg xmlns="http://www.w3.org/2000/svg" version="1.1" xmlns:xlink="http://www.w3.org/1999/xlink" width="512" height="512" x="0" y="0" viewBox="0 0 512 512" style="enable-background:new 0 0 512 512" xml:space="preserve" class=""><g><path d="M495.963 184.135c-.47-7.623-5.179-14.046-12.289-16.763a140.421 140.421 0 0 0-115.975 7.146l-46.065 24.453-33.451-11.734a36.526 36.526 0 0 0 10.787-20.392l2.092-12.549a22.546 22.546 0 0 0-5.045-18.31A22.54 22.54 0 0 0 280 128.033v-22.737l18.265-21.918c4.542-5.45 6.65-12.34 5.938-19.399s-4.156-13.388-9.696-17.82a120.563 120.563 0 0 0-62.089-25.718l-7.085-.787a302.248 302.248 0 0 0-66.663 0l-7.087.787a120.547 120.547 0 0 0-62.088 25.718c-5.54 4.432-8.983 10.761-9.696 17.82s1.396 13.949 5.938 19.399L104 105.296v22.737a22.542 22.542 0 0 0-16.017 7.953 22.547 22.547 0 0 0-5.045 18.311l2.092 12.548a36.55 36.55 0 0 0 27.195 29.458l2.532.633a100.081 100.081 0 0 0 29.242 50.038v28.384l-4.031-2.304a7.998 7.998 0 0 0-7.547-.209l-17.337 8.669L75.24 261.17a8 8 0 0 0-7.389.059l-35.33 18.754a8 8 0 0 0-1.417 13.172l20.138 17.041C29.798 322.467 16 345.623 16 370.805V488a8 8 0 0 0 8 8h336a8 8 0 0 0 8-8V370.805c0-19.562-8.333-37.896-22.101-50.861l13.245-50.311 126.583-67.194c6.788-3.604 10.71-10.617 10.236-18.304zm-62.411-10.013c1.022 0 2.045.015 3.067.04l-49.13 26.08c-.399.212-.767.169-1.005.096s-.566-.244-.778-.642l-6.85-12.905a124.41 124.41 0 0 1 54.696-12.669zM302.401 209.18l-49.214 26.125-1.631-1.09a100.024 100.024 0 0 0 17.548-36.715zm-18.592-62.852c.736.87 1.906 2.719 1.47 5.337l-2.092 12.549a20.543 20.543 0 0 1-11.374 15.141c.111-1.932.187-3.871.187-5.825V144h6.784c2.655 0 4.287 1.458 5.025 2.328zm-182.997 17.886-2.091-12.548c-.437-2.619.733-4.468 1.47-5.338S102.56 144 105.215 144H112v29.531c0 1.954.076 3.893.187 5.825a20.553 20.553 0 0 1-11.375-15.142zm-2.785-91.078c-1.768-2.121-2.588-4.802-2.311-7.549s1.617-5.209 3.773-6.934a104.578 104.578 0 0 1 53.858-22.31l7.087-.787a286.196 286.196 0 0 1 63.13 0l7.085.787a104.576 104.576 0 0 1 53.859 22.309c2.156 1.725 3.496 4.188 3.773 6.935s-.543 5.428-2.31 7.548L266.92 96H117.08zM120 112h144v16H120zm119.022 32c-11.155 10.059-25.839 16-41.619 16h-10.807a62.072 62.072 0 0 1-41.639-16zM128 173.531v-23.96C142.519 166.025 163.645 176 186.597 176h10.807c22.952 0 44.079-9.972 58.597-26.427v23.957a84.115 84.115 0 0 1-57.587 79.899 20.41 20.41 0 0 1-12.825 0A84.112 84.112 0 0 1 128 173.531zm77.437 169.719L192 356.687l-13.437-13.437L192 325.334zM160 284.501v-25.429a100.51 100.51 0 0 0 20.528 9.537c3.698 1.233 7.585 1.849 11.472 1.849s7.773-.616 11.473-1.849A100.499 100.499 0 0 0 224 259.073v25.428l-32 18.286zm43.837 29.949 44.415-25.379 16.593 8.296L217.6 332.8zm-68.089-25.38 44.415 25.379L166.4 332.8l-47.245-35.433zm-85.288-.494 21.215-11.261 26.3 13.428a7.974 7.974 0 0 0-.921 1.319l-29.432 11.037zm43.153 42.531-13.341 8.836-13-19.626 15.376-5.766zm-40.404-3.048 13.723 20.719-13.339 8.835-11.74-17.727a54.153 54.153 0 0 1 11.356-11.827zM96 480v-64a8 8 0 0 0-16 0v64H32V370.805c0-4.792.652-9.487 1.877-13.985l10.793 16.298a8.004 8.004 0 0 0 6.67 3.583c1.56 0 3.098-.456 4.417-1.33l53.36-35.34a8 8 0 0 0 2.253-11.087l-13.349-20.157 6.463-2.423 58.26 43.695 10.403 10.403L153.222 480zm73.443 0 17.619-105.712a7.974 7.974 0 0 0 9.876 0L214.557 480zm180.68-123.18A53.202 53.202 0 0 1 352 370.805V480h-48v-64a8 8 0 0 0-16 0v64h-57.222l-19.924-119.54 10.403-10.403 58.26-43.695 6.463 2.423-13.349 20.157a8 8 0 0 0 2.253 11.087l53.36 35.34a7.996 7.996 0 0 0 6.01 1.17 8 8 0 0 0 5.077-3.423zm-59.736-25.713 10.965-16.557 15.376 5.766-13 19.626zm26.681 17.671 13.723-20.719a54.153 54.153 0 0 1 11.356 11.827l-11.74 17.726zm161.157-160.471-113.538 60.269 3.664-13.916a8 8 0 0 0-15.472-4.073l-20.851 79.201a68.906 68.906 0 0 0-9.298-4.308l-31.959-11.984.116-19.564a8 8 0 0 0-7.952-8.047h-.049a8 8 0 0 0-7.999 7.953l-.063 10.632-23.245-11.623a8.001 8.001 0 0 0-7.547.209L240 275.358V260.42l124.69-66.19 6.883 12.967a17.204 17.204 0 0 0 10.223 8.438c1.677.514 3.391.769 5.097.769 2.793 0 5.562-.684 8.099-2.03l68.793-36.518a124.64 124.64 0 0 1 14.179 4.462c1.655.632 1.982 2.026 2.03 2.801.039.655-.053 2.276-1.769 3.188z" fill="#cc0000" opacity="1" data-original="#000000" class=""></path><path d="M170.885 231.267c5.92 4.923 13.518 7.385 21.115 7.385s15.195-2.462 21.115-7.385a8 8 0 0 0-10.231-12.302c-5.9 4.906-15.869 4.906-21.77 0a8 8 0 1 0-10.229 12.302z" fill="#cc0000" opacity="1" data-original="#000000" class=""></path></g></svg>