<svg xmlns="http://www.w3.org/2000/svg" version="1.1" xmlns:xlink="http://www.w3.org/1999/xlink" width="512" height="512" x="0" y="0" viewBox="0 0 682.667 682.667" style="enable-background:new 0 0 512 512" xml:space="preserve" class=""><g><defs stroke-width="17" style="stroke-width: 17;"><clipPath id="b" clipPathUnits="userSpaceOnUse" stroke-width="17" style="stroke-width: 17;"><path d="M0 512h512V0H0Z" fill="#cc0000" opacity="1" data-original="#000000" stroke-width="17" style="stroke-width: 17;"></path></clipPath></defs><mask id="a" stroke-width="17" style="stroke-width: 17;"><rect width="100%" height="100%" fill="#ffffff" opacity="1" data-original="#ffffff" stroke-width="17" style="stroke-width: 17;"></rect><path d="M0 0c8.262 0 15 6.738 15 15S8.262 30 0 30s-15-6.738-15-15S-8.262 0 0 0" style="fill-opacity: 1; fill-rule: evenodd; stroke: none; stroke-width: 17;" transform="matrix(1.33333 0 0 -1.33333 373.728 228.667)" fill="#ffffff" data-original="#ffffff" stroke-width="17"></path></mask><g mask="url(#a)" stroke-width="17" style="stroke-width: 17;"><g clip-path="url(#b)" transform="matrix(1.33333 0 0 -1.33333 0 682.667)" stroke-width="17" style="stroke-width: 17;"><path d="M0 0c-5.2 5.384-8.14 11.505-8.14 17.997 0 15.232 16.18 28.421 39.761 34.83 13.549 3.682 23.786 12.092 30.026 24.669L64 82.238l2.353-4.742c6.24-12.577 16.477-20.987 30.026-24.669 23.581-6.409 39.761-19.598 39.761-34.83 0-8.059-4.53-15.545-12.287-21.759" style="stroke-width: 17; stroke-linecap: round; stroke-linejoin: round; stroke-miterlimit: 22.926; stroke-dasharray: none; stroke-opacity: 1;" transform="translate(192 414.762)" fill="none" stroke="#cc0000" stroke-width="17" stroke-linecap="round" stroke-linejoin="round" stroke-miterlimit="22.926" stroke-dasharray="none" stroke-opacity="" data-original="#000000" opacity="1" class=""></path><path d="M0 0c-5.503-5.328-8.639-11.466-8.639-18 0-14.463 15.364-26.987 37.754-33.072 12.865-3.496 22.587-11.483 28.513-23.425L59.861-79l2.234 4.503c5.926 11.942 15.647 19.929 28.512 23.425 22.391 6.085 37.754 18.609 37.754 33.072 0 7.799-4.466 15.034-12.094 21" style="stroke-width: 17; stroke-linecap: round; stroke-linejoin: round; stroke-miterlimit: 22.926; stroke-dasharray: none; stroke-opacity: 1;" transform="translate(196.139 94)" fill="none" stroke="#cc0000" stroke-width="17" stroke-linecap="round" stroke-linejoin="round" stroke-miterlimit="22.926" stroke-dasharray="none" stroke-opacity="" data-original="#000000" opacity="1" class=""></path><path d="M0 0c6.383 9.687 14.546 15.5 23.442 15.5C37.905 15.5 50.43.137 56.515-22.254c3.496-12.865 11.482-22.587 23.424-28.513L84.442-53l-4.503-2.233c-11.942-5.926-19.928-15.648-23.424-28.513-6.085-22.391-18.61-37.754-33.073-37.754-10.061 0-19.185 7.436-25.855 19.5" style="stroke-width: 17; stroke-linecap: round; stroke-linejoin: round; stroke-miterlimit: 22.926; stroke-dasharray: none; stroke-opacity: 1;" transform="translate(412.558 309)" fill="none" stroke="#cc0000" stroke-width="17" stroke-linecap="round" stroke-linejoin="round" stroke-miterlimit="22.926" stroke-dasharray="none" stroke-opacity="" data-original="#000000" opacity="1" class=""></path><path d="M0 0c-5.703 6.651-12.456 10.5-19.694 10.5-14.463 0-26.988-15.363-33.073-37.754-3.496-12.865-11.482-22.587-23.424-28.513L-80.694-58l4.503-2.233c11.942-5.926 19.928-15.648 23.424-28.513 6.085-22.391 18.61-37.754 33.073-37.754 7.238 0 13.991 3.849 19.694 10.5" style="stroke-width: 17; stroke-linecap: round; stroke-linejoin: round; stroke-miterlimit: 22.926; stroke-dasharray: none; stroke-opacity: 1;" transform="translate(95.694 314)" fill="none" stroke="#cc0000" stroke-width="17" stroke-linecap="round" stroke-linejoin="round" stroke-miterlimit="22.926" stroke-dasharray="none" stroke-opacity="" data-original="#000000" opacity="1" class=""></path><path d="M0 0c10.595 1.803 19.764-.005 25.716-5.958 10.226-10.227 8.22-29.945-3.311-50.081-6.625-11.569-7.851-24.091-3.596-36.726l1.603-4.762-4.763 1.603c-12.634 4.255-25.156 3.028-36.725-3.597-20.136-11.53-39.855-13.538-50.081-3.31-4.597 4.596-6.722 11.109-6.622 18.716" style="stroke-width: 17; stroke-linecap: round; stroke-linejoin: round; stroke-miterlimit: 22.926; stroke-dasharray: none; stroke-opacity: 1;" transform="translate(406 183.115)" fill="none" stroke="#cc0000" stroke-width="17" stroke-linecap="round" stroke-linejoin="round" stroke-miterlimit="22.926" stroke-dasharray="none" stroke-opacity="" data-original="#000000" opacity="1" class=""></path><path d="M0 0c-2.092 11.018-.361 20.577 5.778 26.716 10.227 10.226 29.946 8.22 50.081-3.311 11.57-6.625 24.091-7.851 36.726-3.596l4.763 1.603-1.604-4.763c-4.255-12.634-3.028-25.156 3.597-36.725 11.53-20.136 13.537-39.855 3.31-50.082-6.689-6.69-17.442-8.145-29.715-5.122" style="stroke-width: 17; stroke-linecap: round; stroke-linejoin: round; stroke-miterlimit: 22.926; stroke-dasharray: none; stroke-opacity: 1;" transform="translate(329.065 405)" fill="none" stroke="#cc0000" stroke-width="17" stroke-linecap="round" stroke-linejoin="round" stroke-miterlimit="22.926" stroke-dasharray="none" stroke-opacity="" data-original="#000000" opacity="1" class=""></path><path d="M0 0c1.257 9.746-.683 18.142-6.258 23.716-10.226 10.226-29.945 8.22-50.081-3.311-11.569-6.625-24.091-7.851-36.725-3.596l-4.763 1.603 1.603-4.763c4.255-12.634 3.029-25.156-3.596-36.725-11.531-20.136-13.537-39.855-3.311-50.082 4.994-4.993 12.251-7.071 20.716-6.545" style="stroke-width: 17; stroke-linecap: round; stroke-linejoin: round; stroke-miterlimit: 22.926; stroke-dasharray: none; stroke-opacity: 1;" transform="translate(183.415 408)" fill="none" stroke="#cc0000" stroke-width="17" stroke-linecap="round" stroke-linejoin="round" stroke-miterlimit="22.926" stroke-dasharray="none" stroke-opacity="" data-original="#000000" opacity="1" class=""></path><path d="M0 0c-7.606.1-14.12-2.025-18.716-6.622-10.226-10.227-8.22-29.945 3.311-50.081 6.625-11.569 7.851-24.091 3.596-36.726l-1.603-4.762 4.763 1.603c12.634 4.255 25.156 3.028 36.725-3.597 20.136-11.53 39.855-13.538 50.081-3.31 5.384 5.383 7.377 13.396 6.376 22.716" style="stroke-width: 17; stroke-linecap: round; stroke-linejoin: round; stroke-miterlimit: 22.926; stroke-dasharray: none; stroke-opacity: 1;" transform="translate(99 183.78)" fill="none" stroke="#cc0000" stroke-width="17" stroke-linecap="round" stroke-linejoin="round" stroke-miterlimit="22.926" stroke-dasharray="none" stroke-opacity="" data-original="#000000" opacity="1" class=""></path><path d="M0 0c11.247 22.275 17.589 47.421 17.589 74 0 90.854-74.101 164.955-164.955 164.955-90.854 0-164.955-74.101-164.955-164.955 0-90.854 74.101-164.955 164.955-164.955C-83.091-90.955-27.2-53.868 0 0" style="stroke-width: 17; stroke-linecap: round; stroke-linejoin: round; stroke-miterlimit: 22.926; stroke-dasharray: none; stroke-opacity: 1;" transform="translate(399.857 182)" fill="none" stroke="#cc0000" stroke-width="17" stroke-linecap="round" stroke-linejoin="round" stroke-miterlimit="22.926" stroke-dasharray="none" stroke-opacity="" data-original="#000000" opacity="1" class=""></path><path d="M0 0c8.311 10.302 17.94 18.458 32.047 19.33 12.961.802 24.457-6.676 28.978-18.849C66.354-13.86 62.596-25.917 36-39c35.228-2.149 42.511-19.095 39.202-43.365-1.361-9.986-7.574-17.866-16.967-21.519-27.788-10.808-66.381 8.878-76.615 52.406" style="stroke-width: 17; stroke-linecap: round; stroke-linejoin: round; stroke-miterlimit: 22.926; stroke-dasharray: none; stroke-opacity: 1;" transform="translate(169.296 288.5)" fill="none" stroke="#cc0000" stroke-width="17" stroke-linecap="round" stroke-linejoin="round" stroke-miterlimit="22.926" stroke-dasharray="none" stroke-opacity="" data-original="#000000" opacity="1" class=""></path><path d="M0 0c31.307-5.177 36.413 14.855 48.514 31.568 6.492 8.966 16.074 13.783 27.142 13.645 11.068-.138 20.528-5.19 26.794-14.313 36.238-52.738-18.197-93.975-52.538-72.054" style="stroke-width: 17; stroke-linecap: round; stroke-linejoin: round; stroke-miterlimit: 22.926; stroke-dasharray: none; stroke-opacity: 1;" transform="translate(239.653 235.709)" fill="none" stroke="#cc0000" stroke-width="17" stroke-linecap="round" stroke-linejoin="round" stroke-miterlimit="22.926" stroke-dasharray="none" stroke-opacity="" data-original="#000000" opacity="1" class=""></path><path d="M0 0c-5.835-10.016-17.794-16.347-30.881-16.347-12.329 0-23.721 5.626-29.883 14.758" style="stroke-width: 17; stroke-linecap: round; stroke-linejoin: round; stroke-miterlimit: 22.926; stroke-dasharray: none; stroke-opacity: 1;" transform="translate(310.916 332.022)" fill="none" stroke="#cc0000" stroke-width="17" stroke-linecap="round" stroke-linejoin="round" stroke-miterlimit="22.926" stroke-dasharray="none" stroke-opacity="" data-original="#000000" opacity="1" class=""></path><path d="M0 0c8.262 0 15 6.738 15 15S8.262 30 0 30s-15-6.738-15-15S-8.262 0 0 0" style="fill-opacity: 1; fill-rule: evenodd; stroke: none; stroke-width: 17;" transform="translate(280.296 340.5)" fill="#cc0000" data-original="#000000" opacity="1" stroke-width="17"></path></g></g></g></svg>