<svg xmlns="http://www.w3.org/2000/svg" version="1.1" xmlns:xlink="http://www.w3.org/1999/xlink" width="512" height="512" x="0" y="0" viewBox="0 0 64 64" style="enable-background:new 0 0 512 512" xml:space="preserve"><g><g data-name="Layer 5"><path d="M44.562 21.619a.992.992 0 0 0-.748-.165L37.906 22.5a1 1 0 0 0-.81 1.158l1.041 5.909a1 1 0 0 0 .984.827.931.931 0 0 0 .174-.016l5.905-1.046a1 1 0 0 0 .811-1.158l-1.042-5.909a1 1 0 0 0-.407-.646Zm-4.629 6.612-.7-3.939 3.939-.7.7 3.939ZM53.663 19.718l-5.909 1.042a1 1 0 0 0-.811 1.158l1.042 5.908a1 1 0 0 0 .984.826 1.052 1.052 0 0 0 .175-.015l5.909-1.037a1 1 0 0 0 .645-.411.991.991 0 0 0 .165-.747l-1.042-5.909a1 1 0 0 0-1.158-.815Zm-3.882 6.776-.7-3.938 3.939-.7.7 3.939ZM46.3 31.467a.987.987 0 0 0-.747-.165l-5.908 1.042a1 1 0 0 0-.811 1.158l1.042 5.909a1 1 0 0 0 .984.826 1.014 1.014 0 0 0 .174-.015l5.906-1.042a1 1 0 0 0 .811-1.159l-1.042-5.909a1 1 0 0 0-.409-.645Zm-4.63 6.612-.7-3.939 3.938-.7.7 3.94ZM49.49 30.607a1 1 0 0 0-.81 1.159l1.042 5.909a1 1 0 0 0 .983.826.95.95 0 0 0 .175-.016l5.909-1.042a1 1 0 0 0 .811-1.158l-1.042-5.909a1 1 0 0 0-1.159-.811Zm2.028 5.736-.7-3.94 3.94-.7.7 3.939ZM8.05 32.867a1 1 0 0 0-1.158.811l-.7 3.939a1 1 0 0 0 .811 1.158l11.818 2.084a.931.931 0 0 0 .174.016 1 1 0 0 0 .984-.826l.7-3.94a1 1 0 0 0-.811-1.158Zm10.137 5.85-9.848-1.738.348-1.969 9.848 1.737ZM21.372 32.17l.694-3.94a1 1 0 0 0-.81-1.158L9.438 24.989a1 1 0 0 0-1.158.811l-.694 3.938A1 1 0 0 0 8.4 30.9l11.814 2.08a.923.923 0 0 0 .174.016 1 1 0 0 0 .984-.826Zm-1.8-1.332L9.729 29.1l.347-1.969 9.848 1.736ZM22.762 24.292l.694-3.939a1 1 0 0 0-.81-1.159L10.828 17.11a1 1 0 0 0-1.158.811l-.7 3.939a1 1 0 0 0 .81 1.159L21.6 25.1a1 1 0 0 0 1.158-.811Zm-1.8-1.332-9.849-1.737.348-1.97 9.848 1.737Z" fill="#cc0000" opacity="1" data-original="#000000"></path><path d="M63.666 44.254a.978.978 0 0 0-.641-.234l-6.348-36A3.006 3.006 0 0 0 53.2 5.583l-5.908 1.042a1 1 0 0 0-.718.532l-2.26 4.46a1 1 0 0 0-.092.626l.7 3.94a1 1 0 0 0 1.969-.348l-.637-3.611 1.883-3.716 5.417-.956a1 1 0 0 1 1.159.811l6.317 35.856-6.969.8-.691-3.922a1 1 0 0 0-.411-.646.99.99 0 0 0-.747-.165L46.3 41.324a1 1 0 0 0-.811 1.158l.608 3.443-6.969.8-4.59-26.055 4.641-3.441 2.854-.094a1 1 0 0 0-.031-2h-.033l-3.167.1a.983.983 0 0 0-.564.2l-5.387 4a1 1 0 0 0-.389.976l4.679 26.54-9.254 1.058A1 1 0 0 0 27 49v3a1 1 0 0 0 .293.707l.707.707v2.172l-1 1V55a1 1 0 0 0-.293-.707L24 51.586V50a1 1 0 0 0-.293-.707l-1-1a.906.906 0 0 0-.1-.072l4.943-28.032a1 1 0 0 0-1.969-.347l-4.945 28.024-4.994-.476.692-3.923a1 1 0 0 0-.811-1.158l-5.909-1.042a1 1 0 0 0-1.158.81l-.8 4.553-4.995-.476L9.436 7.726a1.012 1.012 0 0 1 1.164-.812l4.315.762 1.1 3.694a1.023 1.023 0 0 0 .139.288l3.246 4.634a1 1 0 1 0 1.638-1.146l-3.152-4.5-1.235-4.133a1 1 0 0 0-.785-.7l-4.925-.869a3.008 3.008 0 0 0-3.474 2.434L.643 46.076a.985.985 0 0 0-.316.184A1 1 0 0 0 0 47v16a1 1 0 0 0 1 1h62a1 1 0 0 0 1-1V45a1 1 0 0 0-.334-.746Zm-12.092-1.829.5 2.818-3.982.455-.454-2.578Zm-41.322.984 3.939.7-.545 3.1-4-.38ZM62 50h-4a1 1 0 0 0-.707.293L55.586 52H53a1 1 0 0 0 0 2h3a1 1 0 0 0 .707-.293L58.414 52H62v10H49v-1.586l1.707-1.707a1 1 0 0 0-1.414-1.414L48 58.586l-1-1V55a1 1 0 0 0-2 0v2h-1a1 1 0 0 0 0 2h1.586L47 60.414V62H2V48.1l6.287.6.006.009L11.586 52l-7.293 7.293a1 1 0 1 0 1.414 1.414l1.622-1.622 4.475.895A.948.948 0 0 0 12 60a1 1 0 0 0 .2-1.98l-3.168-.634 4.679-4.679a1 1 0 0 0 0-1.414L11.41 49l10.137.965.453.453V52a1 1 0 0 0 .293.707L25 55.414V59a1 1 0 0 0 1.707.707l3-3A1 1 0 0 0 30 56v-3a1 1 0 0 0-.293-.707L29 51.586v-1.693l33-3.772Z" fill="#cc0000" opacity="1" data-original="#000000"></path><path d="M22.032 15.155a1.007 1.007 0 0 0 .466.608l6.063 3.5a.991.991 0 0 0 .5.133 1 1 0 0 0 .867-.5l3-5.2a3 3 0 0 0-1.1-4.1L22.3 4.1a1 1 0 0 0-1.5.806l-.268 4.464a.973.973 0 0 0 .032.318Zm.668-8.511 8.126 4.691a1 1 0 0 1 .365 1.365l-2.5 4.33-4.838-2.793-1.311-4.907ZM16.293 3.707a1 1 0 0 0 1.414-1.414l-1-1a1 1 0 0 0-1.414 1.414ZM23 3a1 1 0 0 0 .707-.293l1-1A1 1 0 0 0 23.293.293l-1 1A1 1 0 0 0 23 3ZM41.293 10.707a1 1 0 0 0 1.414-1.414l-1-1a1 1 0 0 0-1.414 1.414ZM36 14h1a1 1 0 0 0 0-2h-1a1 1 0 0 0 0 2ZM31.293 34.707a1 1 0 0 0 1.414-1.414l-1-1a1 1 0 0 0-1.414 1.414ZM30.707 27.293a1 1 0 0 0-1.414 0l-1 1a1 1 0 1 0 1.414 1.414l1-1a1 1 0 0 0 0-1.414Z" fill="#cc0000" opacity="1" data-original="#000000"></path></g></g></svg>