<?xml version="1.0" encoding="UTF-8"?>
<!DOCTYPE svg PUBLIC "-//W3C//DTD SVG 1.1//EN" "http://www.w3.org/Graphics/SVG/1.1/DTD/svg11.dtd">
<!-- Creator: CorelDRAW -->
<svg xmlns="http://www.w3.org/2000/svg" xml:space="preserve" width="100px" height="100px" version="1.1" style="shape-rendering:geometricPrecision; text-rendering:geometricPrecision; image-rendering:optimizeQuality; fill-rule:evenodd; clip-rule:evenodd"
viewBox="0 0 1.8 1.8"
 xmlns:xlink="http://www.w3.org/1999/xlink"
 xmlns:xodm="http://www.corel.com/coreldraw/odm/2003">
 <defs>
  <style type="text/css">
   <![CDATA[
    .fil0 {fill:#CC0000;fill-rule:nonzero}
   ]]>
  </style>
 </defs>
 <g id="Layer_x0020_1">
  <metadata id="CorelCorpID_0Corel-Layer"/>
  <g id="_1731982712352">
   <g>
    <path class="fil0" d="M1.57 0.12c-0.15,-0.07 -0.34,0.04 -0.43,0.24 -0.05,0.11 -0.05,0.23 -0.02,0.33 0.03,0.07 0.07,0.13 0.13,0.16 0.03,0.01 0.06,0.02 0.1,0.02 0,0 0,0 0,0 0.12,0 0.26,-0.1 0.32,-0.26 0.05,-0.11 0.06,-0.23 0.03,-0.33 -0.03,-0.07 -0.07,-0.13 -0.13,-0.16l0 0zm0 0.06c0.03,0.01 0.05,0.04 0.07,0.08l-0.01 0.01 -0.09 -0.04 0.03 -0.05zm-0.31 0.34l0.04 -0.08 0.08 0.05 -0.03 0.07 -0.09 -0.04zm0.07 0.08l-0.03 0.08 -0.09 -0.04 0.04 -0.08 0.08 0.04zm-0.02 -0.2l0.04 -0.07 0.09 0.04 -0.04 0.07 -0.09 -0.04zm0.11 0.11l0.09 0.04 -0.03 0.07 -0.09 -0.04 0.03 -0.07zm0.02 -0.05l0.04 -0.07 0.08 0.04 -0.03 0.08 -0.09 -0.05zm0.05 -0.11l0.04 -0.08 0.08 0.04 -0.03 0.08 -0.09 -0.04zm-0.07 -0.2c0.02,0 0.03,0 0.05,0 0,0 0,0 0,0 0.02,0 0.04,0 0.06,0.01l-0.02 0.05 -0.09 -0.04 0 -0.02zm-0.02 0.06l0.09 0.04 -0.04 0.08 -0.08 -0.05 0.03 -0.07zm-0.05 -0.03l0.01 0.01 -0.03 0.07 -0.06 -0.02c0.03,-0.02 0.05,-0.04 0.08,-0.06l0 0zm-0.11 0.09l0.07 0.04 -0.03 0.07 -0.08 -0.04c0.01,-0.02 0.03,-0.04 0.04,-0.07l0 0zm-0.06 0.12l0.08 0.03 -0.04 0.08 -0.07 -0.03c0.01,-0.03 0.02,-0.06 0.03,-0.08l0 0zm-0.03 0.22c-0.01,-0.02 -0.01,-0.04 -0.01,-0.05 0,-0.02 0,-0.03 0.01,-0.05l0.06 0.03 -0.04 0.08 -0.02 -0.01zm0.1 0.18c-0.03,-0.02 -0.05,-0.04 -0.07,-0.08l0.01 -0.03 0.09 0.04 -0.03 0.07zm0.14 0.03c-0.01,0 -0.02,0 -0.04,0 -0.02,0 -0.04,0 -0.06,-0.01l0.03 -0.07 0.09 0.04 -0.02 0.04zm0.04 -0.08l-0.09 -0.04 0.03 -0.08 0.09 0.05 -0.03 0.07zm0.06 0.03l-0.02 -0.01 0.03 -0.08 0.06 0.03c-0.02,0.03 -0.04,0.05 -0.07,0.06l0 0zm0.1 -0.09l-0.07 -0.04 0.03 -0.07 0.08 0.04c-0.01,0.02 -0.03,0.04 -0.04,0.07l0 0zm0.06 -0.12l-0.08 -0.03 0.03 -0.08 0.07 0.03c-0.01,0.03 -0.01,0.06 -0.02,0.08l0 0zm0.02 -0.13l-0.05 -0.02 0.03 -0.08 0.02 0.01c0,0.02 0,0.05 0,0.07 0,0.01 0,0.02 0,0.02l0 0z" data-original="#000000"/>
    <path class="fil0" d="M1.61 0.03c-0.19,-0.09 -0.43,0.04 -0.54,0.29 -0.06,0.14 -0.07,0.29 -0.03,0.42 0.03,0.07 0.06,0.12 0.11,0.16l-0.09 0.19 -0.01 0c-0.01,0 -0.02,0 -0.03,0l-0.01 -0.03c-0.02,-0.01 -0.02,-0.03 -0.02,-0.05 0,0 0,-0.01 0,-0.01 0,-0.01 0,-0.01 0,-0.02 0,-0.03 -0.01,-0.06 -0.02,-0.08l-0.48 -0.73c-0.02,-0.04 -0.07,-0.06 -0.11,-0.06 -0.03,0 -0.06,0.01 -0.08,0.03 -0.04,0.02 -0.06,0.07 -0.06,0.12 0,0.02 0.01,0.05 0.03,0.08l0.27 0.42c-0.02,0 -0.05,-0.01 -0.08,-0.01 -0.25,0 -0.46,0.22 -0.46,0.49 0,0.27 0.21,0.49 0.46,0.49 0.12,0 0.24,-0.05 0.33,-0.14 0,-0.01 0,-0.01 0,-0.01 0,0.01 0,0.03 0,0.05 0,0.1 0.07,0.17 0.16,0.17 0.09,0 0.16,-0.07 0.16,-0.17 0,-0.06 -0.03,-0.12 -0.08,-0.15l0.03 0.01 0.04 0.02 0.1 0.15 -0.01 0c-0.01,0.01 -0.02,0.03 -0.02,0.05 0,0.01 0.01,0.02 0.01,0.03 0.02,0.02 0.05,0.04 0.08,0.04 0.02,0 0.04,0 0.06,-0.02l0.06 -0.04c0.01,-0.01 0.02,-0.02 0.03,-0.03l0.02 0.01c0.02,0.01 0.04,0.02 0.05,0.02 0.01,0 0.02,0 0.03,-0.01l0.1 -0.02c0.01,-0.01 0.02,-0.02 0.02,-0.04 0,-0.01 0,-0.02 0,-0.02l-0.08 -0.11 0.14 -0.06c0,0 0,0 0,0 0.01,-0.01 0.02,-0.02 0.02,-0.03 0,-0.02 0,-0.03 -0.01,-0.03l-0.1 -0.1 0.11 -0.07c0.01,-0.01 0.01,-0.02 0.01,-0.03 0,-0.02 0,-0.03 -0.01,-0.03l-0.08 -0.06c-0.02,-0.02 -0.04,-0.03 -0.06,-0.03 -0.01,0 -0.01,0 -0.01,0l-0.34 0.03 0.06 -0.15c0.02,0.01 0.04,0.01 0.06,0.01 0,0 0,0 0,0 0.16,0 0.32,-0.12 0.41,-0.32 0.06,-0.14 0.07,-0.29 0.03,-0.42 -0.04,-0.09 -0.1,-0.16 -0.17,-0.2l0 0zm-0.59 1.1l-0.06 0.29c-0.02,0 -0.04,0 -0.06,-0.03 0.01,-0.05 0.02,-0.1 0.02,-0.15 0,0 0,0 0,0 0,-0.02 0,-0.03 0,-0.05 0.01,-0.04 0.05,-0.06 0.1,-0.06l0 0zm-0.09 0.33c-0.03,0.01 -0.05,0.02 -0.07,0.03 0,-0.02 0.01,-0.03 0.02,-0.05 0.01,0.01 0.03,0.02 0.05,0.02l0 0zm-0.4 -0.65c0.02,0 0.05,0.01 0.08,0.02 0,0 0,0 0,0 0.01,0 0.02,0 0.02,-0.01l0 0c0,0 0,-0.01 0,-0.01 0,-0.01 0,-0.02 -0.01,-0.02 0,-0.01 -0.01,-0.01 -0.01,-0.01l-0.31 -0.47c-0.01,-0.01 -0.02,-0.03 -0.02,-0.05 0,-0.04 0.02,-0.07 0.05,-0.09 0.01,-0.01 0.03,-0.02 0.05,-0.02 0.03,0 0.06,0.02 0.08,0.05l0.47 0.73c0.01,0.01 0.02,0.03 0.02,0.05 0,0 0,0.01 0,0.01 0,0.01 0,0.01 0,0.02 0,0.03 0,0.06 0.02,0.08l0 0c-0.02,0.01 -0.04,0.02 -0.06,0.04 -0.02,-0.09 -0.06,-0.17 -0.12,-0.23 -0.01,-0.01 -0.02,-0.02 -0.03,-0.03 -0.01,0 -0.01,-0.01 -0.02,-0.01 -0.01,0 -0.02,0.01 -0.02,0.03 0,0 0,0.01 0.01,0.02 0,0 0.01,0 0.01,0l-0.14 0.16c-0.05,-0.06 -0.08,-0.13 -0.08,-0.21 0,-0.02 0,-0.04 0.01,-0.05l0 0zm0.34 0.36c-0.02,0 -0.03,0 -0.05,0 -0.07,0 -0.14,-0.02 -0.19,-0.07l0.14 -0.15c0.05,0.06 0.09,0.14 0.1,0.22l0 0zm-0.41 -0.37c0.01,0 0.02,0 0.03,0 -0.01,0.02 -0.01,0.04 -0.01,0.06 0,0.09 0.03,0.17 0.08,0.24l-0.1 0.11 -0.28 -0.3c0.08,-0.07 0.18,-0.11 0.28,-0.11 0,0 0,0 0,0l0 0zm-0.42 0.44c0,0 0,0 0,0 0,-0.11 0.04,-0.21 0.11,-0.29l0.28 0.29 -0.11 0.11c-0.06,-0.06 -0.14,-0.09 -0.22,-0.09 -0.02,0 -0.04,0 -0.06,0.01 0,-0.01 0,-0.02 0,-0.03l0 0zm0.01 0.07c0.01,0 0.03,0 0.05,0 0.07,0 0.14,0.03 0.19,0.07l-0.14 0.16c-0.05,-0.07 -0.09,-0.14 -0.1,-0.23l0 0zm0.34 0.37c-0.08,-0.02 -0.15,-0.05 -0.21,-0.11l0.14 -0.15c0.05,0.05 0.08,0.13 0.08,0.2 0,0.02 -0.01,0.04 -0.01,0.06l0 0zm0.04 0c0.01,-0.02 0.01,-0.04 0.01,-0.06 0,-0.09 -0.03,-0.17 -0.09,-0.24l0.11 -0.11 0.28 0.3c-0.08,0.07 -0.18,0.11 -0.28,0.11 -0.01,0 -0.02,0 -0.03,0l0 0zm0.34 -0.14l-0.28 -0.3 0.11 -0.11c0.06,0.06 0.14,0.09 0.22,0.09 0.02,0 0.04,0 0.06,-0.01 0,0.01 0,0.02 0,0.03 0,0 0,0 0,0 0,0.11 -0.04,0.22 -0.11,0.3l0 0zm0.3 0.09c0,0.07 -0.06,0.13 -0.12,0.13 -0.07,0 -0.12,-0.06 -0.12,-0.13 0,-0.07 0.05,-0.12 0.12,-0.12 0.06,0 0.12,0.05 0.12,0.12l0 0zm-0.02 -0.19l-0.04 -0.01 0.06 -0.29 0.04 0.01 -0.06 0.29zm0.13 0.12l0.09 0.05 -0.04 0.03 -0.05 -0.08zm0.17 0.12l-0.05 0.05c-0.01,0 -0.02,0.01 -0.04,0.01 -0.01,0 -0.03,-0.01 -0.04,-0.03 0,0 0,0 0,0 0,-0.01 0,-0.01 0,-0.01l0.09 -0.07 0.06 0.04c0,0 -0.01,0.01 -0.02,0.01l0 0zm0.23 -0.04l-0.08 0.03c-0.01,0 -0.01,0 -0.02,0 -0.01,0 -0.02,0 -0.03,-0.01l-0.36 -0.2 0.02 -0.08 0.38 0.14c0.01,0.01 0.02,0.01 0.03,0.02l0.06 0.1zm0.08 -0.22l-0.14 0.07 -0.4 -0.16 0.01 -0.04 0.42 0.03c0,0 0.01,0 0.01,0l0.1 0.1zm-0.1 -0.29c0,0 0.01,0 0.01,0 0.01,0 0.03,0 0.04,0.01l0.07 0.06 -0.11 0.07c0,0 -0.01,0 -0.02,0 0,0 0,0 -0.01,0l-0.4 -0.03 0.01 -0.08 0.41 -0.03zm-0.39 -0.02l-0.03 0 -0.04 -0.01 0.08 -0.17c0.01,0 0.02,0.01 0.03,0.01 0.01,0 0.02,0.01 0.03,0.01l-0.07 0.16zm0.54 -0.48c-0.1,0.23 -0.32,0.35 -0.48,0.27 -0.07,-0.03 -0.12,-0.09 -0.15,-0.17 -0.04,-0.12 -0.03,-0.26 0.03,-0.39 0.08,-0.18 0.23,-0.29 0.37,-0.29 0,0 0,0 0,0 0.04,0 0.08,0 0.11,0.02 0.07,0.03 0.12,0.09 0.14,0.17 0.05,0.12 0.04,0.26 -0.02,0.39l0 0z" data-original="#000000"/>
    <path class="fil0" d="M0.37 0.25l-0.01 0c0,-0.01 -0.01,-0.01 -0.01,-0.01 -0.02,0 -0.02,0.01 -0.02,0.02 0,0 0,0.01 0,0.01l0 0.01c0.01,0 0.01,0.01 0.02,0.01 0.01,0 0.02,-0.01 0.02,-0.03 0,0 0,0 0,-0.01l0 0zm0.04 0.06c-0.01,-0.01 -0.02,-0.01 -0.02,-0.01 -0.01,0 -0.02,0.01 -0.02,0.02 0,0.01 0,0.01 0,0.02l0.15 0.24c0.01,0.01 0.01,0.01 0.02,0.01 0.01,0 0.02,-0.01 0.02,-0.02 0,-0.01 0,-0.01 0,-0.02l-0.15 -0.24z" data-original="#000000"/>
   </g>
  </g>
 </g>
</svg>
