<svg xmlns="http://www.w3.org/2000/svg" version="1.1" xmlns:xlink="http://www.w3.org/1999/xlink" width="512" height="512" x="0" y="0" viewBox="0 0 64 64" style="enable-background:new 0 0 512 512" xml:space="preserve" class=""><g><g data-name="Layer 5"><path d="M15.515 38a1 1 0 0 0 1.36-.39A7.007 7.007 0 0 1 23 34h3.341a6 6 0 0 0 11.318 0H41a7.007 7.007 0 0 1 6.125 3.61 1 1 0 1 0 1.75-.97A9.011 9.011 0 0 0 41 32h-5a1 1 0 0 1-1-1v-1.461A10.018 10.018 0 0 0 42 20a3 3 0 0 0 0-6v-4a10 10 0 0 0-20 0v4a3 3 0 0 0 0 6 10.018 10.018 0 0 0 7 9.539V31a1 1 0 0 1-1 1h-5a9.011 9.011 0 0 0-7.875 4.64 1 1 0 0 0 .39 1.36ZM43 17a1 1 0 0 1-1 1v-2a1 1 0 0 1 1 1Zm-22 0a1 1 0 0 1 1-1v2a1 1 0 0 1-1-1Zm3 3v-4h9.172a2.978 2.978 0 0 0 2.121-.879l1.414-1.414a1 1 0 0 0-1.414-1.414l-1.414 1.414a1.009 1.009 0 0 1-.707.293H24v-4a8 8 0 0 1 16 0v4h-1.172a1 1 0 0 1-.414-.09 1 1 0 0 0-.828 1.82 2.977 2.977 0 0 0 1.242.27H40v4a8 8 0 0 1-16 0Zm7 11v-1.051a9.829 9.829 0 0 0 2 0V31a3 3 0 0 0 2.484 2.948 3.984 3.984 0 0 1-6.968 0A3 3 0 0 0 31 31Z" fill="#cc0000" opacity="1" data-original="#000000" class=""></path><path d="M63 56h-7.556A3.959 3.959 0 0 0 56 54v-2a4 4 0 0 0-4-4v-7a1 1 0 0 0-.683-.948C45.328 38.045 38.829 38.671 32 41.9c-6.828-3.227-13.327-3.853-19.317-1.845A1 1 0 0 0 12 41v7a4 4 0 0 0-4 4v2a3.959 3.959 0 0 0 .556 2H1a1 1 0 0 0-1 1v6a1 1 0 0 0 1 1h62a1 1 0 0 0 1-1v-6a1 1 0 0 0-1-1Zm-9-4v2a2 2 0 0 1-4 0v-2a2 2 0 0 1 4 0Zm-4-10.268v6.824A3.987 3.987 0 0 0 48 52v2a3.959 3.959 0 0 0 .556 2H33V43.63c6.109-2.86 11.685-3.483 17-1.898Zm-36 0c5.313-1.585 10.889-.962 17 1.9V56H15.444A3.959 3.959 0 0 0 16 54v-2a3.987 3.987 0 0 0-2-3.444ZM10 54v-2a2 2 0 0 1 4 0v2a2 2 0 0 1-4 0Zm52 8H2v-4h60ZM36 20a1 1 0 0 0 1-1v-1a1 1 0 0 0-2 0v1a1 1 0 0 0 1 1ZM28 17a1 1 0 0 0-1 1v1a1 1 0 0 0 2 0v-1a1 1 0 0 0-1-1Z" fill="#cc0000" opacity="1" data-original="#000000" class=""></path></g></g></svg>