<svg xmlns="http://www.w3.org/2000/svg" version="1.1" xmlns:xlink="http://www.w3.org/1999/xlink" width="512" height="512" x="0" y="0" viewBox="0 0 682.667 682.667" style="enable-background:new 0 0 512 512" xml:space="preserve" class=""><g><defs><clipPath id="a" clipPathUnits="userSpaceOnUse"><path d="M0 512h512V0H0Z" fill="#cc0000" opacity="1" data-original="#000000"></path></clipPath></defs><path d="M0 0h202.405" style="stroke-width:15.118;stroke-linecap:round;stroke-linejoin:round;stroke-miterlimit:10;stroke-dasharray:none;stroke-opacity:1" transform="matrix(1.33333 0 0 -1.33333 205.105 626.045)" fill="none" stroke="#cc0000" stroke-width="15.118" stroke-linecap="round" stroke-linejoin="round" stroke-miterlimit="10" stroke-dasharray="none" stroke-opacity="" data-original="#000000" opacity="1" class=""></path><g clip-path="url(#a)" transform="matrix(1.33333 0 0 -1.33333 0 682.667)"><path d="M0 0h243.861c11.311-18.11 24.218-41.526 36.526-58.21 5.499-7.444 3.704-11.751-.484-11.751H-37.096c-8.291 0-6.895.827.57 11.751.569.827 1.225 1.711 1.823 2.709z" style="stroke-width:15.118;stroke-linecap:round;stroke-linejoin:round;stroke-miterlimit:10;stroke-dasharray:none;stroke-opacity:1" transform="translate(133.4 77.46)" fill="none" stroke="#cc0000" stroke-width="15.118" stroke-linecap="round" stroke-linejoin="round" stroke-miterlimit="10" stroke-dasharray="none" stroke-opacity="" data-original="#000000" opacity="1" class=""></path><path d="M0 0h168.7l33.107-69.961H-34.19Z" style="stroke-width:15.118;stroke-linecap:round;stroke-linejoin:round;stroke-miterlimit:10;stroke-dasharray:none;stroke-opacity:1" transform="translate(170.98 77.46)" fill="none" stroke="#cc0000" stroke-width="15.118" stroke-linecap="round" stroke-linejoin="round" stroke-miterlimit="10" stroke-dasharray="none" stroke-opacity="" data-original="#000000" opacity="1" class=""></path><path d="M170.98 77.461h168.557v53.79H170.98Z" style="stroke-width:15.118;stroke-linecap:round;stroke-linejoin:round;stroke-miterlimit:10;stroke-dasharray:none;stroke-opacity:1" fill="none" stroke="#cc0000" stroke-width="15.118" stroke-linecap="round" stroke-linejoin="round" stroke-miterlimit="10" stroke-dasharray="none" stroke-opacity="" data-original="#000000" opacity="1" class=""></path><path d="M226.312 77.461h57.924v53.79h-57.924z" style="stroke-width:15.118;stroke-linecap:round;stroke-linejoin:round;stroke-miterlimit:10;stroke-dasharray:none;stroke-opacity:1" fill="none" stroke="#cc0000" stroke-width="15.118" stroke-linecap="round" stroke-linejoin="round" stroke-miterlimit="10" stroke-dasharray="none" stroke-opacity="" data-original="#000000" opacity="1" class=""></path><path d="M0 0v120.072c0 27.152 22.195 49.398 49.348 49.398h106.189m33.734 0h103.824c27.124 0 49.347-22.246 49.347-49.398V-98.367c0-27.18-22.223-49.398-49.347-49.398H49.348C22.195-147.765 0-125.547 0-98.367v65.027" style="stroke-width:15.118;stroke-linecap:round;stroke-linejoin:round;stroke-miterlimit:10;stroke-dasharray:none;stroke-opacity:1" transform="translate(84.052 225.226)" fill="none" stroke="#cc0000" stroke-width="15.118" stroke-linecap="round" stroke-linejoin="round" stroke-miterlimit="10" stroke-dasharray="none" stroke-opacity="" data-original="#000000" opacity="1" class=""></path><path d="M200.641 431.259h111.545v38.36H200.641Z" style="stroke-width:15.118;stroke-linecap:round;stroke-linejoin:round;stroke-miterlimit:10;stroke-dasharray:none;stroke-opacity:1" fill="none" stroke="#cc0000" stroke-width="15.118" stroke-linecap="round" stroke-linejoin="round" stroke-miterlimit="10" stroke-dasharray="none" stroke-opacity="" data-original="#000000" opacity="1" class=""></path><path d="m0 0 4.16 15.201c2.963 10.753 5.328 21.362 23.876 21.362H174.569c18.548 0 20.913-10.609 23.848-21.362L202.604 0" style="stroke-width:15.118;stroke-linecap:round;stroke-linejoin:round;stroke-miterlimit:10;stroke-dasharray:none;stroke-opacity:1" transform="translate(155.11 394.696)" fill="none" stroke="#cc0000" stroke-width="15.118" stroke-linecap="round" stroke-linejoin="round" stroke-miterlimit="10" stroke-dasharray="none" stroke-opacity="" data-original="#000000" opacity="1" class=""></path><path d="M0 0h-109.18c-13.847 0-25.158-9.041-25.158-20.079v-53.39c0-41.441 268.705-42.039 268.705 0v53.39C134.367-9.041 123.027 0 109.209 0Z" style="stroke-width:15.118;stroke-linecap:round;stroke-linejoin:round;stroke-miterlimit:10;stroke-dasharray:none;stroke-opacity:1" transform="translate(255.26 354.453)" fill="none" stroke="#cc0000" stroke-width="15.118" stroke-linecap="round" stroke-linejoin="round" stroke-miterlimit="10" stroke-dasharray="none" stroke-opacity="" data-original="#000000" opacity="1" class=""></path><path d="M0 0v104.785" style="stroke-width:15.118;stroke-linecap:round;stroke-linejoin:round;stroke-miterlimit:10;stroke-dasharray:none;stroke-opacity:1" transform="translate(255.26 249.668)" fill="none" stroke="#cc0000" stroke-width="15.118" stroke-linecap="round" stroke-linejoin="round" stroke-miterlimit="10" stroke-dasharray="none" stroke-opacity="" data-original="#000000" opacity="1" class=""></path><path d="m0 0 23.192 35.28" style="stroke-width:15.118;stroke-linecap:round;stroke-linejoin:round;stroke-miterlimit:10;stroke-dasharray:none;stroke-opacity:1" transform="translate(163.06 257.797)" fill="none" stroke="#cc0000" stroke-width="15.118" stroke-linecap="round" stroke-linejoin="round" stroke-miterlimit="10" stroke-dasharray="none" stroke-opacity="" data-original="#000000" opacity="1" class=""></path><path d="m0 0 23.192 35.28" style="stroke-width:15.118;stroke-linecap:round;stroke-linejoin:round;stroke-miterlimit:10;stroke-dasharray:none;stroke-opacity:1" transform="translate(303.553 251.75)" fill="none" stroke="#cc0000" stroke-width="15.118" stroke-linecap="round" stroke-linejoin="round" stroke-miterlimit="10" stroke-dasharray="none" stroke-opacity="" data-original="#000000" opacity="1" class=""></path><path d="M0 0h342.442" style="stroke-width:15.118;stroke-linecap:round;stroke-linejoin:round;stroke-miterlimit:10;stroke-dasharray:none;stroke-opacity:1" transform="translate(84.052 131.251)" fill="none" stroke="#cc0000" stroke-width="15.118" stroke-linecap="round" stroke-linejoin="round" stroke-miterlimit="10" stroke-dasharray="none" stroke-opacity="" data-original="#000000" opacity="1" class=""></path><path d="M0 0h34.561" style="stroke-width:15.118;stroke-linecap:round;stroke-linejoin:round;stroke-miterlimit:10;stroke-dasharray:none;stroke-opacity:1" transform="translate(237.88 213.22)" fill="none" stroke="#cc0000" stroke-width="15.118" stroke-linecap="round" stroke-linejoin="round" stroke-miterlimit="10" stroke-dasharray="none" stroke-opacity="" data-original="#000000" opacity="1" class=""></path><path d="M0 0h34.561" style="stroke-width:15.118;stroke-linecap:round;stroke-linejoin:round;stroke-miterlimit:10;stroke-dasharray:none;stroke-opacity:1" transform="translate(237.88 179.137)" fill="none" stroke="#cc0000" stroke-width="15.118" stroke-linecap="round" stroke-linejoin="round" stroke-miterlimit="10" stroke-dasharray="none" stroke-opacity="" data-original="#000000" opacity="1" class=""></path><path d="M0 0h274.774c5.357 0 11.083-2.795 14.503-6.902l17.436-20.763c14.246-16.97-11.311-40.784-26.696-22.417l-12.765 15.201H7.522L-5.242-50.082c-15.386-18.367-40.943 5.447-26.697 22.417l17.437 20.763C-11.083-2.795-5.356 0 0 0Z" style="stroke-width:15.118;stroke-linecap:round;stroke-linejoin:round;stroke-miterlimit:10;stroke-dasharray:none;stroke-opacity:1" transform="translate(118.613 504.5)" fill="none" stroke="#cc0000" stroke-width="15.118" stroke-linecap="round" stroke-linejoin="round" stroke-miterlimit="10" stroke-dasharray="none" stroke-opacity="" data-original="#000000" opacity="1" class=""></path><path d="m0 0 54.248-10.04c2.251-.427 4.189-1.91 4.189-4.22v-21.448c0-2.31-1.881-4.221-4.189-4.221H0a4.228 4.228 0 0 0-4.217 4.221v31.515C-4.217-1.882-2.279.428 0 0Z" style="stroke-width:15.118;stroke-linecap:round;stroke-linejoin:round;stroke-miterlimit:10;stroke-dasharray:none;stroke-opacity:1" transform="translate(137.104 219.066)" fill="none" stroke="#cc0000" stroke-width="15.118" stroke-linecap="round" stroke-linejoin="round" stroke-miterlimit="10" stroke-dasharray="none" stroke-opacity="" data-original="#000000" opacity="1" class=""></path><path d="m0 0-54.248-10.04c-2.251-.427-4.189-1.91-4.189-4.22v-21.448c0-2.31 1.881-4.221 4.189-4.221H0c2.308 0 4.188 1.883 4.188 4.221v31.515C4.188-1.882 2.279.428 0 0Z" style="stroke-width:15.118;stroke-linecap:round;stroke-linejoin:round;stroke-miterlimit:10;stroke-dasharray:none;stroke-opacity:1" transform="translate(373.443 219.066)" fill="none" stroke="#cc0000" stroke-width="15.118" stroke-linecap="round" stroke-linejoin="round" stroke-miterlimit="10" stroke-dasharray="none" stroke-opacity="" data-original="#000000" opacity="1" class=""></path></g></g></svg>