<svg xmlns="http://www.w3.org/2000/svg" version="1.1" xmlns:xlink="http://www.w3.org/1999/xlink" width="512" height="512" x="0" y="0" viewBox="0 0 512 512" style="enable-background:new 0 0 512 512" xml:space="preserve" class=""><g><path d="M255.988 240.655a92 92 0 1 0-92-92 92.1 92.1 0 0 0 92 92Zm-44.859-25.8a45.894 45.894 0 0 1-.222-4.419 45.082 45.082 0 1 1 90.163 0c0 1.475-.08 2.952-.222 4.419a79.831 79.831 0 0 1-89.719 0Zm44.859-62.088a23.4 23.4 0 1 1 23.4-23.4 23.431 23.431 0 0 1-23.4 23.404Zm0-84.116A79.955 79.955 0 0 1 312.8 204.917a57.2 57.2 0 0 0-35.4-47.377 35.4 35.4 0 1 0-42.818 0 57.206 57.206 0 0 0-35.4 47.377 79.954 79.954 0 0 1 56.806-136.262ZM407.449 411.6l85.211-85.211a32.092 32.092 0 0 0 9.521-26.638l-11.548-116.39a29.641 29.641 0 0 0-28.82-29.942 29.48 29.48 0 0 0-.786-.01 29.638 29.638 0 0 0-29.578 28.77l-2.478 80.025a26.78 26.78 0 0 0-2.493-.118 25.894 25.894 0 0 0-18.442 7.615L353.5 324.239a104.324 104.324 0 0 0-75.072 101.848 17.617 17.617 0 0 0-13.634 17.128v51.19A17.617 17.617 0 0 0 282.39 512h119.774a17.615 17.615 0 0 0 17.6-17.6v-51.19A17.621 17.621 0 0 0 405.816 426v-10.44a5.214 5.214 0 0 1 1.633-3.96Zm-49.226-76.229a5.985 5.985 0 0 0 2.656-1.544l55.642-55.642a14.082 14.082 0 0 1 19.914 19.915l-42.6 42.6a6 6 0 0 0 8.485 8.485l42.6-42.6a26.139 26.139 0 0 0 0-36.884 26.174 26.174 0 0 0-4.071-3.325l2.6-83.848a17.624 17.624 0 0 1 17.586-17.119q.234 0 .468.006a17.623 17.623 0 0 1 17.131 18.037 6.161 6.161 0 0 0 .027.744l11.583 116.739a20.182 20.182 0 0 1-6.063 16.969l-85.211 85.211a17.248 17.248 0 0 0-5.154 12.442v10.06H290.42a92.3 92.3 0 0 1 67.803-90.243Zm49.536 107.841v51.19a5.6 5.6 0 0 1-5.6 5.6H282.39a5.6 5.6 0 0 1-5.6-5.6v-51.186a5.6 5.6 0 0 1 5.6-5.6h119.774a5.6 5.6 0 0 1 5.595 5.599ZM381.638 461.7a14.756 14.756 0 1 0 10.431 4.322 14.647 14.647 0 0 0-10.431-4.322Zm1.947 16.7a2.753 2.753 0 1 1 .806-1.946 2.74 2.74 0 0 1-.806 1.946ZM19.34 326.4l85.211 85.2a5.214 5.214 0 0 1 1.638 3.957v10.445a17.621 17.621 0 0 0-13.948 17.21v51.19a17.615 17.615 0 0 0 17.6 17.6H229.61a17.617 17.617 0 0 0 17.6-17.594v-51.194a17.616 17.616 0 0 0-13.634-17.127A104.324 104.324 0 0 0 158.5 324.239L103.964 269.7a25.894 25.894 0 0 0-18.442-7.615c-.838 0-1.669.041-2.493.118l-2.477-80a29.6 29.6 0 0 0-59.185 1.161L9.819 299.755a32.091 32.091 0 0 0 9.521 26.637Zm215.866 168a5.6 5.6 0 0 1-5.6 5.6h-119.77a5.6 5.6 0 0 1-5.595-5.6v-51.19a5.6 5.6 0 0 1 5.595-5.595H229.61a5.6 5.6 0 0 1 5.6 5.595ZM21.761 300.939 33.344 184.2a6.161 6.161 0 0 0 .027-.744A17.623 17.623 0 0 1 50.5 165.418c.157 0 .312-.006.468-.006a17.63 17.63 0 0 1 17.588 17.141l2.595 83.825a26.174 26.174 0 0 0-4.071 3.325 26.139 26.139 0 0 0 0 36.884l42.6 42.6a6 6 0 0 0 8.485-8.485l-42.6-42.6a14.081 14.081 0 1 1 19.914-19.914l55.642 55.642a5.985 5.985 0 0 0 2.656 1.544 92.3 92.3 0 0 1 67.8 90.246H118.189v-10.06a17.248 17.248 0 0 0-5.154-12.442l-85.211-85.211a20.182 20.182 0 0 1-6.063-16.968ZM130.362 461.7a14.755 14.755 0 1 0 10.431 4.322 14.647 14.647 0 0 0-10.431-4.322Zm1.947 16.7a2.756 2.756 0 1 1 .805-1.946 2.741 2.741 0 0 1-.805 1.946Zm123.68-189.667a138.63 138.63 0 0 1-73.644-20.885l7.085 22.441a6 6 0 1 1-11.444 3.613L165.5 254.344a6 6 0 0 1 5.105-7.775l41.258-4.268a6 6 0 1 1 1.235 11.935l-25.6 2.649a126.729 126.729 0 0 0 68.491 19.844 128.321 128.321 0 0 0 80.972-28.838 6 6 0 0 1 7.592 9.293 140.35 140.35 0 0 1-88.564 31.545Zm-88.564-248.6a140.348 140.348 0 0 1 88.564-31.552A138.859 138.859 0 0 1 328.2 28.628l-7.789-20.5a6 6 0 0 1 11.217-4.263l14.734 38.773a6 6 0 0 1-4.649 8.054l-40.943 6.631a6 6 0 1 1-1.918-11.845l26.739-4.328a126.944 126.944 0 0 0-69.6-20.569 128.316 128.316 0 0 0-80.974 28.839 6 6 0 1 1-7.592-9.293ZM364.434 216.8a126.681 126.681 0 0 0 19.629-68.144 128.309 128.309 0 0 0-28.839-80.971 6 6 0 1 1 9.293-7.592 140.346 140.346 0 0 1 31.546 88.563 138.571 138.571 0 0 1-21.1 74L397.9 215.8a6 6 0 0 1 3.436 11.5l-39.743 11.873a6 6 0 0 1-7.694-5.224l-3.63-41.319a6 6 0 1 1 11.953-1.051ZM147.57 80.463a126.771 126.771 0 0 0-19.655 68.192 128.312 128.312 0 0 0 28.839 80.972 6 6 0 1 1-9.293 7.592 140.341 140.341 0 0 1-31.546-88.564A138.665 138.665 0 0 1 137 74.7l-22.885 6.88a6 6 0 0 1-3.457-11.492l39.721-11.947a6 6 0 0 1 7.7 5.21l3.706 41.313a6 6 0 0 1-5.439 6.512q-.274.024-.543.024a6 6 0 0 1-5.969-5.464Z" fill="#cc0000" opacity="1" data-original="#000000" class=""></path></g></svg>