<svg xmlns="http://www.w3.org/2000/svg" version="1.1" xmlns:xlink="http://www.w3.org/1999/xlink" width="512" height="512" x="0" y="0" viewBox="0 0 682.667 682.667" style="enable-background:new 0 0 512 512" xml:space="preserve" class=""><g><defs stroke-width="12" style="stroke-width: 12;"><clipPath id="a" clipPathUnits="userSpaceOnUse" stroke-width="12" style="stroke-width: 12;"><path d="M0 512h512V0H0Z" fill="#cc0000" opacity="1" data-original="#000000" stroke-width="12" style="stroke-width: 12;"></path></clipPath></defs><g clip-path="url(#a)" transform="matrix(1.33333 0 0 -1.33333 0 682.667)" stroke-width="12" style="stroke-width: 12;"><path d="M0 0v-60.719h496.998V94.678H334.885m-172.8 0H0v-60.69" style="stroke-width: 12; stroke-linecap: round; stroke-linejoin: round; stroke-miterlimit: 10; stroke-dasharray: none; stroke-opacity: 1;" transform="translate(7.501 68.219)" fill="none" stroke="#cc0000" stroke-width="12" stroke-linecap="round" stroke-linejoin="round" stroke-miterlimit="10" stroke-dasharray="none" stroke-opacity="" data-original="#000000" opacity="1" class=""></path><path d="M0 0h162.113v92.211m0 33.986v92.211H0m-172.8 0h-162.085V0H-172.8" style="stroke-width: 12; stroke-linecap: round; stroke-linejoin: round; stroke-miterlimit: 10; stroke-dasharray: none; stroke-opacity: 1;" transform="translate(342.386 162.897)" fill="none" stroke="#cc0000" stroke-width="12" stroke-linecap="round" stroke-linejoin="round" stroke-miterlimit="10" stroke-dasharray="none" stroke-opacity="" data-original="#000000" opacity="1" class=""></path><path d="M342.386 424.988h162.113v-43.684H342.386Zm-334.885 0h162.085v-43.684H7.501Z" style="stroke-width: 12; stroke-linecap: round; stroke-linejoin: round; stroke-miterlimit: 10; stroke-dasharray: none; stroke-opacity: 1;" fill="none" stroke="#cc0000" stroke-width="12" stroke-linecap="round" stroke-linejoin="round" stroke-miterlimit="10" stroke-dasharray="none" stroke-opacity="" data-original="#000000" opacity="1" class=""></path><path d="M0 0v79.145h-33.023v-98.194M0-71.547v33.422m-33.023-19.078v-33.42M0-143.092v33.42m-33.023-19.078v-33.42M0-214.668v33.422m-33.023-19.078v-33.42m0-38.127v-18.17c0-5.611.85-11.254 2.636-16.725l11.225-34.752c1.19-3.685 4.167-3.459 5.272 0l11.254 34.752C-.878-301.266 0-296.051 0-290.041v37.248" style="stroke-width: 12; stroke-linecap: round; stroke-linejoin: round; stroke-miterlimit: 10; stroke-dasharray: none; stroke-opacity: 1;" transform="translate(272.512 425.356)" fill="none" stroke="#cc0000" stroke-width="12" stroke-linecap="round" stroke-linejoin="round" stroke-miterlimit="10" stroke-dasharray="none" stroke-opacity="" data-original="#000000" opacity="1" class=""></path><path d="m0 0 52.384 30.244c7.852 4.535 18 1.815 22.564-6.037 4.535-7.881 1.814-18.029-6.066-22.564L16.526-28.602c-7.88-4.537-18.028-1.814-22.564 6.038C-10.573-14.684-7.852-4.537 0 0Zm0-71.547L52.384-41.33c7.852 4.564 18 1.842 22.564-6.037 4.535-7.854 1.814-18-6.066-22.565l-52.356-30.216c-7.88-4.565-18.028-1.844-22.564 6.037-4.535 7.851-1.814 18 6.038 22.564zm0-71.576 52.384 30.246c7.852 4.535 18 1.814 22.564-6.037 4.535-7.881 1.814-18.029-6.066-22.565l-52.356-30.246c-7.88-4.535-18.028-1.812-22.564 6.039-4.535 7.881-1.814 18.028 6.038 22.563zM0 71.574l52.384 30.217c7.852 4.535 18 1.842 22.564-6.037 4.535-7.852 1.814-18.029-6.066-22.565L16.526 42.973c-7.88-4.565-18.028-1.844-22.564 6.037-4.535 7.851-1.814 18 6.038 22.564Z" style="stroke-width: 12; stroke-linecap: round; stroke-linejoin: round; stroke-miterlimit: 10; stroke-dasharray: none; stroke-opacity: 1;" transform="translate(221.545 324.387)" fill="none" stroke="#cc0000" stroke-width="12" stroke-linecap="round" stroke-linejoin="round" stroke-miterlimit="10" stroke-dasharray="none" stroke-opacity="" data-original="#000000" opacity="1" class=""></path><path d="M0 0v129.459h69.902m52.724 0H172.8v-292.934c0-47.507-38.891-86.371-86.4-86.371-47.509 0-86.4 38.864-86.4 86.371v129.487" style="stroke-width: 12; stroke-linecap: round; stroke-linejoin: round; stroke-miterlimit: 10; stroke-dasharray: none; stroke-opacity: 1;" transform="translate(169.586 295.53)" fill="none" stroke="#cc0000" stroke-width="12" stroke-linecap="round" stroke-linejoin="round" stroke-miterlimit="10" stroke-dasharray="none" stroke-opacity="" data-original="#000000" opacity="1" class=""></path><path d="m0 0-22.366-58.422M33.959 0-3.969-99.1M67.946 0 30.019-99.1m61.143 71.038L63.978-99.1m45.609 30.389L97.965-99.1m36.057 5.444-2.098-5.444M270-93.402l-2.154-5.698M339.732 0l-37.927-99.1M373.72 0l-37.928-99.1M407.679 0l-37.928-99.1m56.353 58.422L403.738-99.1" style="stroke-width: 12; stroke-linecap: round; stroke-linejoin: round; stroke-miterlimit: 10; stroke-dasharray: none; stroke-opacity: 1;" transform="translate(54.13 134.748)" fill="none" stroke="#cc0000" stroke-width="12" stroke-linecap="round" stroke-linejoin="round" stroke-miterlimit="10" stroke-dasharray="none" stroke-opacity="" data-original="#000000" opacity="1" class=""></path><path d="M0 0h13.436m29.14 0h13.437m-77.301 26.703h13.436m29.14 0h13.437M0 53.404h13.436m29.14 0h13.437m-77.301 26.703h13.436m29.14 0h13.437m-77.301-26.703h13.464M0 106.781h13.436m29.14 0h13.437m-77.301 26.703h13.436m29.14 0h13.437m-77.301-26.703h13.464M0 160.186h13.436m29.14 0h13.437m-98.589 0h13.464M-42.576 0h13.464" style="stroke-width: 12; stroke-linecap: round; stroke-linejoin: round; stroke-miterlimit: 10; stroke-dasharray: none; stroke-opacity: 1;" transform="translate(81.825 192.008)" fill="none" stroke="#cc0000" stroke-width="12" stroke-linecap="round" stroke-linejoin="round" stroke-miterlimit="10" stroke-dasharray="none" stroke-opacity="" data-original="#000000" opacity="1" class=""></path><path d="M0 0h13.464m29.112 0h13.436m-77.301 26.703h13.465m29.112 0h13.436M0 53.404h13.464m29.112 0h13.436m-77.301 26.703h13.465m29.112 0h13.436m-77.301-26.703h13.465M0 106.781h13.464m29.112 0h13.436m-77.301 26.703h13.465m29.112 0h13.436m-77.301-26.703h13.465M0 160.186h13.464m29.112 0h13.436m-98.589 0h13.465M-42.577 0h13.465" style="stroke-width: 12; stroke-linecap: round; stroke-linejoin: round; stroke-miterlimit: 10; stroke-dasharray: none; stroke-opacity: 1;" transform="translate(416.71 192.008)" fill="none" stroke="#cc0000" stroke-width="12" stroke-linecap="round" stroke-linejoin="round" stroke-miterlimit="10" stroke-dasharray="none" stroke-opacity="" data-original="#000000" opacity="1" class=""></path></g></g></svg>