<?xml version="1.0" encoding="UTF-8"?>
<!DOCTYPE svg PUBLIC "-//W3C//DTD SVG 1.1//EN" "http://www.w3.org/Graphics/SVG/1.1/DTD/svg11.dtd">
<svg xmlns="http://www.w3.org/2000/svg" version="1.1" width="512px" height="512px" style="shape-rendering:geometricPrecision; text-rendering:geometricPrecision; image-rendering:optimizeQuality; fill-rule:evenodd; clip-rule:evenodd" xmlns:xlink="http://www.w3.org/1999/xlink">
<g><path style="opacity:0.955" fill="#d93f3f" d="M 240.5,18.5 C 320.809,16.0885 386.976,45.0885 439,105.5C 439.856,100.444 440.856,95.4435 442,90.5C 450.658,84.7775 455.492,87.1109 456.5,97.5C 455.613,109.203 454.446,120.87 453,132.5C 451.13,135.018 448.63,136.352 445.5,136.5C 433.06,134.76 420.727,132.594 408.5,130C 404.878,125.998 404.544,121.665 407.5,117C 409.534,115.994 411.7,115.494 414,115.5C 418.542,116.177 423.042,116.677 427.5,117C 375.938,56.4607 310.271,29.4607 230.5,36C 204.529,38.9922 179.862,46.3256 156.5,58C 146.963,59.4679 143.463,55.6346 146,46.5C 151.974,42.0952 158.474,38.5952 165.5,36C 189.791,26.5084 214.791,20.6751 240.5,18.5 Z"/></g>
<g><path style="opacity:0.954" fill="#d93f3f" d="M 92.5,54.5 C 105.886,55.1155 119.219,56.2821 132.5,58C 135.018,59.8703 136.352,62.3703 136.5,65.5C 134.841,77.9532 132.674,90.2865 130,102.5C 126.017,107.324 121.683,107.657 117,103.5C 115.994,101.466 115.494,99.2998 115.5,97C 116.177,92.4584 116.677,87.9584 117,83.5C 49.2237,142.15 23.557,215.816 40,304.5C 44.4868,322.796 50.6535,340.462 58.5,357.5C 58.1667,362.5 55.5,365.167 50.5,365.5C 47.8887,365.444 45.722,364.444 44,362.5C 8.86537,287.864 10.1987,213.864 48,140.5C 63.1477,114.347 82.3143,91.514 105.5,72C 101.227,70.9695 96.894,70.3028 92.5,70C 87.7762,67.5647 86.2762,63.7314 88,58.5C 89.3968,56.9297 90.8968,55.5964 92.5,54.5 Z"/></g>
<g><path style="opacity:0.956" fill="#d93f3f" d="M 243.5,78.5 C 322.239,77.2629 379.739,111.263 416,180.5C 440.465,237.67 437.465,293.337 407,347.5C 363.986,411.757 303.819,439.257 226.5,430C 166.18,418.443 122.347,385.277 95,330.5C 70.5346,273.33 73.5346,217.663 104,163.5C 136.667,112.704 183.167,84.3707 243.5,78.5 Z M 244.5,94.5 C 305.469,92.7477 353.636,116.414 389,165.5C 423.712,221.842 425.379,279.175 394,337.5C 364.516,384.347 322.016,410.513 266.5,416C 201.791,417.568 151.958,391.401 117,337.5C 87.0032,282.796 87.0032,228.129 117,173.5C 146.693,126.726 189.193,100.392 244.5,94.5 Z"/></g>
<g><path style="opacity:0.953" fill="#d93f3f" d="M 455.5,143.5 C 458.187,143.336 460.854,143.503 463.5,144C 466.964,148.422 469.797,153.256 472,158.5C 503.456,235.018 498.456,309.018 457,380.5C 443.067,402.771 425.9,422.271 405.5,439C 410.556,439.856 415.556,440.856 420.5,442C 426.222,450.658 423.889,455.492 413.5,456.5C 401.797,455.613 390.13,454.446 378.5,453C 375.982,451.13 374.648,448.63 374.5,445.5C 376.159,433.047 378.326,420.713 381,408.5C 385.032,403.637 389.366,403.304 394,407.5C 395.006,409.534 395.506,411.7 395.5,414C 394.823,418.542 394.323,423.042 394,427.5C 454.538,375.944 481.538,310.277 475,230.5C 471.972,203.75 464.305,178.417 452,154.5C 450.663,149.872 451.83,146.205 455.5,143.5 Z"/></g>
<g><path style="opacity:0.953" fill="#d93f3f" d="M 204.5,173.5 C 238.502,173.333 272.502,173.5 306.5,174C 310.753,177.42 311.587,181.587 309,186.5C 307.581,187.46 306.081,188.293 304.5,189C 292.167,189.333 279.833,189.667 267.5,190C 276.465,199.43 282.132,210.597 284.5,223.5C 291.476,224.331 298.476,224.831 305.5,225C 310.535,228.013 311.702,232.18 309,237.5C 308.097,238.701 306.931,239.535 305.5,240C 298.5,240.333 291.5,240.667 284.5,241C 277.642,271.526 258.642,288.192 227.5,291C 246.699,310.531 265.532,330.364 284,350.5C 285.432,360.698 281.265,364.198 271.5,361C 249.031,336.863 226.198,313.03 203,289.5C 199.098,284.014 199.931,279.514 205.5,276C 217.695,276.183 229.695,274.85 241.5,272C 255.858,266.147 264.525,255.647 267.5,240.5C 246.831,240.667 226.164,240.5 205.5,240C 200.465,236.987 199.298,232.82 202,227.5C 202.903,226.299 204.069,225.465 205.5,225C 226.164,224.5 246.831,224.333 267.5,224.5C 263.767,205.6 252.434,194.1 233.5,190C 224.5,189.667 215.5,189.333 206.5,189C 201.076,186.983 199.242,183.15 201,177.5C 202.376,176.295 203.542,174.962 204.5,173.5 Z"/></g>
<g><path style="opacity:0.954" fill="#d93f3f" d="M 62.5,374.5 C 75.9826,375.878 89.3159,378.045 102.5,381C 106.122,385.002 106.456,389.335 103.5,394C 101.466,395.006 99.2998,395.506 97,395.5C 92.4584,394.823 87.9584,394.323 83.5,394C 142.151,461.777 215.818,487.443 304.5,471C 323.466,466.179 341.8,459.679 359.5,451.5C 367.557,454.116 369.223,458.949 364.5,466C 295.943,499.433 226.61,501.1 156.5,471C 123.378,455.543 95.2112,433.709 72,405.5C 71.1442,410.556 70.1442,415.556 69,420.5C 60.3416,426.222 55.5082,423.889 54.5,413.5C 55.3872,401.797 56.5539,390.13 58,378.5C 59.3968,376.93 60.8968,375.596 62.5,374.5 Z"/></g>
</svg>
