<?xml version="1.0" encoding="UTF-8"?>
<!DOCTYPE svg PUBLIC "-//W3C//DTD SVG 1.1//EN" "http://www.w3.org/Graphics/SVG/1.1/DTD/svg11.dtd">
<svg xmlns="http://www.w3.org/2000/svg" version="1.1" width="512px" height="512px" style="shape-rendering:geometricPrecision; text-rendering:geometricPrecision; image-rendering:optimizeQuality; fill-rule:evenodd; clip-rule:evenodd" xmlns:xlink="http://www.w3.org/1999/xlink">
<g><path style="opacity:0.962" fill="#d9403f" d="M 360.5,6.5 C 364.219,6.00249 367.553,6.83582 370.5,9C 414.212,44.3804 458.212,79.3804 502.5,114C 505.337,118.824 504.67,123.157 500.5,127C 494.175,127.5 487.842,127.666 481.5,127.5C 481.5,161.833 481.5,196.167 481.5,230.5C 486.179,230.334 490.845,230.501 495.5,231C 497.049,232.214 498.215,233.714 499,235.5C 499.667,247.833 499.667,260.167 499,272.5C 498.602,275.232 497.102,277.065 494.5,278C 407.5,278.667 320.5,278.667 233.5,278C 231.333,277.167 229.833,275.667 229,273.5C 228.333,260.833 228.333,248.167 229,235.5C 229.785,233.714 230.951,232.214 232.5,231C 236.821,230.501 241.154,230.334 245.5,230.5C 245.5,196.167 245.5,161.833 245.5,127.5C 239.491,127.666 233.491,127.499 227.5,127C 223.15,123.417 222.483,119.251 225.5,114.5C 270.543,78.4461 315.543,42.4461 360.5,6.5 Z M 362.5,25.5 C 366.933,28.0845 371.266,30.9178 375.5,34C 407.5,59.6667 439.5,85.3333 471.5,111C 399.833,111.667 328.167,111.667 256.5,111C 292.086,82.7208 327.42,54.2208 362.5,25.5 Z M 360.5,63.5 C 370.317,63.1488 374.817,67.8155 374,77.5C 371.24,83.2968 366.74,85.4635 360.5,84C 353.124,79.7325 351.624,73.8992 356,66.5C 357.652,65.6006 359.152,64.6006 360.5,63.5 Z M 262.5,127.5 C 268.5,127.5 274.5,127.5 280.5,127.5C 280.5,161.833 280.5,196.167 280.5,230.5C 274.5,230.5 268.5,230.5 262.5,230.5C 262.5,196.167 262.5,161.833 262.5,127.5 Z M 296.5,127.5 C 310.5,127.5 324.5,127.5 338.5,127.5C 338.5,161.833 338.5,196.167 338.5,230.5C 324.5,230.5 310.5,230.5 296.5,230.5C 296.5,196.167 296.5,161.833 296.5,127.5 Z M 354.5,127.5 C 360.833,127.5 367.167,127.5 373.5,127.5C 373.5,161.833 373.5,196.167 373.5,230.5C 367.167,230.5 360.833,230.5 354.5,230.5C 354.5,196.167 354.5,161.833 354.5,127.5 Z M 389.5,127.5 C 403.5,127.5 417.5,127.5 431.5,127.5C 431.5,161.833 431.5,196.167 431.5,230.5C 417.5,230.5 403.5,230.5 389.5,230.5C 389.5,196.167 389.5,161.833 389.5,127.5 Z M 447.5,127.5 C 453.5,127.5 459.5,127.5 465.5,127.5C 465.5,161.833 465.5,196.167 465.5,230.5C 459.5,230.5 453.5,230.5 447.5,230.5C 447.5,196.167 447.5,161.833 447.5,127.5 Z M 244.5,246.5 C 324.167,246.5 403.833,246.5 483.5,246.5C 483.5,251.833 483.5,257.167 483.5,262.5C 403.833,262.5 324.167,262.5 244.5,262.5C 244.5,257.167 244.5,251.833 244.5,246.5 Z"/></g>
<g><path style="opacity:0.962" fill="#d83f3f" d="M 169.5,19.5 C 171.989,19.2978 174.323,19.7978 176.5,21C 193.333,35.8333 210.167,50.6667 227,65.5C 229.303,70.0383 228.803,74.205 225.5,78C 208.979,92.0978 192.646,106.431 176.5,121C 172.666,123.037 168.999,122.704 165.5,120C 163.077,116.621 162.91,113.121 165,109.5C 176.167,99.6667 187.333,89.8333 198.5,80C 156.501,79.5 114.501,79.3333 72.5,79.5C 72.6667,139.168 72.5,198.834 72,258.5C 71.0183,262.624 68.3516,264.624 64,264.5C 61.0766,264.205 58.7432,262.871 57,260.5C 56.3333,196.167 56.3333,131.833 57,67.5C 57.4652,66.0692 58.2986,64.9025 59.5,64C 106.167,63.6667 152.833,63.3333 199.5,63C 188,52.8333 176.5,42.6667 165,32.5C 162.095,26.5094 163.595,22.1761 169.5,19.5 Z"/></g>
<g><path style="opacity:0.955" fill="#d93f3f" d="M 362.5,47.5 C 383.271,49.438 392.437,60.7714 390,81.5C 382.088,100.365 368.588,105.865 349.5,98C 339.122,90.8819 334.955,81.0486 337,68.5C 341.14,56.1925 349.64,49.1925 362.5,47.5 Z M 360.5,63.5 C 359.152,64.6006 357.652,65.6006 356,66.5C 351.624,73.8992 353.124,79.7325 360.5,84C 366.74,85.4635 371.24,83.2968 374,77.5C 374.817,67.8155 370.317,63.1488 360.5,63.5 Z"/></g>
<g><path style="opacity:0.962" fill="#d8403f" d="M 144.5,232.5 C 148.219,232.002 151.553,232.836 154.5,235C 197.833,269.667 241.167,304.333 284.5,339C 288.71,344.021 288.377,348.688 283.5,353C 277.509,353.499 271.509,353.666 265.5,353.5C 265.5,387.833 265.5,422.167 265.5,456.5C 269.846,456.334 274.179,456.501 278.5,457C 280.259,458.008 281.426,459.508 282,461.5C 282.667,474.167 282.667,486.833 282,499.5C 281.167,501.667 279.667,503.167 277.5,504C 190.5,504.667 103.5,504.667 16.5,504C 13.8981,503.065 12.3981,501.232 12,498.5C 11.3333,486.167 11.3333,473.833 12,461.5C 12.7845,459.714 13.9512,458.214 15.5,457C 20.1548,456.501 24.8215,456.334 29.5,456.5C 29.5,422.167 29.5,387.833 29.5,353.5C 23.1579,353.666 16.8246,353.5 10.5,353C 7.33307,349.163 6.83307,344.996 9,340.5C 54.3541,304.636 99.5208,268.636 144.5,232.5 Z M 145.5,251.5 C 148.14,251.954 150.473,253.121 152.5,255C 186.651,282.574 220.984,309.907 255.5,337C 183.5,337.667 111.5,337.667 39.5,337C 75.0862,308.721 110.42,280.221 145.5,251.5 Z M 144.5,288.5 C 156.505,289.508 160.005,295.508 155,306.5C 147.635,311.411 141.635,310.078 137,302.5C 135.595,295.639 138.095,290.973 144.5,288.5 Z M 45.5,353.5 C 51.5,353.5 57.5,353.5 63.5,353.5C 63.5,387.833 63.5,422.167 63.5,456.5C 57.5,456.5 51.5,456.5 45.5,456.5C 45.5,422.167 45.5,387.833 45.5,353.5 Z M 79.5,353.5 C 93.5,353.5 107.5,353.5 121.5,353.5C 121.5,387.833 121.5,422.167 121.5,456.5C 107.5,456.5 93.5,456.5 79.5,456.5C 79.5,422.167 79.5,387.833 79.5,353.5 Z M 137.5,353.5 C 143.833,353.5 150.167,353.5 156.5,353.5C 156.5,387.833 156.5,422.167 156.5,456.5C 150.167,456.5 143.833,456.5 137.5,456.5C 137.5,422.167 137.5,387.833 137.5,353.5 Z M 172.5,353.5 C 186.5,353.5 200.5,353.5 214.5,353.5C 214.5,387.833 214.5,422.167 214.5,456.5C 200.5,456.5 186.5,456.5 172.5,456.5C 172.5,422.167 172.5,387.833 172.5,353.5 Z M 230.5,353.5 C 236.5,353.5 242.5,353.5 248.5,353.5C 248.5,387.833 248.5,422.167 248.5,456.5C 242.5,456.5 236.5,456.5 230.5,456.5C 230.5,422.167 230.5,387.833 230.5,353.5 Z M 27.5,472.5 C 107.167,472.5 186.833,472.5 266.5,472.5C 266.5,477.833 266.5,483.167 266.5,488.5C 186.833,488.5 107.167,488.5 27.5,488.5C 27.5,483.167 27.5,477.833 27.5,472.5 Z"/></g>
<g><path style="opacity:0.961" fill="#d9403f" d="M 140.5,273.5 C 166.303,272.803 176.803,285.137 172,310.5C 165.489,323.505 154.989,328.672 140.5,326C 122.614,318.724 116.781,305.89 123,287.5C 127.27,280.714 133.104,276.048 140.5,273.5 Z M 144.5,288.5 C 138.095,290.973 135.595,295.639 137,302.5C 141.635,310.078 147.635,311.411 155,306.5C 160.005,295.508 156.505,289.508 144.5,288.5 Z"/></g>
<g><path style="opacity:0.942" fill="#d94040" d="M 423.5,292.5 C 427.587,292.294 431.087,293.627 434,296.5C 448.333,312.833 462.667,329.167 477,345.5C 479.446,350.324 478.613,354.491 474.5,358C 471.366,358.79 468.366,358.457 465.5,357C 455.667,345.833 445.833,334.667 436,323.5C 435.667,376.167 435.333,428.833 435,481.5C 434.06,484.773 431.893,486.606 428.5,487C 388.167,487.667 347.833,487.667 307.5,487C 303.094,486.208 300.761,483.541 300.5,479C 300.903,476.113 302.236,473.779 304.5,472C 342.499,471.5 380.499,471.333 418.5,471.5C 418.667,421.499 418.5,371.499 418,321.5C 407.833,333 397.667,344.5 387.5,356C 380.497,358.831 376.497,356.498 375.5,349C 375.542,347.033 376.042,345.199 377,343.5C 392.526,326.386 408.026,309.386 423.5,292.5 Z"/></g>
</svg>
