<?xml version="1.0" encoding="UTF-8"?>
<!DOCTYPE svg PUBLIC "-//W3C//DTD SVG 1.1//EN" "http://www.w3.org/Graphics/SVG/1.1/DTD/svg11.dtd">
<svg xmlns="http://www.w3.org/2000/svg" version="1.1" width="512px" height="512px" style="shape-rendering:geometricPrecision; text-rendering:geometricPrecision; image-rendering:optimizeQuality; fill-rule:evenodd; clip-rule:evenodd" xmlns:xlink="http://www.w3.org/1999/xlink">
<g><path style="opacity:0.994" fill="#d93f3f" d="M 251.5,23.5 C 256.901,22.9664 261.901,24.133 266.5,27C 336.711,61.6055 407.044,95.9388 477.5,130C 478.126,130.75 478.626,131.584 479,132.5C 479.667,150.833 479.667,169.167 479,187.5C 478.5,189.333 477.333,190.5 475.5,191C 471.514,191.499 467.514,191.666 463.5,191.5C 463.667,206.17 463.5,220.837 463,235.5C 462.5,237.333 461.333,238.5 459.5,239C 455.514,239.499 451.514,239.666 447.5,239.5C 447.5,282.167 447.5,324.833 447.5,367.5C 451.514,367.334 455.514,367.501 459.5,368C 461.333,368.5 462.5,369.667 463,371.5C 463.5,386.163 463.667,400.83 463.5,415.5C 467.514,415.334 471.514,415.501 475.5,416C 477.333,416.5 478.5,417.667 479,419.5C 479.667,438.167 479.667,456.833 479,475.5C 478.5,477.333 477.333,478.5 475.5,479C 328.833,479.667 182.167,479.667 35.5,479C 33.6667,478.5 32.5,477.333 32,475.5C 31.3333,456.833 31.3333,438.167 32,419.5C 32.5,417.667 33.6667,416.5 35.5,416C 39.4862,415.501 43.4862,415.334 47.5,415.5C 47.3334,400.83 47.5001,386.163 48,371.5C 48.5,369.667 49.6667,368.5 51.5,368C 55.4862,367.501 59.4862,367.334 63.5,367.5C 63.5,324.833 63.5,282.167 63.5,239.5C 59.4862,239.666 55.4862,239.499 51.5,239C 49.6667,238.5 48.5,237.333 48,235.5C 47.5001,220.837 47.3334,206.17 47.5,191.5C 43.4862,191.666 39.4862,191.499 35.5,191C 33.6667,190.5 32.5,189.333 32,187.5C 31.3333,169.167 31.3333,150.833 32,132.5C 32.3742,131.584 32.8742,130.75 33.5,130C 106.381,94.7253 179.047,59.2253 251.5,23.5 Z M 253.5,41.5 C 254.873,41.3433 256.207,41.51 257.5,42C 325.956,75.0612 394.289,108.395 462.5,142C 463.487,153.085 463.821,164.252 463.5,175.5C 324.833,175.5 186.167,175.5 47.5,175.5C 47.1793,164.252 47.5126,153.085 48.5,142C 116.925,108.453 185.258,74.9533 253.5,41.5 Z M 63.5,191.5 C 84.8333,191.5 106.167,191.5 127.5,191.5C 127.5,202.167 127.5,212.833 127.5,223.5C 106.167,223.5 84.8333,223.5 63.5,223.5C 63.5,212.833 63.5,202.167 63.5,191.5 Z M 143.5,191.5 C 164.833,191.5 186.167,191.5 207.5,191.5C 207.333,206.17 207.5,220.837 208,235.5C 208.5,237.333 209.667,238.5 211.5,239C 215.486,239.499 219.486,239.666 223.5,239.5C 223.5,282.167 223.5,324.833 223.5,367.5C 219.486,367.334 215.486,367.501 211.5,368C 209.667,368.5 208.5,369.667 208,371.5C 207.5,386.163 207.333,400.83 207.5,415.5C 186.167,415.5 164.833,415.5 143.5,415.5C 143.667,400.83 143.5,386.163 143,371.5C 142.5,369.667 141.333,368.5 139.5,368C 135.514,367.501 131.514,367.334 127.5,367.5C 127.5,324.833 127.5,282.167 127.5,239.5C 131.514,239.666 135.514,239.499 139.5,239C 141.333,238.5 142.5,237.333 143,235.5C 143.5,220.837 143.667,206.17 143.5,191.5 Z M 223.5,191.5 C 244.833,191.5 266.167,191.5 287.5,191.5C 287.5,202.167 287.5,212.833 287.5,223.5C 266.167,223.5 244.833,223.5 223.5,223.5C 223.5,212.833 223.5,202.167 223.5,191.5 Z M 303.5,191.5 C 324.833,191.5 346.167,191.5 367.5,191.5C 367.333,206.17 367.5,220.837 368,235.5C 368.5,237.333 369.667,238.5 371.5,239C 375.486,239.499 379.486,239.666 383.5,239.5C 383.5,282.167 383.5,324.833 383.5,367.5C 379.486,367.334 375.486,367.501 371.5,368C 369.667,368.5 368.5,369.667 368,371.5C 367.5,386.163 367.333,400.83 367.5,415.5C 346.167,415.5 324.833,415.5 303.5,415.5C 303.667,400.83 303.5,386.163 303,371.5C 302.5,369.667 301.333,368.5 299.5,368C 295.514,367.501 291.514,367.334 287.5,367.5C 287.5,324.833 287.5,282.167 287.5,239.5C 291.514,239.666 295.514,239.499 299.5,239C 301.333,238.5 302.5,237.333 303,235.5C 303.5,220.837 303.667,206.17 303.5,191.5 Z M 383.5,191.5 C 404.833,191.5 426.167,191.5 447.5,191.5C 447.5,202.167 447.5,212.833 447.5,223.5C 426.167,223.5 404.833,223.5 383.5,223.5C 383.5,212.833 383.5,202.167 383.5,191.5 Z M 79.5,239.5 C 90.1667,239.5 100.833,239.5 111.5,239.5C 111.5,282.167 111.5,324.833 111.5,367.5C 100.833,367.5 90.1667,367.5 79.5,367.5C 79.5,324.833 79.5,282.167 79.5,239.5 Z M 239.5,239.5 C 250.167,239.5 260.833,239.5 271.5,239.5C 271.5,282.167 271.5,324.833 271.5,367.5C 260.833,367.5 250.167,367.5 239.5,367.5C 239.5,324.833 239.5,282.167 239.5,239.5 Z M 399.5,239.5 C 410.167,239.5 420.833,239.5 431.5,239.5C 431.5,282.167 431.5,324.833 431.5,367.5C 420.833,367.5 410.167,367.5 399.5,367.5C 399.5,324.833 399.5,282.167 399.5,239.5 Z M 63.5,383.5 C 84.8333,383.5 106.167,383.5 127.5,383.5C 127.5,394.167 127.5,404.833 127.5,415.5C 106.167,415.5 84.8333,415.5 63.5,415.5C 63.5,404.833 63.5,394.167 63.5,383.5 Z M 223.5,383.5 C 244.833,383.5 266.167,383.5 287.5,383.5C 287.5,394.167 287.5,404.833 287.5,415.5C 266.167,415.5 244.833,415.5 223.5,415.5C 223.5,404.833 223.5,394.167 223.5,383.5 Z M 383.5,383.5 C 404.833,383.5 426.167,383.5 447.5,383.5C 447.5,394.167 447.5,404.833 447.5,415.5C 426.167,415.5 404.833,415.5 383.5,415.5C 383.5,404.833 383.5,394.167 383.5,383.5 Z M 47.5,431.5 C 186.167,431.5 324.833,431.5 463.5,431.5C 463.5,442.167 463.5,452.833 463.5,463.5C 324.833,463.5 186.167,463.5 47.5,463.5C 47.5,452.833 47.5,442.167 47.5,431.5 Z"/></g>
<g><path style="opacity:0.955" fill="#d84040" d="M 241.5,71.5 C 276.573,68.0206 306.406,78.6873 331,103.5C 332.759,113.862 328.592,117.696 318.5,115C 292.223,89.765 261.557,82.4317 226.5,93C 213.497,97.8298 202.164,105.163 192.5,115C 182.408,117.696 178.241,113.862 180,103.5C 196.88,85.8104 217.38,75.1437 241.5,71.5 Z"/></g>
<g><path style="opacity:0.954" fill="#d9403f" d="M 243.5,103.5 C 268.689,100.396 290.189,107.729 308,125.5C 310.71,134.921 307.21,139.087 297.5,138C 277.005,118.954 254.005,115.287 228.5,127C 223.5,130.667 218.5,134.333 213.5,138C 203.79,139.087 200.29,134.921 203,125.5C 214.344,114.08 227.844,106.747 243.5,103.5 Z"/></g>
<g><path style="opacity:0.954" fill="#d93f3f" d="M 246.5,135.5 C 261.446,133.105 274.28,137.105 285,147.5C 288.554,156.916 285.387,161.416 275.5,161C 271.431,157.937 267.098,155.27 262.5,153C 257.079,152.161 251.746,152.494 246.5,154C 242.833,156.333 239.167,158.667 235.5,161C 225.613,161.416 222.446,156.916 226,147.5C 231.773,141.535 238.607,137.535 246.5,135.5 Z"/></g>
</svg>
