<svg xmlns="http://www.w3.org/2000/svg" version="1.1" xmlns:xlink="http://www.w3.org/1999/xlink" width="512" height="512" x="0" y="0" viewBox="0 0 512 512" style="enable-background:new 0 0 512 512" xml:space="preserve" class=""><g transform="matrix(1,0,0,1,0,0)"><path d="M501 158H11M11 223.333h490" style="stroke-width: 11; stroke-linejoin: round; stroke-miterlimit: 10;" fill="none" stroke="#cc0000" stroke-width="11" stroke-linejoin="round" stroke-miterlimit="10" data-original="#33cccc" opacity="1"></path><path d="M370.333 354H403c18.041 0 32.667-14.625 32.667-32.667v0c0-18.041-14.625-32.667-32.667-32.667h-32.667c-18.041 0-32.667 14.625-32.667 32.667v0c.001 18.042 14.626 32.667 32.667 32.667z" style="stroke-width: 11; stroke-linecap: round; stroke-linejoin: round; stroke-miterlimit: 10;" fill="none" stroke="#cc0000" stroke-width="11" stroke-linecap="round" stroke-linejoin="round" stroke-miterlimit="10" data-original="#33cccc" opacity="1"></path><path d="M76.333 354h49M76.333 288.667h98M501 141.667c0-27.062-21.936-49-49-49H60c-27.064 0-49 21.938-49 49v228.667c0 27.062 21.936 49 49 49h392c27.064 0 49-21.938 49-49V141.667z" style="stroke-width: 11; stroke-linecap: round; stroke-linejoin: round; stroke-miterlimit: 10;" fill="none" stroke="#cc0000" stroke-width="11" stroke-linecap="round" stroke-linejoin="round" stroke-miterlimit="10" data-original="#000000" opacity="1" class=""></path></g></svg>