<?xml version="1.0" encoding="UTF-8"?>
<!DOCTYPE svg PUBLIC "-//W3C//DTD SVG 1.1//EN" "http://www.w3.org/Graphics/SVG/1.1/DTD/svg11.dtd">
<!-- Creator: CorelDRAW -->
<svg xmlns="http://www.w3.org/2000/svg" xml:space="preserve" width="101.515mm" height="35.7292mm" version="1.1" style="shape-rendering:geometricPrecision; text-rendering:geometricPrecision; image-rendering:optimizeQuality; fill-rule:evenodd; clip-rule:evenodd"
viewBox="0 0 10143.07 3569.94"
 xmlns:xlink="http://www.w3.org/1999/xlink"
 xmlns:xodm="http://www.corel.com/coreldraw/odm/2003">
 <defs>
  <style type="text/css">
   <![CDATA[
    .fil2 {fill:#27803A}
    .fil0 {fill:#CC0000}
    .fil3 {fill:#CC0000}
    .fil1 {fill:#E8661C}
   ]]>
  </style>
 </defs>
 <g id="Layer_x0020_1">
  <metadata id="CorelCorpID_0Corel-Layer"/>
  <path class="fil0" d="M4331.32 532.96l2639.4 0c-12.14,25.31 -27.28,95.95 -37.49,131.69 -14.01,49.02 -25.78,93.02 -38.65,139.01 -25.74,91.98 -54.23,185.19 -76.14,279.17 -439.89,0 -879.8,0 -1319.7,0 -449.62,0 -874.69,-8.46 -1319.7,-8.46 -12.44,25.93 -20.7,63.43 -30.17,96.71 -10.68,37.54 -18.92,66.84 -27.27,99.64 -80.38,315.96 -198.04,681.64 -275.9,993.03 -13.13,52.5 -105.71,363.07 -106.55,401.03l532.96 0c4.97,-59.76 283.46,-1007.43 287.62,-1057.45 738.81,0 1477.62,0 2216.42,0 214.58,0 371.4,-4.96 479.62,-205.61 18.03,-33.44 25.95,-69.86 36.42,-107.39 34.2,-122.61 296.08,-1034.03 296.08,-1099.75 0,-98.95 -79.8,-186.1 -177.65,-186.1l-2943.94 0c-0.71,31.93 -21.13,96.43 -30.83,129.89 -17.87,61.6 -103.57,352.34 -104.52,394.6z"/>
  <path class="fil0" d="M456.82 2664.77l2749.38 0c72.48,0 116.63,-27.33 154.56,-65.39 82.88,-83.14 86.98,-172.18 127.6,-312.3 18.14,-62.6 33.98,-117.74 49.53,-178.87l194.54 -702.18c30.26,-111.26 62.68,-226.76 96.12,-343.78l291.29 -1053.78 -532.96 0c-50.12,215.09 -159.23,563.73 -219.91,795.25l-149.39 535.84c-26.25,90.31 -51.35,173.63 -74.04,264.34 -41.42,165.68 -112.77,381.5 -148.85,536.38l-2106.44 0c1.12,-50.06 392.04,-1410.98 438.12,-1592.17 15.8,-62.13 144.59,-494.68 145.59,-539.64l-532.96 0c-4.1,49.21 -30.99,125.31 -45.3,174.64 -17.69,61.03 -31.69,114.74 -47.75,172.2l-573.11 2066.51c-11.71,69.77 -6.27,119.84 30.16,168.35 33.35,44.38 78.21,74.61 153.8,74.61z"/>
  <path class="fil0" d="M7292.19 2656.3l532.96 0 92.02 -330.94c127.72,-434.26 240.59,-885.37 367.79,-1324.13 16.76,-57.81 31.99,-113.91 46.01,-165.48 65.56,-241.02 179.25,-617.25 230.16,-835.75l-532.96 0c-25.69,110.25 -63.87,223.87 -91.28,331.69 -94.16,370.24 -226.21,784.56 -321.46,1158.96 -67.72,266.16 -159.34,556.76 -230.24,827.22 -14.78,56.4 -28.28,108.13 -45.18,166.3 -16.76,57.62 -35,117.09 -47.82,172.13z"/>
  <path class="fil1" d="M8890.99 2081.05c23.46,-42.42 58.81,-65.89 95.74,-98.92l93.89 -92.03c35.59,-32.52 69.07,-58.41 103.24,-91.63l291.22 -275.57c20.83,-18.55 28.9,-31.1 49.32,-51.9 45.2,-46.03 98.1,-77.8 143.44,-134.39 -12.05,-55.19 -147.74,-301.65 -183.6,-372.88 -29.35,-58.29 -171.27,-328.83 -178.68,-371.57l-76.14 -143.81c-31.19,-62.4 -197.54,-417.27 -228.41,-439.89 -16.35,34.06 -34.09,118.89 -47.1,164.38l-688.89 2491.92c28.6,-19.14 48.65,-44.27 74.02,-69.8 13.88,-13.97 23.43,-25.12 38.46,-37.68l355.04 -330.17c45.53,-45.77 106.47,-111.1 158.44,-146.06z"/>
  <path class="fil2" d="M9305.57 592.17c7.41,42.74 149.34,313.28 178.68,371.57 35.86,71.23 171.55,317.68 183.6,372.88 -45.34,56.59 -98.24,88.36 -143.44,134.39 -20.42,20.79 -28.49,33.34 -49.32,51.9l-291.22 275.57c-34.17,33.22 -67.65,59.11 -103.24,91.63l-93.89 92.03c-36.93,33.03 -72.28,56.49 -95.74,98.92l-152.21 575.25 1093.78 -1029.57c80.06,-66.91 107.79,-107.22 176.42,-161.96 42.62,-34.01 87.36,-96.86 134.09,-128.15 -162.44,-307 -338.81,-677.61 -499.11,-998.23 -28.21,-56.41 -56.52,-112.8 -84.53,-169.26 -15.49,-31.22 -28.97,-49.3 -45.31,-81.59 -15.14,-29.92 -23.66,-61.38 -47.81,-79.07l-160.74 583.7z"/>
  <path class="fil3" d="M3823.74 3561.48l76.14 0c7.56,-32.46 13.7,-44.95 28.16,-73.36l98.74 -214.26c1.57,70.34 59.22,224.06 59.22,296.08l25.38 0c8.54,-31.99 27.28,-46.13 45.69,-72.74 19.86,-28.71 32.6,-45.75 52.43,-74.47 18.53,-26.85 34.2,-48.82 52.88,-74.02l52.04 -74.86c-0.85,38.26 -8.46,33.61 -8.46,76.14l0 211.48 76.14 0 0 -397.6c0,-51.46 8.46,-61.71 8.46,-109.97 -26.69,17.87 -237.98,327.8 -245.33,355.29l-16.93 0c0,-84.31 -66.4,-298.52 -67.67,-355.29 -28.74,21.05 -159.85,333.5 -180.43,377.89 -19.26,41.56 -45.82,84.1 -56.44,129.67z"/>
  <path class="fil3" d="M2165.66 3485.34c14.18,-60.88 76.14,-294.91 76.14,-338.38 95.85,0 211.48,-15.87 211.48,109.97 0,76.62 -32.55,140.38 -73.62,180.17 -57.29,55.49 -108.97,48.24 -214,48.24zm-101.52 76.14c141.2,0 255.2,13.01 339.75,-49.39 159.73,-117.87 191.25,-389.86 21.82,-430.61 -67.34,-16.2 -162.42,-10.65 -243.14,-10.65l-118.43 490.65z"/>
  <path class="fil3" d="M6412.38 3561.48c91.55,0 65.01,18.82 106.59,-147.2 11.22,-44.83 36.27,-131.24 37.23,-174.26l16.92 0c10.21,38.26 152.88,206.44 187.28,252.62 26.51,35.59 46.64,69.74 74.97,77.31l118.43 -499.11 -76.14 0c-12.5,53.64 -29.43,111.65 -40.2,162.83 -10.5,49.93 -34.93,121.85 -35.94,167.09 -16.8,-12.31 -50.34,-64.37 -66.45,-85.82 -23.17,-30.83 -41.31,-55.42 -66.26,-86.01 -19.38,-23.74 -122.31,-147.96 -129.53,-175.01 -22.67,16.61 -17.47,21.34 -23.58,52.55 -17.92,91.32 -102.08,399.99 -103.31,455.02z"/>
  <path class="fil3" d="M456.82 3561.48l76.14 0 76.14 -329.92c6.75,7.77 7.37,8.37 15.07,18.77l175.8 230.26c20.04,26.65 54.91,59.4 62.92,89.36l25.38 0c0,-69.82 108.18,-418.34 109.98,-499.11 -94.89,0 -65.51,-17 -106.59,147.21 -12.34,49.32 -36.11,124.22 -37.23,174.25 -27.05,-7.22 -24.58,-15.01 -39.15,-36.99l-98.6 -129.81c-25.48,-34.15 -114.62,-153.64 -141.42,-171.58 -0.9,40.4 -17.93,86.02 -27.15,125.13l-91.28 382.44z"/>
  <path class="fil3" d="M4788.13 3561.48l76.14 0 76.14 -329.92 131.65 172.9c23.77,31.6 41.9,54.27 66.49,85.79 14.93,19.12 18.72,21.95 33.74,42.39 4.29,5.84 10.98,15.61 14.51,19.32 12.17,12.82 4.95,10.97 24.32,17.98 11.66,-24.3 25.05,-91.9 32.13,-120.14l86.3 -378.97 -76.14 0c-0.76,33.88 -64.8,297.83 -76.14,321.46l-200.4 -256.42c-24.69,-30.23 -39.38,-61.26 -70.3,-81.96 -0.86,38.48 -106.71,457.23 -118.44,507.57z"/>
  <path class="fil3" d="M7833.59 3273.86l-50.76 0c1.09,-48.77 21.53,-80.68 25.38,-126.89 54.74,0 100.42,-2.57 98.12,48.11 -2.01,44.3 -27.75,78.78 -72.74,78.78zm-203.03 287.62l76.14 0c2.86,-34.28 17.51,-77.09 25.48,-109.87 8.76,-36.01 17.05,-74.71 25.28,-110.08 9.55,10.99 3.94,2.81 14.04,19.8l95.94 200.14 93.05 0 -110.07 -219.9c167.24,-39.07 211.9,-270.75 17.02,-270.75 -138.33,0 -120.21,-45.44 -178.34,236.17 -15.71,76.07 -52.15,177.79 -58.53,254.48z"/>
  <path class="fil3" d="M-0 3443.05c0,123.04 77.19,126.81 172.01,126.89l4.68 0 4.71 0 4.73 0c124.33,0 181.51,-84.24 210.71,-178.43l76.91 -320.68 -84.59 0c-4.33,51.96 -68.9,322.89 -94.25,362.57 -56.16,87.87 -210.29,82.53 -210.29,-7.26 0,-83.78 69.97,-281.3 76.14,-355.3l-84.6 0c-1.92,86.12 -76.14,268 -76.14,372.22z"/>
  <path class="fil3" d="M1717.3 3561.48c267.09,0 276.89,26.16 279.17,-76.14l-177.65 0c0,-34.58 23.07,-129.83 33.84,-152.27l186.11 0c7.19,-86.44 73.9,-76.14 -169.2,-76.14 2.9,-34.82 17.61,-76.57 25.38,-109.97l186.11 0c5.92,-25.39 14.6,-48.19 16.92,-76.14l-270.7 0c-1.12,50.27 -108.73,434.61 -109.98,490.65z"/>
  <path class="fil3" d="M4441.29 3561.48c282.38,0 270.79,24.54 279.17,-76.14l-186.11 0c8.59,-17.9 33.24,-125.39 33.84,-152.27l194.57 0c0.86,-38.25 8.46,-33.61 8.46,-76.14l-177.65 0c2.22,-26.65 16.25,-90.94 25.38,-109.97l186.11 0c5.72,-24.57 11.19,-51.58 16.92,-76.14l-270.7 0c-2.52,30.23 -17.85,87.93 -25.28,118.53 -10,41.09 -19.53,77.64 -30.6,121.67 -12,47.72 -54.09,213.72 -54.09,250.45z"/>
  <path class="fil3" d="M9229.43 3561.48l262.25 0c5.92,-25.38 14.6,-48.19 16.92,-76.14l-186.1 0c6.72,-14.03 33.34,-129.94 33.83,-152.27l194.58 0c0.85,-38.25 8.45,-33.61 8.45,-76.14l-177.65 0c0.62,-27.83 16.45,-91.33 25.38,-109.97l186.11 0c2.33,-27.95 11,-50.76 16.92,-76.14l-270.7 0 -55.82 240.26c-12.81,51.18 -54.15,207.02 -54.15,250.39z"/>
  <path class="fil3" d="M7275.26 3561.48l270.71 0c2.32,-27.95 11,-50.75 16.92,-76.14l-186.11 0c4.31,-51.67 29.55,-100.6 33.84,-152.27l186.11 0c8.83,-18.41 16.31,-48.67 16.92,-76.14l-186.11 0c8.94,-18.62 24.76,-82.14 25.38,-109.97 191.18,0 203.03,21.17 203.03,-76.14l-262.24 0c-37.98,163 -80.46,327.65 -118.44,490.65z"/>
  <path class="fil3" d="M3324.63 3214.64c0,52.79 15,107.72 25.38,152.27l-126.89 0c16.86,-25.17 33.25,-51.55 50.82,-76.08 10.39,-14.5 15.72,-19.45 24.85,-34.36l25.85 -41.84zm-313.01 346.84l84.6 0c9.63,-36.07 64.21,-82.23 76.14,-126.89 222.14,0 187.88,-15.25 198.54,55.24 4.22,27.89 10.92,47.26 12.95,71.65l84.59 0c-1.18,-52.91 -100.34,-446.34 -101.52,-499.11 -39.12,10.45 -156.33,204.43 -182.54,240.44 -28.47,39.12 -164.85,229.06 -172.77,258.67z"/>
  <path class="fil3" d="M8781.07 3366.91c0,64.03 1.98,110.53 54.39,157.1 31.06,27.6 76.56,41.87 123.55,45.93l58.44 0c41.6,-3.53 80,-14.36 105.61,-30.22 31.32,-19.4 16.07,-4.29 25.9,-41.78 5.69,-21.64 11.1,-43.1 12.79,-63.36 -119.22,79.83 -296.08,99.14 -296.08,-67.67 0,-121.86 96,-228.41 219.95,-228.41 81.39,0 85.3,24.28 135.36,50.76 12.24,-25.51 14.21,-52.87 25.38,-76.14 -73.25,-49.05 -61.2,-50.76 -160.74,-50.76 -151.53,0 -304.55,153.01 -304.55,304.55z"/>
  <path class="fil3" d="M8578.04 3214.64c0,70.4 16.92,94.86 16.92,152.27l-118.43 0c15.79,-29.83 32.64,-48.37 50.88,-76.02l35.42 -57.63c6.38,-8.95 10.15,-12.8 15.22,-18.62zm-313.01 346.84l84.6 0c8.65,-32.4 57.24,-91.18 76.14,-126.89l186.11 0c2.99,35.99 17.32,92.29 25.38,126.89l84.59 0c-39.12,-167.93 -71.05,-340.53 -109.97,-507.57l-88.17 123.32c-31.88,43.81 -55.15,81.83 -87.11,124.39l-130.87 190.59c-17.21,25.09 -33.04,36.41 -40.71,69.27z"/>
  <path class="fil3" d="M5727.15 3223.1c0,120.1 160.74,113.52 160.74,194.57 0,86 -152.64,114.11 -160.74,16.92 -40.79,3.4 -39,16.74 -76.14,25.38 2.12,95.06 61.04,108.46 113.98,109.98l38.29 0c123.28,0 237.04,-173.09 133.23,-260.11 -39.22,-32.88 -123.72,-54.2 -120.24,-110.79 3.7,-60.25 111.4,-99.45 130.83,-26.7 32.85,-2.74 53.1,-13.19 76.14,-25.38 -12.06,-144.9 -296.09,-97.1 -296.09,76.14z"/>
  <path class="fil3" d="M2935.48 3273.86l-25.38 0c1.09,-48.77 21.53,-80.68 25.38,-126.89 50.39,0 109.98,-7.53 109.98,42.29 0,66.61 -43.03,84.6 -109.98,84.6zm-177.65 287.62l76.14 0 50.76 -219.95c85.98,0 118.17,9.7 174.27,-28.76 76.61,-52.54 135.91,-241.95 -55.83,-241.95 -163.52,0 -124.96,-15.66 -155.61,106.64l-60.95 252.05c-9.98,39.89 -27.9,92.52 -28.78,131.96z"/>
  <path class="fil3" d="M1175.89 3561.48l84.59 0c5.97,-71.61 49.17,-157.02 50.76,-228.41l194.58 0c0.85,-38.25 8.45,-33.61 8.45,-76.14l-177.65 0c1.04,-46.28 16.93,-59.64 16.93,-109.97l194.57 0c2.33,-27.95 11,-50.76 16.92,-76.14l-270.7 0c-19.29,82.83 -41.89,165.43 -58.52,246.01 -9.29,45 -18.05,77.21 -29.47,122.82 -7.42,29.67 -21.37,102.9 -30.44,121.82z"/>
  <path class="fil3" d="M8002.79 3561.48c103.85,0 71.86,16.76 103.21,-108.27 7.07,-28.22 20.48,-95.85 32.13,-120.14l186.11 0c7.19,-86.44 73.9,-76.14 -169.19,-76.14 2.9,-34.82 17.6,-76.57 25.38,-109.97l186.1 0c5.92,-25.39 14.6,-48.19 16.93,-76.14l-270.71 0c-0.83,37.28 -16.92,84.8 -25.38,118.42l-84.59 372.23z"/>
  <path class="fil3" d="M3578.41 3561.48c103.49,0 70.73,22.28 111.68,-142.1 28.2,-113.19 8.49,-66.56 63.44,-131.14l180.19 -217.41 -84.6 0c-10.19,38.17 -140.99,152.35 -152.27,194.57l-16.92 0c-1.36,-60.94 -54.56,-138.6 -59.22,-194.57l-84.59 0c3.37,40.52 23.65,77.86 37,115.27 15.12,42.37 26.66,75.55 43.32,118.01 27.81,70.87 -36.12,171.82 -38.03,257.37z"/>
  <path class="fil3" d="M7114.53 3146.96c-15.35,65.84 -32.88,140.74 -49.04,204.75l-52.48 209.76 84.59 0c16.22,-69.57 32.94,-139.42 49.14,-204.64 13.85,-55.71 32.56,-168.57 52.38,-209.87l118.44 0c10.96,-22.86 16.92,-40.8 16.92,-76.14l-329.92 0c-6.66,80.06 -60.38,76.14 109.98,76.14z"/>
  <path class="fil3" d="M5371.85 3146.96l118.44 0c-0.75,33.61 -12.62,70.3 -20.49,106.4l-72.57 308.11 84.6 0c0.75,-33.61 12.62,-70.3 20.49,-106.4l72.56 -308.11 126.89 0c5.92,-25.39 14.6,-48.19 16.93,-76.14 -70.5,0 -141,0.05 -211.49,0 -110.82,-0.08 -126.78,-26.87 -135.36,76.14z"/>
  <path class="fil3" d="M989.77 3561.48l84.6 0 55.88 -240.2c11.15,-44.36 18.42,-82.75 28.71,-123.57 9.61,-38.17 25.38,-82.02 25.38,-126.88l-76.14 0c-37.8,162.24 -80.53,327.98 -118.43,490.65z"/>
  <path class="fil3" d="M6226.28 3561.48l76.14 0c38.23,-164.12 80.55,-328.08 118.43,-490.65l-84.6 0c-4.7,56.5 -109.97,426.61 -109.97,490.65z"/>
  <path class="fil3" d="M1531.19 3561.48l76.14 0c37.9,-162.69 80.34,-327.16 118.43,-490.65l-84.6 0c-6.43,77.36 -109.97,424.13 -109.97,490.65z"/>
  <polygon class="fil2" points="8738.78,2656.3 8730.32,2656.3 8737.37,2666.18 "/>
 </g>
</svg>
