<?xml version="1.0" encoding="UTF-8"?>
<!DOCTYPE svg PUBLIC "-//W3C//DTD SVG 1.1//EN" "http://www.w3.org/Graphics/SVG/1.1/DTD/svg11.dtd">
<svg xmlns="http://www.w3.org/2000/svg" version="1.1" width="512px" height="512px" style="shape-rendering:geometricPrecision; text-rendering:geometricPrecision; image-rendering:optimizeQuality; fill-rule:evenodd; clip-rule:evenodd" xmlns:xlink="http://www.w3.org/1999/xlink">
<g><path style="opacity:0.958" fill="#d93f3f" d="M 281.5,-0.5 C 286.5,-0.5 291.5,-0.5 296.5,-0.5C 348.607,34.3961 400.607,69.5627 452.5,105C 461.107,112.831 463.607,122.331 460,133.5C 452.539,145.591 444.706,157.424 436.5,169C 450.286,168.132 459.786,173.965 465,186.5C 465.909,192.486 466.743,198.486 467.5,204.5C 473.531,209.043 477.364,215.043 479,222.5C 479.5,247.831 479.667,273.164 479.5,298.5C 485.865,297.901 491.865,299.068 497.5,302C 500.106,303.938 501.939,306.438 503,309.5C 503.667,339.5 503.667,369.5 503,399.5C 498.06,408.995 490.226,412.661 479.5,410.5C 479.667,435.836 479.5,461.169 479,486.5C 475.419,498.912 467.586,507.245 455.5,511.5C 314.167,511.5 172.833,511.5 31.5,511.5C 19.8512,507.35 12.0179,499.35 8,487.5C 7.33333,399.167 7.33333,310.833 8,222.5C 10.3005,212.566 15.9672,205.232 25,200.5C 24.4529,190.551 27.6196,182.051 34.5,175C 37.5544,172.806 40.8878,171.139 44.5,170C 52.8267,169.5 61.16,169.334 69.5,169.5C 73.0627,131.144 76.896,92.8109 81,54.5C 84.8524,43.6497 92.519,37.6497 104,36.5C 141.811,40.4311 179.644,44.2644 217.5,48C 226.076,48.9785 228.576,53.4785 225,61.5C 222.413,63.0138 219.58,63.6804 216.5,63.5C 178.184,59.4681 139.85,55.9681 101.5,53C 99.714,53.7845 98.214,54.9512 97,56.5C 91.5086,103.414 86.6752,150.414 82.5,197.5C 85.1667,197.5 87.8333,197.5 90.5,197.5C 93.3423,165.742 96.8423,134.075 101,102.5C 102.141,100.391 103.641,98.5578 105.5,97C 110.659,94.5879 115.659,91.9212 120.5,89C 125.867,83.9682 130.867,78.6349 135.5,73C 138.754,71.158 142.254,70.3246 146,70.5C 166.232,72.1731 186.399,74.3398 206.5,77C 209.394,79.9087 210.227,83.4087 209,87.5C 207.196,90.8171 204.363,92.1504 200.5,91.5C 181.537,89.2032 162.537,87.7032 143.5,87C 136.241,97.5469 126.741,105.38 115,110.5C 111.902,139.481 109.069,168.481 106.5,197.5C 118.186,197.832 129.852,197.499 141.5,196.5C 184.971,132.529 228.638,68.6961 272.5,5C 275.564,3.1412 278.564,1.30787 281.5,-0.5 Z M 286.5,14.5 C 288.989,14.2978 291.323,14.7978 293.5,16C 342.327,49.5807 391.327,82.914 440.5,116C 445.422,119.107 446.922,123.274 445,128.5C 429.695,151.304 414.195,173.971 398.5,196.5C 395.216,197.657 391.882,197.824 388.5,197C 397.091,184.749 405.257,172.249 413,159.5C 413.667,156.167 413.667,152.833 413,149.5C 407.17,138.234 404.837,126.234 406,113.5C 405,111.5 404,109.5 403,107.5C 376.442,88.6097 349.608,70.1097 322.5,52C 319.086,50.0627 315.419,48.896 311.5,48.5C 305.187,50.6531 298.853,52.8198 292.5,55C 285.5,55.3333 278.5,55.6667 271.5,56C 268.379,56.7261 265.713,58.2261 263.5,60.5C 232.5,105.833 201.5,151.167 170.5,196.5C 167.216,197.657 163.882,197.824 160.5,197C 199.704,140.093 238.538,82.9264 277,25.5C 279.722,21.3477 282.888,17.681 286.5,14.5 Z M 310.5,64.5 C 338.087,81.6394 365.087,99.806 391.5,119C 389.591,130.714 391.424,141.88 397,152.5C 397.667,153.833 397.667,155.167 397,156.5C 387.957,170.087 378.79,183.587 369.5,197C 361.479,197.832 353.479,197.665 345.5,196.5C 339.385,162.385 319.052,144.052 284.5,141.5C 257.601,142.911 238.767,155.911 228,180.5C 226.037,186.016 224.87,191.683 224.5,197.5C 212.814,197.832 201.148,197.499 189.5,196.5C 217.862,155.304 246.029,113.97 274,72.5C 281.47,71.8229 288.97,70.9895 296.5,70C 301.612,69.0239 306.278,67.1906 310.5,64.5 Z M 275.5,157.5 C 305.228,155.251 323.228,168.584 329.5,197.5C 299.833,197.5 270.167,197.5 240.5,197.5C 243.656,176.68 255.323,163.346 275.5,157.5 Z M 50.5,184.5 C 56.1667,184.5 61.8333,184.5 67.5,184.5C 67.5328,188.869 67.1995,193.202 66.5,197.5C 58.1667,197.5 49.8333,197.5 41.5,197.5C 41.0573,190.633 44.0573,186.299 50.5,184.5 Z M 425.5,184.5 C 432.257,184.123 438.924,184.623 445.5,186C 449.493,188.819 451.16,192.653 450.5,197.5C 439.495,197.667 428.495,197.5 417.5,197C 420.39,192.95 423.057,188.783 425.5,184.5 Z M 34.5,213.5 C 173.834,213.333 313.167,213.5 452.5,214C 456.948,216.114 460.448,219.281 463,223.5C 464.381,232.432 464.881,241.432 464.5,250.5C 317.167,250.5 169.833,250.5 22.5,250.5C 22.3336,242.493 22.5003,234.493 23,226.5C 25.273,220.73 29.1063,216.397 34.5,213.5 Z M 22.5,265.5 C 169.833,265.5 317.167,265.5 464.5,265.5C 464.5,276.5 464.5,287.5 464.5,298.5C 440.498,298.333 416.498,298.5 392.5,299C 367.189,301.309 350.356,314.476 342,338.5C 335.585,366.603 344.418,388.436 368.5,404C 374.51,407.003 380.843,409.003 387.5,410C 413.165,410.5 438.831,410.667 464.5,410.5C 464.5,421.5 464.5,432.5 464.5,443.5C 344.833,443.333 225.166,443.5 105.5,444C 100.465,447.013 99.2981,451.18 102,456.5C 102.903,457.701 104.069,458.535 105.5,459C 225.166,459.5 344.833,459.667 464.5,459.5C 464.91,468.25 464.41,476.916 463,485.5C 460.668,491.164 456.501,494.664 450.5,496C 312.5,496.667 174.5,496.667 36.5,496C 30.4991,494.664 26.3324,491.164 24,485.5C 22.5901,476.916 22.0901,468.25 22.5,459.5C 36.1707,459.667 49.8374,459.5 63.5,459C 69.2542,456.312 70.5875,452.145 67.5,446.5C 66.3349,445.416 65.0016,444.583 63.5,444C 49.8374,443.5 36.1707,443.333 22.5,443.5C 22.5,384.167 22.5,324.833 22.5,265.5 Z M 389.5,314.5 C 422.168,314.333 454.835,314.5 487.5,315C 488.827,341.434 488.827,367.934 487.5,394.5C 456.875,395.659 426.209,395.825 395.5,395C 374.805,393.304 361.639,382.471 356,362.5C 354.129,337.202 365.296,321.202 389.5,314.5 Z M 392.5,340.5 C 407.328,340.154 413.162,347.154 410,361.5C 402.068,371.619 393.735,371.952 385,362.5C 381.02,352.941 383.52,345.607 392.5,340.5 Z"/></g>
<g><path style="opacity:0.957" fill="#d93f3f" d="M 392.5,324.5 C 413.251,324.027 424.918,334.027 427.5,354.5C 424.763,376.406 412.43,386.239 390.5,384C 372.736,378.326 365.236,366.159 368,347.5C 371.865,335.132 380.032,327.465 392.5,324.5 Z M 392.5,340.5 C 383.52,345.607 381.02,352.941 385,362.5C 393.735,371.952 402.068,371.619 410,361.5C 413.162,347.154 407.328,340.154 392.5,340.5 Z"/></g>
</svg>
