<svg xmlns="http://www.w3.org/2000/svg" version="1.1" xmlns:xlink="http://www.w3.org/1999/xlink" width="512" height="512" x="0" y="0" viewBox="0 0 54 60" style="enable-background:new 0 0 512 512" xml:space="preserve"><g><path d="M15 17a4 4 0 1 0 8 0 4 4 0 0 0-8 0zm6 0a2 2 0 1 1-4 0 2 2 0 0 1 4 0z" fill="#cc0000" opacity="1" data-original="#000000"></path><path d="m1.28 25.59-.69.69a2 2 0 0 0 .33 3.09l1.86 1.28a2 2 0 0 0-1.11 2.88 6.12 6.12 0 0 0 3.4 2.25A2.88 2.88 0 0 0 9 34l.37.37c0 1.89.29 8.34 2.1 12 2 3.92 4.9 7.88 4.9 10.53a2.82 2.82 0 0 0 2.96 3.1 2.1 2.1 0 0 0 2.12-1.14c.71-1.55 1.92-.47 2.93-1.82a1.86 1.86 0 0 0 .34-1.44 6.52 6.52 0 0 1 .69-2.83c1.14-3 1.48-4.62 0-8.35 3.36-2.24 6.17-5.27 11.44-10.53.93-.92.29-2 1.24-2.92a2.3 2.3 0 0 1 1 0 2.23 2.23 0 0 0 2.21-2.85A13.65 13.65 0 0 0 38.64 24l-.31-.23.92-.79v-.1l1.3.81a2 2 0 0 0 1.59.09l.88-.44-.55 1.57a2 2 0 0 0 1 2.24l2.27 1.48a2 2 0 0 0 2.88-1.05c.54-1.51 1.8-5.28 1.8-7.66 0-1.28 1.31-1.79 2.09-2A2 2 0 0 0 54 16v-1.8a2.8 2.8 0 0 0-1-2.41c-.95-.77-3.33-1.57-6.21.34-3.16 2.11-3 4.95-5.5 5.78a.56.56 0 0 1-.33 0c-.45-.23-.82-1.88-1.16-2.72a2 2 0 0 0-3.21-.72l-1.44 1.24a2 2 0 0 0-.38 2.31c.06.11.09.14.55.78L34.1 20l-1.58-.47a2 2 0 0 0-2.37 1 .26.26 0 0 1-.34.11l-2.37-1.29a8.08 8.08 0 0 0 .56-2.69 8.75 8.75 0 0 0-7.18-8.48 9.14 9.14 0 0 1 1.6-1.91 2 2 0 0 0 .3-2.57l-1-1.52a2 2 0 0 0-2.56-.68l-2.58 1.27-2.2-2.19A2 2 0 0 0 13 0H9.54a2 2 0 0 0-1.66.89L6.73 2.6a2 2 0 0 0-.3 1.51c.2 1 .72 1.17 2.29 2.25l-.12.23a2 2 0 0 0 .6 2.5l2.87 2.1a8.53 8.53 0 0 0-1.6 2.81l-3.42 4.63-.59-.38a2 2 0 0 0-2.66.62c-.06.08-.08.14-1.11 2.16a2 2 0 0 0 0 2.16l1.7 2.22-1.25-.37a2 2 0 0 0-1.86.55zM26 16.66c0 2-2.43 6.54-6.49 12.1a.62.62 0 0 1-1 0C14.47 23.2 12 18.67 12 16.66A6.83 6.83 0 0 1 19 10a6.83 6.83 0 0 1 7 6.66zM19 34a4 4 0 0 1-3.45-6c.46.66.92 1.3 1.37 1.91a2.62 2.62 0 0 0 4.21 0c.43-.6.89-1.23 1.34-1.88A4 4 0 0 1 19 34zM9.84 4.7l-1.45-1L9.54 2H13l2.2 2.19a2 2 0 0 0 2.31.37l2.57-1.27 1 1.5A10 10 0 0 0 18.66 8a9 9 0 0 0-5.1 1.78l-3.16-2.3.11-.23a2 2 0 0 0-.67-2.55zM6 26.61a2 2 0 0 0 .05-2.3c-1.86-2.46-1.67-2.17-1.6-2.31l1-2 .58.38a2 2 0 0 0 2.63-.58l1.49-2c.48 2.31 2.22 5.46 4.18 8.45a6 6 0 1 0 9.33 0 46.43 46.43 0 0 0 3-5.15l2.19 1.19a2.3 2.3 0 0 0 3.09-.92l1.6.48a2 2 0 0 0 1.92-.47l1.33-1.16a2 2 0 0 0 .29-2.45l-.46-.64L38 16c.44 1.1.71 3.05 2.1 3.76a2.36 2.36 0 0 0 1.9.04c3.46-1.14 3.2-4.15 6-6 1.91-1.27 3.34-.85 3.83-.46.27.22.21.26.24 2.69-2.27.54-3.62 2-3.62 3.92 0 2.12-1.29 5.87-1.69 7l-2.21-1.44c-.1-.08-.33.62.42-1.53a2 2 0 0 0-2.62-2.36l-.86.34-1.22-.77a2 2 0 0 0-2.25.32l-1 .85a2 2 0 0 0-.18 2.64 14 14 0 0 1 2.55 3.7.4.4 0 0 1-.13.27 3.08 3.08 0 0 0-2.59.55 4.63 4.63 0 0 0-1.26 2.95c-4.94 4.92-8 8.19-11.14 10.28a2 2 0 0 0-.77 2.31 10.32 10.32 0 0 1 .89 3.8c0 2.24-2 4.7-1.65 7A3.56 3.56 0 0 0 19.67 58c-1 .13-1.28-.21-1.28-1.13 0-3.34-3.08-7.37-5.11-11.42-1.66-3.32-1.87-9.83-1.89-11.1A2 2 0 0 0 10.8 33l-.37-.37a2 2 0 0 0-3.29.73c-.23.6-.52.87-1.44.56a4.56 4.56 0 0 1-2.29-1.33A2 2 0 0 0 3.86 29L2 27.69l.65-.7 1.26.37A2 2 0 0 0 6 26.61z" fill="#cc0000" opacity="1" data-original="#000000"></path></g></svg>