<?xml version="1.0" encoding="UTF-8"?>
<svg xmlns="http://www.w3.org/2000/svg" width="88" height="100" viewBox="0 0 88 100" fill="none">
  <path d="M40.3418 -6.10352e-05V39.9181V79.8363L0.423618 39.9181L40.3418 -6.10352e-05Z" fill="#FFDFDF"></path>
  <g clip-path="url(#clip0_629_34896)">
    <path d="M65.5497 65.6739C65.2799 65.4041 64.9056 65.2488 64.524 65.2488C64.1425 65.2488 63.7682 65.4041 63.4983 65.6739C63.2285 65.9438 63.0732 66.3181 63.0732 66.6996C63.0732 67.0812 63.2285 67.4555 63.4983 67.7253C63.7682 67.9952 64.1425 68.1504 64.524 68.1504C64.9056 68.1504 65.2799 67.9952 65.5497 67.7253C65.8196 67.4555 65.9748 67.0812 65.9748 66.6996C65.9748 66.3181 65.8196 65.9438 65.5497 65.6739Z" fill="#CC0000"></path>
    <path d="M57.1572 76.9216C58.5345 75.3941 59.3747 73.373 59.3747 71.1591V62.2209C59.3747 61.4196 58.7252 60.7701 57.9239 60.7701H49.0503C45.2432 60.7701 42.1458 63.8675 42.1458 67.6745V71.1591C42.1458 73.373 42.9859 75.3941 44.3633 76.9216C38.0221 77.4696 33.0283 82.8028 33.0283 89.2836V97.8915C33.0283 98.6928 33.6778 99.3423 34.4791 99.3423H67.0414C67.8426 99.3423 68.4921 98.6928 68.4921 97.8915V89.2836C68.4921 82.8028 63.4984 77.4696 57.1572 76.9216ZM45.0473 67.6743C45.0473 65.4671 46.843 63.6715 49.0503 63.6715H56.4731V71.159C56.4731 74.3091 53.9103 76.8717 50.7602 76.8717C47.6101 76.8717 45.0473 74.3089 45.0473 71.159V67.6743ZM65.5906 96.4407H35.9299V89.2836C35.9299 84.0396 40.1962 79.7734 45.4401 79.7734H56.0803C61.3243 79.7734 65.5904 84.0396 65.5904 89.2836V89.477H54.3205C53.5192 89.477 52.8697 90.1265 52.8697 90.9278C52.8697 91.729 53.5192 92.3786 54.3205 92.3786H65.5906V96.4407Z" fill="#CC0000"></path>
    <path d="M87.8816 48.4742C87.8816 43.7793 84.443 39.874 79.9524 39.14C80.7485 38.0397 81.2196 36.6895 81.2196 35.2307V26.513C81.2196 25.7117 80.5701 25.0622 79.7688 25.0622H73.285C70.2877 25.0622 67.8492 27.5007 67.8492 30.498V35.2307C67.8492 36.6896 68.3203 38.0397 69.1165 39.14C66.391 39.5854 64.0547 41.1992 62.638 43.449C61.2213 41.1991 58.885 39.5854 56.1595 39.14C56.9557 38.0397 57.4268 36.6895 57.4268 35.2307V26.513C57.4268 25.7117 56.7773 25.0622 55.976 25.0622H49.4922C46.4949 25.0622 44.0564 27.5007 44.0564 30.498V35.2307C44.0564 36.6896 44.5274 38.0397 45.3236 39.14C42.5982 39.5854 40.2619 41.1992 38.8452 43.449C37.4285 41.1991 35.0921 39.5854 32.3667 39.14C33.1629 38.0397 33.634 36.6895 33.634 35.2307V26.513C33.634 25.7117 32.9844 25.0622 32.1832 25.0622H25.6993C22.702 25.0622 20.2636 27.5007 20.2636 30.498V35.2307C20.2636 36.6896 20.7346 38.0397 21.5308 39.14C17.0402 39.874 13.6016 43.7793 13.6016 48.4742V52.7721C13.6016 53.127 13.7294 53.4517 13.9409 53.7038C13.7233 54.1958 13.6016 54.7394 13.6016 55.311V64.1608C13.6016 66.3607 15.3912 68.1504 17.5912 68.1504H36.7658C37.567 68.1504 38.2165 67.5009 38.2165 66.6996C38.2165 65.8984 37.567 65.2489 36.7658 65.2489H17.5912C16.9912 65.2489 16.5031 64.7608 16.5031 64.1608V55.311C16.5031 54.711 16.9912 54.2229 17.5912 54.2229H38.8452H62.638H83.892C84.492 54.2229 84.98 54.711 84.98 55.311V64.1608C84.98 64.7608 84.492 65.2489 83.892 65.2489H70.0966C69.2953 65.2489 68.6458 65.8984 68.6458 66.6996C68.6458 67.5009 69.2953 68.1504 70.0966 68.1504H83.892C86.0919 68.1504 87.8816 66.3607 87.8816 64.1608V55.311C87.8816 54.7394 87.7599 54.1958 87.5423 53.7038C87.7538 53.4517 87.8816 53.127 87.8816 52.7721V48.4742ZM23.1651 30.498C23.1651 29.1006 24.302 27.9638 25.6993 27.9638H30.7324V29.7307C30.7324 30.5971 30.0276 31.3019 29.1612 31.3019H23.1651V30.498ZM23.1651 34.2033H29.1613C29.7141 34.2033 30.2433 34.1019 30.7325 33.9176V35.2307H30.7324C30.7324 37.3169 29.035 39.0144 26.9488 39.0144C24.8625 39.0144 23.1651 37.3169 23.1651 35.2307V34.2033ZM27.8841 41.9159L26.9488 42.8512L26.0134 41.9159H27.8841ZM37.3944 51.3213H17.5912H16.5031V48.4742C16.5031 45.2202 18.8856 42.5134 21.9977 42.0036L25.9229 45.9288C26.1949 46.2008 26.564 46.3537 26.9488 46.3537C27.3335 46.3537 27.7026 46.2008 27.9746 45.9288L31.9 42.0034C35.0119 42.5134 37.3944 45.2201 37.3944 48.474V51.3213ZM46.9579 30.498C46.9579 29.1006 48.0948 27.9638 49.4922 27.9638H54.5252V29.7307C54.5252 30.5971 53.8204 31.3019 52.954 31.3019H46.9579V30.498ZM46.9579 34.2033H52.9542C53.5069 34.2033 54.0362 34.1019 54.5254 33.9176V35.2307H54.5252C54.5252 37.3169 52.8278 39.0144 50.7416 39.0144C48.6554 39.0144 46.9579 37.3169 46.9579 35.2307V34.2033ZM51.6769 41.9159L50.7416 42.8512L49.8063 41.9159H51.6769ZM61.1872 51.3213H40.2959V48.4742C40.2959 45.2202 42.6784 42.5134 45.7905 42.0036L49.7157 45.9288C49.9878 46.2008 50.3568 46.3537 50.7416 46.3537C51.1263 46.3537 51.4954 46.2008 51.7674 45.9288L55.6928 42.0034C58.8047 42.5134 61.1872 45.2201 61.1872 48.474V51.3213ZM70.7508 30.498C70.7508 29.1006 71.8876 27.9638 73.285 27.9638H78.318V29.7307C78.318 30.5971 77.6133 31.3019 76.7468 31.3019H70.7508V30.498ZM70.7508 34.2033H76.747C77.2997 34.2033 77.829 34.1019 78.3182 33.9176V35.2307H78.318C78.318 37.3169 76.6206 39.0144 74.5344 39.0144C72.4482 39.0144 70.7508 37.3169 70.7508 35.2307V34.2033ZM75.4697 41.9159L74.5344 42.8512L73.5991 41.9159H75.4697ZM84.98 51.3213H83.892H64.0888V48.4742C64.0888 45.2202 66.4712 42.5134 69.5833 42.0036L73.5086 45.9288C73.7806 46.2008 74.1497 46.3537 74.5344 46.3537C74.9192 46.3537 75.2882 46.2008 75.5603 45.9288L79.4856 42.0034C82.5976 42.5134 84.98 45.2201 84.98 48.474V51.3213Z" fill="#CC0000"></path>
    <path d="M49.8808 89.902C49.6109 89.6322 49.2366 89.4769 48.8551 89.4769C48.4735 89.4769 48.0992 89.6322 47.8294 89.902C47.5595 90.1719 47.4043 90.5462 47.4043 90.9277C47.4043 91.3093 47.5595 91.6836 47.8294 91.9534C48.0992 92.2233 48.4735 92.3785 48.8551 92.3785C49.2366 92.3785 49.6109 92.2233 49.8808 91.9534C50.1506 91.6836 50.3059 91.3093 50.3059 90.9277C50.3059 90.5462 50.1506 90.1719 49.8808 89.902Z" fill="#CC0000"></path>
  </g>
  <defs>
    <clipPath id="clip0_629_34896">
      <rect width="74.28" height="74.28" fill="white" transform="translate(13.6016 25.0622)"></rect>
    </clipPath>
  </defs>
</svg>
