<?xml version="1.0" encoding="UTF-8"?>
<svg xmlns="http://www.w3.org/2000/svg" width="90" height="94" viewBox="0 0 90 94" fill="none">
  <rect x="0.425781" width="56.4528" height="56.4528" fill="#FFDFDF"></rect>
  <g clip-path="url(#clip0_629_34858)">
    <path d="M84.7008 45.3621C86.0431 43.2054 87.1332 40.6256 87.2497 37.8344C87.3446 35.5615 86.5039 33.3144 84.9428 31.6693C83.4021 30.0458 81.3321 29.1383 79.1143 29.1143C79.0836 29.1141 79.0535 29.1139 79.0229 29.1139C77.0702 29.1139 75.2226 29.7903 73.7421 31.0326C67.6639 26.3429 60.1236 23.7685 52.4223 23.7685C47.3954 23.7685 42.3956 24.866 37.856 26.9483C37.689 25.058 36.8884 23.2504 35.5769 21.8683C34.0362 20.2446 31.9662 19.3374 29.7486 19.3134C29.7175 19.313 29.6875 19.3129 29.6569 19.3129C27.4734 19.3129 25.4199 20.1564 23.8658 21.6937C22.2899 23.2526 21.4219 25.3322 21.4219 27.5488C21.4219 31.2128 23.1417 34.541 25.0013 37.069C22.8195 39.833 21.0774 42.8911 19.8185 46.1699C19.6035 46.7302 19.8834 47.3587 20.4434 47.5738C20.5716 47.6228 20.7031 47.6462 20.8326 47.6462C21.2693 47.6462 21.6813 47.3809 21.8473 46.9488C22.9582 44.0554 24.4711 41.345 26.3511 38.8751C26.3252 39.131 26.3085 39.3886 26.3085 39.645V44.9247C26.3085 45.9647 26.8809 46.9101 27.8025 47.3923C28.21 47.6056 28.6529 47.7109 29.0944 47.7109C29.6509 47.7109 30.2051 47.5431 30.6817 47.2123L34.5762 44.5083C35.666 43.7517 36.9433 43.3517 38.2703 43.3517H43.2825C45.2265 43.3517 47.0542 42.5947 48.429 41.2201L53.375 36.2741C55.0368 34.6121 55.1287 31.9228 53.5837 30.1512L51.1753 27.3897C50.8357 27.0003 50.6989 26.4807 50.7803 25.9863C51.3269 25.9588 51.8743 25.9416 52.4223 25.9416C59.5824 25.9416 66.5931 28.3155 72.2666 32.6413C71.3068 34.0122 70.7881 35.6397 70.7881 37.35C70.7881 38.8558 71.0803 40.3039 71.5515 41.6642C71.2311 44.028 71.5771 46.4264 72.5547 48.6034L74.6688 53.3101C75.801 55.8305 78.318 57.4593 81.0813 57.4593C82.4835 57.4593 83.8398 57.0457 85.0033 56.2636L85.0706 56.2183C85.1308 57.0341 85.1613 57.8551 85.1613 58.6809C85.1613 76.7334 70.4746 91.4201 52.4221 91.4201C34.3696 91.4201 19.6829 76.7331 19.6829 58.6806C19.6829 56.1469 19.9732 53.6236 20.5458 51.1806C20.6828 50.5962 20.3202 50.0117 19.736 49.8748C19.1518 49.7371 18.567 50.1002 18.4301 50.6846C17.8194 53.29 17.5098 55.9804 17.5098 58.6807C17.5098 68.0062 21.1414 76.7734 27.7355 83.3675C34.3294 89.9614 43.0966 93.5929 52.4221 93.5929C61.7476 93.5929 70.5148 89.9614 77.1088 83.3674C83.7029 76.7733 87.3344 68.0059 87.3344 58.6806C87.3344 54.0658 86.4469 49.5875 84.7008 45.3621ZM25.3942 23.2385C26.5381 22.1068 28.0498 21.486 29.6576 21.486C29.6799 21.486 29.7024 21.4861 29.7249 21.4864C31.3495 21.5038 32.8679 22.1706 34.0004 23.364C35.159 24.585 35.7831 26.2538 35.7126 27.9428C35.5105 32.7847 31.6189 37.143 29.955 38.7918C29.7912 38.9541 29.5249 38.9544 29.3619 38.7928C27.6281 37.0746 23.5951 32.5395 23.5951 27.5488C23.5951 25.917 24.234 24.3863 25.3942 23.2385ZM49.5374 28.8178L51.946 31.5795C52.7426 32.4931 52.6954 33.8802 51.8382 34.7373L46.8922 39.6833C45.928 40.6476 44.6461 41.1786 43.2825 41.1786H38.2703C36.4983 41.1786 34.7923 41.7128 33.3369 42.7233L29.4424 45.4271C29.1681 45.618 28.9088 45.5183 28.8099 45.4667C28.7113 45.415 28.4819 45.2588 28.4819 44.9247V40.8037C28.8499 40.99 29.2537 41.0845 29.6579 41.0845C30.3194 41.0845 30.9811 40.8348 31.485 40.3356C33.5807 38.2586 37.0004 34.2204 37.7461 29.4113C41.1278 27.7138 44.8129 26.6138 48.5883 26.1685C48.5653 27.1208 48.8886 28.0737 49.5374 28.8178ZM79.0236 31.2869C79.046 31.2869 79.0685 31.287 79.0908 31.2873C80.7155 31.3047 82.2339 31.9717 83.3664 33.1651C84.525 34.3861 85.1491 36.0549 85.0786 37.7437C84.8765 42.5856 80.985 46.9439 79.321 48.5928C79.1573 48.7552 78.8909 48.7555 78.728 48.5939C76.9941 46.8755 72.9613 42.3404 72.9613 37.3499C72.9613 35.718 73.6002 34.1872 74.7604 33.0394C75.9042 31.9078 77.4157 31.2869 79.0236 31.2869ZM83.7908 54.4598C82.9869 55.0002 82.05 55.2859 81.0813 55.2859C79.1723 55.2859 77.4333 54.1606 76.6512 52.4193L74.5371 47.7127C74.352 47.3003 74.1954 46.8782 74.0652 46.4493C75.1371 47.9723 76.2854 49.2329 77.1983 50.1375C77.7015 50.636 78.3624 50.8852 79.0235 50.8852C79.6851 50.8852 80.3468 50.6355 80.8506 50.1363C81.5386 49.4546 82.3693 48.5602 83.2015 47.4979C83.9443 49.5387 84.478 51.6382 84.7989 53.782L83.7908 54.4598Z" fill="#CC0000"></path>
    <path d="M79.0242 42.2031C81.5524 42.2031 83.609 40.1463 83.609 37.6183C83.609 35.0903 81.5522 33.0336 79.0242 33.0336C76.4961 33.0336 74.4395 35.0903 74.4395 37.6183C74.4395 40.1463 76.4961 42.2031 79.0242 42.2031ZM79.0242 35.2066C80.354 35.2066 81.4359 36.2884 81.4359 37.6182C81.4359 38.948 80.354 40.0298 79.0242 40.0298C77.6944 40.0298 76.6126 38.948 76.6126 37.6182C76.6126 36.2884 77.6944 35.2066 79.0242 35.2066Z" fill="#CC0000"></path>
    <path d="M62.4578 43.0715C60.9171 41.4478 58.8472 40.5404 56.6294 40.5164C56.5987 40.5161 56.5686 40.516 56.538 40.516C54.3546 40.516 52.301 41.3595 50.7469 42.8969C49.5718 44.0594 48.791 45.5115 48.4695 47.0938C45.9739 46.9855 43.5532 48.1442 42.0818 50.2229L38.4309 55.3801C37.0061 57.3926 36.8287 60.001 37.9284 62.1717C37.464 63.2129 37.2177 64.3489 37.2177 65.5244C37.2177 70.3107 40.1513 74.5228 42.4987 77.1272L42.2623 83.5503C42.206 85.082 42.9178 86.5273 44.1663 87.4163C44.9521 87.9759 45.8761 88.256 46.8007 88.256C47.7074 88.2559 48.6147 87.9863 49.3916 87.4466L59.3933 80.4982C60.9507 79.4162 62.2956 78.0828 63.3909 76.5356L66.4105 72.2706C66.7572 71.7808 66.6413 71.1025 66.1514 70.7558C65.6617 70.4089 64.9833 70.525 64.6367 71.0148L61.6172 75.2801C60.668 76.6207 59.5027 77.7761 58.1532 78.7136L48.1515 85.662C47.333 86.2303 46.2382 86.224 45.4268 85.6462C44.7757 85.1825 44.4044 84.4288 44.4339 83.63L44.6108 78.918C44.8833 79.0109 45.1678 79.0601 45.453 79.0601C46.1144 79.0601 46.7763 78.8104 47.28 78.311C49.573 76.0385 53.4535 71.4187 53.6791 66.0091C53.7738 63.736 52.933 61.4889 51.3719 59.8439C49.8312 58.2202 47.7612 57.3129 45.5434 57.2889C43.3321 57.2622 41.2366 58.1105 39.6611 59.6695C39.5877 59.742 39.5174 59.8169 39.4472 59.8918C39.2678 58.7709 39.5208 57.6013 40.2042 56.6358L43.8551 51.4785C44.8842 50.0251 46.5704 49.2099 48.3141 49.2649C48.5477 54.6444 52.3924 59.2402 54.7129 61.5397C55.2162 62.0383 55.877 62.2876 56.5382 62.2876C57.1999 62.2876 57.8616 62.0381 58.3654 61.5387C59.3115 60.6011 60.5274 59.263 61.6458 57.6357L67.2838 61.6269C67.9953 62.1306 68.468 62.8811 68.6151 63.7405C68.762 64.5997 68.5656 65.4649 68.0619 66.1763L67.2692 67.296C66.9224 67.7858 67.0384 68.4639 67.5281 68.8107C67.7189 68.9457 67.938 69.0107 68.155 69.0107C68.4957 69.0107 68.8311 68.8509 69.0428 68.5518L69.8355 67.4321C70.6746 66.2468 71.0019 64.8056 70.757 63.3741C70.5123 61.9427 69.7246 60.6923 68.5393 59.8533L62.791 55.784C63.8585 53.8426 64.6652 51.6161 64.7645 49.2366C64.8597 46.9637 64.0188 44.7166 62.4578 43.0715ZM45.4533 59.4615C45.4757 59.4615 45.4981 59.4616 45.5203 59.4619C47.1451 59.4793 48.6635 60.1462 49.7959 61.3396C50.9545 62.5606 51.5787 64.2295 51.5083 65.9185C51.3062 70.7604 47.4145 75.1184 45.7504 76.7676C45.5869 76.9299 45.3209 76.93 45.1576 76.7683C43.4237 75.0503 39.3908 70.5156 39.3908 65.5244C39.3908 63.8927 40.0297 62.362 41.1898 61.2142C42.3338 60.0823 43.8456 59.4615 45.4533 59.4615ZM56.836 59.9951C56.6725 60.1575 56.4061 60.1578 56.2429 59.9961C54.5091 58.2778 50.4762 53.7426 50.4762 48.7521C50.4762 47.1202 51.1151 45.5894 52.2753 44.4417C53.4193 43.3099 54.931 42.6891 56.5388 42.6891C56.5611 42.6891 56.5836 42.6893 56.6059 42.6896C58.2307 42.707 59.749 43.3739 60.8815 44.5673C62.0401 45.7883 62.6643 47.4571 62.5937 49.146C62.3916 53.988 58.4999 58.3461 56.836 59.9951Z" fill="#CC0000"></path>
    <path d="M60.0381 47.934C59.4379 47.934 58.9515 48.4205 58.9515 49.0207C58.9515 50.3505 57.8696 51.4323 56.5398 51.4323C55.2101 51.4323 54.1282 50.3505 54.1282 49.0207C54.1282 47.6909 55.2101 46.609 56.5398 46.609C56.7012 46.609 56.8622 46.625 57.0185 46.6565C57.6075 46.7738 58.1797 46.3933 58.2979 45.8052C58.416 45.2167 58.0349 44.6441 57.4466 44.5257C57.1496 44.4661 56.8445 44.4359 56.5398 44.4359C54.0117 44.4359 51.9551 46.4927 51.9551 49.0207C51.9551 51.5487 54.0119 53.6054 56.5398 53.6054C59.068 53.6054 61.1246 51.5487 61.1246 49.0207C61.1248 48.4203 60.6383 47.934 60.0381 47.934Z" fill="#CC0000"></path>
    <path d="M45.4539 70.3778C47.982 70.3778 50.0387 68.321 50.0387 65.793C50.0387 63.265 47.9819 61.2083 45.4539 61.2083C42.9259 61.2083 40.8691 63.265 40.8691 65.793C40.8691 68.321 42.9258 70.3778 45.4539 70.3778ZM45.4539 63.3812C46.7837 63.3812 47.8655 64.4631 47.8655 65.7929C47.8655 67.1227 46.7837 68.2045 45.4539 68.2045C44.1241 68.2045 43.0423 67.1227 43.0423 65.7929C43.0423 64.4632 44.1241 63.3812 45.4539 63.3812Z" fill="#CC0000"></path>
    <path d="M34.2429 27.8173C34.2429 25.2892 32.1861 23.2325 29.6582 23.2325C27.1302 23.2325 25.0732 25.2893 25.0732 27.8173C25.0732 30.3453 27.13 32.4019 29.658 32.4019C32.186 32.4019 34.2429 30.3453 34.2429 27.8173ZM27.2465 27.8173C27.2465 26.4875 28.3284 25.4057 29.6582 25.4057C30.9879 25.4057 32.0698 26.4875 32.0698 27.8173C32.0698 29.1471 30.9879 30.2288 29.6582 30.2288C28.3284 30.2288 27.2465 29.1471 27.2465 27.8173Z" fill="#CC0000"></path>
  </g>
  <defs>
    <clipPath id="clip0_629_34858">
      <rect width="74.28" height="74.28" fill="white" transform="translate(15.2822 19.3129)"></rect>
    </clipPath>
  </defs>
</svg>
