<?xml version="1.0" encoding="UTF-8"?>
<!DOCTYPE svg PUBLIC "-//W3C//DTD SVG 1.1//EN" "http://www.w3.org/Graphics/SVG/1.1/DTD/svg11.dtd">
<!-- Creator: CorelDRAW (Evaluation Version) -->
<svg xmlns="http://www.w3.org/2000/svg" xml:space="preserve" width="80px" height="80px" version="1.1" style="shape-rendering:geometricPrecision; text-rendering:geometricPrecision; image-rendering:optimizeQuality; fill-rule:evenodd; clip-rule:evenodd"
viewBox="0 0 2.44 2.44"
 xmlns:xlink="http://www.w3.org/1999/xlink"
 xmlns:xodm="http://www.corel.com/coreldraw/odm/2003">
 <defs>
  <style type="text/css">
   <![CDATA[
    .fil0 {fill:#CC0000}
   ]]>
  </style>
 </defs>
 <g id="Layer_x0020_1">
  <metadata id="CorelCorpID_0Corel-Layer"/>
  <g id="_1484054981888">
   <path class="fil0" d="M1.37 0.97l0.09 0 0.04 0 0 0.42 -0.13 0 0 -0.42zm-0.34 0l0.14 0 0.16 0.42 -0.14 0 -0.02 -0.07 -0.15 0 -0.02 0.07 -0.14 0 0.17 -0.42zm-0.12 -0.11c-0.08,0.02 -0.09,-0.05 -0.12,-0.1 -0.12,0.02 -0.15,0.13 -0.15,0.26 -0.01,0.02 -0.29,0.15 -0.03,0.36 0,0.09 -0.03,0.12 0.02,0.2 0.03,0.04 0.08,0.09 0.16,0.09 0.03,-0.04 0.02,-0.06 0.07,-0.1 0.02,-0.02 0.07,-0.05 0.11,-0.04 0.04,0.07 -0.05,0.07 -0.08,0.12 -0.09,0.11 0.08,0.26 0.2,0.18 0.05,-0.04 0.05,-0.1 0.08,-0.16l0.07 0c0.03,0.06 0.03,0.12 0.08,0.16 0.11,0.08 0.28,-0.06 0.22,-0.17 -0.04,-0.08 -0.12,-0.03 -0.1,-0.13 0.09,-0.02 0.17,0.06 0.18,0.14 0.13,-0.03 0.14,-0.13 0.15,-0.27 0.23,-0.13 0.14,-0.29 0.03,-0.35 -0.01,-0.08 0.03,-0.13 -0.02,-0.2 -0.04,-0.05 -0.09,-0.09 -0.17,-0.09 -0.04,0.04 -0.02,0.09 -0.1,0.08 -0.02,-0.05 0.09,-0.19 -0.07,-0.25 -0.18,-0.07 -0.15,0.15 -0.25,0.13 -0.06,-0.01 -0.09,-0.21 -0.25,-0.12 -0.04,0.02 -0.08,0.06 -0.08,0.12 0.01,0.09 0.07,0.06 0.05,0.14z"/>
   <path class="fil0" d="M0.75 2.44l0.05 0c0.06,-0.06 0.02,-0.04 0.06,-0.05l0.2 0c0.08,0 0.07,-0.01 0.08,-0.02 0.02,-0.04 0.01,-0.34 0.01,-0.41 -0.1,0.07 -0.07,0.01 -0.07,0.36 -0.05,0 -0.11,0 -0.16,0 -0.13,0 -0.06,-0.02 -0.12,-0.04 -0.08,-0.02 -0.17,0.06 -0.05,0.16z"/>
   <path class="fil0" d="M1.65 0l-0.05 0c-0.06,0.04 -0.03,0.05 -0.14,0.05 -0.06,0 -0.16,-0.01 -0.2,0.01 -0.03,0.06 -0.02,0.33 -0.01,0.41l0.07 -0.04 0 -0.31c0.06,0 0.13,-0.01 0.19,0 0.09,0 0.09,0.06 0.16,0.03 0.01,-0.01 0.09,-0.08 -0.02,-0.15z"/>
   <path class="fil0" d="M0.12 1.54l0 -0.17 0.24 -0.01 -0.03 -0.07c-0.06,0 -0.25,-0.02 -0.27,0.02 -0.04,0.04 0.01,0.21 -0.02,0.27 -0.01,0.03 -0.05,0.04 -0.04,0.1 0.02,0.08 0.17,0.07 0.16,-0.03 -0.01,-0.07 -0.04,-0.02 -0.04,-0.11z"/>
   <path class="fil0" d="M2.31 1.07l-0.26 0 0.03 0.07c0.05,0 0.11,0 0.16,0 0.06,0 0.13,0.02 0.15,-0.04 0,-0.02 0,-0.13 0,-0.16 -0.01,-0.13 0,-0.06 0.04,-0.13 0.05,-0.11 -0.14,-0.16 -0.15,-0.05 -0.01,0.07 0.02,0.04 0.03,0.1l0 0.21z"/>
   <path class="fil0" d="M1.94 1.5l0.15 0.01c0,0.21 -0.02,0.08 -0.04,0.18 -0.02,0.11 0.14,0.13 0.16,0.02 0,-0.04 -0.02,-0.05 -0.03,-0.07 -0.03,-0.05 0,-0.1 -0.02,-0.19 -0.07,-0.02 -0.22,-0.04 -0.22,0.05z"/>
   <path class="fil0" d="M0.28 0.97c0,0 0,0.02 0.04,0.02 0.06,0.01 0.15,0.01 0.16,-0.07l-0.14 0c0,-0.18 -0.01,-0.09 0.03,-0.15 0.04,-0.05 0.01,-0.07 -0.02,-0.12 -0.21,-0.02 -0.08,0.15 -0.08,0.16 0.01,0.04 -0.01,0.13 0.01,0.16z"/>
   <path class="fil0" d="M1.46 2.01c0,0.15 -0.04,0.16 0.11,0.16 0.08,0 0.06,-0.01 0.11,0.02 0.02,0.02 0.05,0.03 0.09,0.01 0.06,-0.02 0.06,-0.14 -0.03,-0.14 -0.09,0 -0.01,0.05 -0.21,0.04l0 -0.1 -0.07 0.01z"/>
   <path class="fil0" d="M0.79 0.33l0.08 0 0 0.11 0.07 -0.02c0.01,-0.19 -0.01,-0.16 -0.14,-0.15 -0.12,0 -0.04,-0.05 -0.17,-0.04 -0.03,0.03 -0.08,0.09 -0.01,0.13 0.08,0.05 0.08,-0.03 0.17,-0.03z"/>
   <path class="fil0" d="M1.29 2.44l0.05 0c0.11,-0.09 0.03,-0.1 0.01,-0.17 -0.01,-0.03 0,-0.2 0,-0.24 -0.02,-0.04 0.01,-0.01 -0.04,-0.03 -0.01,-0.01 -0.02,-0.01 -0.03,-0.02 0,0.08 0,0.19 0,0.26 -0.01,0.09 -0.11,0.1 0.01,0.2z"/>
   <path class="fil0" d="M1.11 0l-0.05 0c-0.03,0.02 -0.05,0.03 -0.05,0.08 -0.01,0.06 0.03,0.04 0.04,0.08 0.01,0.03 0,0.22 0,0.26 0.03,0.01 0.05,0.02 0.07,0.03 0,-0.08 -0.01,-0.19 0,-0.27 0,-0.06 0.11,-0.1 -0.01,-0.18z"/>
   <path class="fil0" d="M2.03 0.89c-0.02,0.02 -0.01,0.01 -0.05,0.01l0 0.07c0.14,0 0.12,0.02 0.12,-0.11 0,-0.08 0,-0.04 0.03,-0.08 0.08,-0.12 -0.12,-0.18 -0.14,-0.07 -0.02,0.1 0.04,0 0.04,0.18z"/>
   <path class="fil0" d="M0.44 1.74c0.01,-0.12 -0.05,-0.07 -0.04,-0.17 0.01,-0.04 0.01,-0.03 0.01,-0.04 0.01,-0.02 0.02,0.03 0.02,-0.07 -0.07,0 -0.1,-0.02 -0.1,0.06 0,0.09 0.02,0.07 -0.02,0.14 -0.03,0.04 -0.02,0.09 0.01,0.11 0.06,0.03 0.09,0 0.12,-0.03z"/>
   <path class="fil0" d="M0.97 2.02c-0.07,-0.01 -0.05,0 -0.07,0.01 -0.01,0.01 -0.03,0.02 -0.07,0.02 -0.08,-0.01 -0.02,-0.06 -0.13,-0.05 -0.1,0.06 -0.06,0.16 0.03,0.15 0.07,0 0.03,-0.03 0.1,-0.04 0.05,0 0.09,0.01 0.14,0l0 -0.09z"/>
   <path class="fil0" d="M1.43 0.33l-0.01 0.08c0.13,0.01 0.04,-0.03 0.15,-0.02 0.07,0.01 0.06,0.08 0.15,0.03 0.04,-0.02 0.03,-0.04 0.03,-0.1 -0.14,-0.1 -0.05,0 -0.22,0 -0.04,0 -0.07,0 -0.1,0.01z"/>
   <path class="fil0" d="M2.09 1.26l-0.02 0.07c0.06,0 0.17,-0.02 0.22,0.01 0.03,0.02 0.02,0.05 0.08,0.03 0.12,-0.02 0.05,-0.21 -0.07,-0.13 -0.04,0.03 -0.01,0.02 -0.09,0.02 -0.04,0 -0.08,0 -0.12,0z"/>
   <path class="fil0" d="M0.32 1.17l0.02 -0.07c-0.07,0 -0.16,0.01 -0.2,-0.02 -0.17,-0.12 -0.18,0.21 -0.02,0.12 0.07,-0.04 -0.04,-0.03 0.2,-0.03z"/>
   <path class="fil0" d="M1.05 1.23l0.09 0c0,-0.03 -0.01,-0.04 -0.02,-0.07l-0.02 -0.07 -0.05 0.14z"/>
  </g>
 </g>
</svg>
