<?xml version="1.0" encoding="UTF-8"?>
<svg version="1.1" xmlns="http://www.w3.org/2000/svg" width="100" height="100">
<path d="M0 0 C2.02793506 -0.00963618 4.05482497 -0.04065236 6.08251953 -0.07226562 C17.16416466 -0.11610992 26.52172747 1.28629551 35.43017578 8.24023438 C38.55782428 11.44807899 39.92040348 13.77972673 40.43017578 18.24023438 C41.35830078 18.19898437 42.28642578 18.15773438 43.24267578 18.11523438 C46.43017578 18.24023438 46.43017578 18.24023438 49.43017578 20.24023438 C49.61767578 22.86523438 49.61767578 22.86523438 49.43017578 25.24023438 C50.91517578 25.73523437 50.91517578 25.73523437 52.43017578 26.24023438 C52.48404207 28.36496013 52.52290649 30.4900709 52.55517578 32.61523438 C52.57837891 33.79859375 52.60158203 34.98195312 52.62548828 36.20117188 C52.43017578 39.24023437 52.43017578 39.24023437 50.43017578 41.24023438 C47.43017578 41.55273438 47.43017578 41.55273438 44.43017578 41.24023438 C42.20318843 37.89975335 42.15898368 36.70737857 42.18017578 32.80273438 C42.17244141 31.38154297 42.17244141 31.38154297 42.16455078 29.93164062 C42.43269489 27.21470985 43.04486436 25.56557855 44.43017578 23.24023438 C43.11017578 22.91023438 41.79017578 22.58023437 40.43017578 22.24023438 C40.48217448 26.61619398 40.5772864 30.99019877 40.68017578 35.36523438 C40.69435547 36.60273437 40.70853516 37.84023438 40.72314453 39.11523438 C40.9500798 47.95984328 40.9500798 47.95984328 45.43017578 55.24023438 C46.33256326 57.9473968 46.54868881 59.47800206 46.52783203 62.25195312 C46.52299805 63.38793945 46.52299805 63.38793945 46.51806641 64.546875 C46.50549805 65.72540039 46.50549805 65.72540039 46.49267578 66.92773438 C46.48816406 67.72501953 46.48365234 68.52230469 46.47900391 69.34375 C46.46723428 71.30927694 46.44929926 73.27476523 46.43017578 75.24023438 C47.09017578 75.24023438 47.75017578 75.24023438 48.43017578 75.24023438 C48.43017578 79.20023437 48.43017578 83.16023438 48.43017578 87.24023438 C46.94517578 87.73523438 46.94517578 87.73523438 45.43017578 88.24023438 C45.45337891 88.85511719 45.47658203 89.47 45.50048828 90.10351562 C45.51853516 90.91175781 45.53658203 91.72 45.55517578 92.55273438 C45.57837891 93.35324219 45.60158203 94.15375 45.62548828 94.97851562 C45.43017578 97.24023438 45.43017578 97.24023438 43.43017578 100.24023438 C40.46142578 100.60351562 40.46142578 100.60351562 36.93017578 100.55273438 C35.18220703 100.54693359 35.18220703 100.54693359 33.39892578 100.54101562 C30.43017578 100.24023438 30.43017578 100.24023438 28.43017578 98.24023438 C28.43017578 94.94023438 28.43017578 91.64023438 28.43017578 88.24023438 C11.27017578 88.24023438 -5.88982422 88.24023438 -23.56982422 88.24023438 C-23.56982422 91.54023437 -23.56982422 94.84023437 -23.56982422 98.24023438 C-26.35762301 101.02803316 -28.18784749 100.53985171 -32.06982422 100.55273438 C-33.23513672 100.56949219 -34.40044922 100.58625 -35.60107422 100.60351562 C-36.58076172 100.48363281 -37.56044922 100.36375 -38.56982422 100.24023438 C-40.705691 97.0364342 -40.80114597 96.2208347 -40.69482422 92.55273438 C-40.67677734 91.74449219 -40.65873047 90.93625 -40.64013672 90.10351562 C-40.61693359 89.48863281 -40.59373047 88.87375 -40.56982422 88.24023438 C-41.55982422 87.91023438 -42.54982422 87.58023438 -43.56982422 87.24023438 C-43.56982422 83.28023438 -43.56982422 79.32023437 -43.56982422 75.24023438 C-42.90982422 75.24023438 -42.24982422 75.24023438 -41.56982422 75.24023438 C-41.61623047 74.10585937 -41.66263672 72.97148438 -41.71044922 71.80273438 C-42.13541186 56.88108912 -42.13541186 56.88108912 -37.56982422 50.24023438 C-37.07482422 49.74523438 -37.07482422 49.74523438 -36.56982422 49.24023438 C-36.41157163 47.24241311 -36.31863251 45.23934604 -36.25341797 43.23632812 C-36.21152344 42.02138672 -36.16962891 40.80644531 -36.12646484 39.5546875 C-36.08714844 38.27529297 -36.04783203 36.99589844 -36.00732422 35.67773438 C-35.96414062 34.39447266 -35.92095703 33.11121094 -35.87646484 31.7890625 C-35.76997622 28.60623584 -35.6679646 25.42332764 -35.56982422 22.24023438 C-36.88982422 22.57023437 -38.20982422 22.90023438 -39.56982422 23.24023438 C-39.24498047 23.78550781 -38.92013672 24.33078125 -38.58544922 24.89257812 C-37.3766497 27.6867647 -37.30330401 29.7671462 -37.31982422 32.80273438 C-37.31466797 33.75277344 -37.30951172 34.7028125 -37.30419922 35.68164062 C-37.56982422 38.24023438 -37.56982422 38.24023438 -39.56982422 41.24023438 C-42.56982422 41.55273438 -42.56982422 41.55273438 -45.56982422 41.24023438 C-47.56982422 39.24023438 -47.56982422 39.24023438 -47.76513672 36.20117188 C-47.74193359 35.0178125 -47.71873047 33.83445313 -47.69482422 32.61523438 C-47.67677734 31.42671875 -47.65873047 30.23820312 -47.64013672 29.01367188 C-47.61693359 28.0984375 -47.59373047 27.18320312 -47.56982422 26.24023438 C-46.57982422 25.91023438 -45.58982422 25.58023437 -44.56982422 25.24023438 C-44.63169922 24.45648437 -44.69357422 23.67273438 -44.75732422 22.86523438 C-44.69544922 21.99898437 -44.63357422 21.13273437 -44.56982422 20.24023438 C-41.13461942 17.95009784 -39.58449322 18.06180464 -35.56982422 18.24023438 C-35.38419922 17.20898438 -35.19857422 16.17773438 -35.00732422 15.11523438 C-33.60525789 10.32887001 -30.70550091 7.85622 -26.56982422 5.24023438 C-17.52077101 0.87556047 -9.99462723 0.02867213 0 0 Z M-28.56982422 12.24023438 C-31.18212613 16.66108398 -31.93314292 19.83907549 -31.86279297 24.95117188 C-31.853125 26.19511719 -31.84345703 27.4390625 -31.83349609 28.72070312 C-31.80835938 30.00589844 -31.78322266 31.29109375 -31.75732422 32.61523438 C-31.74378906 33.92363281 -31.73025391 35.23203125 -31.71630859 36.58007812 C-31.68104792 39.80055281 -31.63176055 43.02018044 -31.56982422 46.24023438 C-30.57982422 45.74523438 -30.57982422 45.74523438 -29.56982422 45.24023438 C-29.23982422 36.66023438 -28.90982422 28.08023437 -28.56982422 19.24023438 C-8.10982422 19.24023438 12.35017578 19.24023438 33.43017578 19.24023438 C33.76017578 27.82023437 34.09017578 36.40023437 34.43017578 45.24023438 C35.09017578 45.57023437 35.75017578 45.90023437 36.43017578 46.24023438 C36.54685996 41.71961996 36.61759223 37.19939591 36.68017578 32.67773438 C36.71369141 31.40091797 36.74720703 30.12410156 36.78173828 28.80859375 C36.91794581 19.28597982 36.91794581 19.28597982 32.43017578 11.24023438 C30.24357447 9.46138946 30.24357447 9.46138946 27.74267578 8.42773438 C26.95505859 8.05003906 26.16744141 7.67234375 25.35595703 7.28320312 C17.80788737 4.59250273 10.60018616 3.87983098 2.61767578 3.92773438 C1.16627197 3.9351062 1.16627197 3.9351062 -0.31445312 3.94262695 C-10.11538608 4.10309563 -21.14366498 5.02880746 -28.56982422 12.24023438 Z M-25.56982422 22.24023438 C-25.56982422 29.17023437 -25.56982422 36.10023437 -25.56982422 43.24023438 C-16.98982422 43.24023438 -8.40982422 43.24023438 0.43017578 43.24023438 C0.43017578 36.31023438 0.43017578 29.38023438 0.43017578 22.24023438 C-8.14982422 22.24023438 -16.72982422 22.24023438 -25.56982422 22.24023438 Z M4.43017578 22.24023438 C4.43017578 29.17023437 4.43017578 36.10023437 4.43017578 43.24023438 C13.01017578 43.24023438 21.59017578 43.24023438 30.43017578 43.24023438 C30.43017578 36.31023438 30.43017578 29.38023438 30.43017578 22.24023438 C21.85017578 22.24023438 13.27017578 22.24023438 4.43017578 22.24023438 Z M-43.56982422 29.24023438 C-43.56982422 31.88023438 -43.56982422 34.52023438 -43.56982422 37.24023438 C-42.90982422 36.91023438 -42.24982422 36.58023438 -41.56982422 36.24023438 C-41.56982422 33.93023437 -41.56982422 31.62023437 -41.56982422 29.24023438 C-42.22982422 29.24023438 -42.88982422 29.24023438 -43.56982422 29.24023438 Z M46.43017578 29.24023438 C46.43017578 31.55023437 46.43017578 33.86023437 46.43017578 36.24023438 C47.42017578 36.73523437 47.42017578 36.73523437 48.43017578 37.24023438 C48.43017578 34.60023437 48.43017578 31.96023437 48.43017578 29.24023438 C47.77017578 29.24023438 47.11017578 29.24023438 46.43017578 29.24023438 Z M-32.72607422 51.95898438 C-33.16951172 52.54679687 -33.61294922 53.13460937 -34.06982422 53.74023438 C-34.53388672 54.32804687 -34.99794922 54.91585937 -35.47607422 55.52148438 C-37.99139276 59.4741278 -37.68647728 63.4320715 -37.63232422 67.92773438 C-37.61169922 70.34085938 -37.59107422 72.75398438 -37.56982422 75.24023438 C-31.62982422 75.24023438 -25.68982422 75.24023438 -19.56982422 75.24023438 C-19.56982422 68.97023438 -19.56982422 62.70023438 -19.56982422 56.24023438 C-5.04982422 56.24023438 9.47017578 56.24023438 24.43017578 56.24023438 C24.43017578 62.51023437 24.43017578 68.78023437 24.43017578 75.24023438 C30.37017578 75.24023438 36.31017578 75.24023438 42.43017578 75.24023438 C43.31500981 63.44564556 43.31500981 63.44564556 38.43017578 53.24023438 C32.72406782 47.53412642 26.23553102 47.0153482 18.54959106 46.93669128 C17.56401215 46.93760269 16.57843323 46.9385141 15.56298828 46.93945312 C14.52882782 46.935168 13.49466736 46.93088287 12.4291687 46.9264679 C10.24901051 46.9207441 8.06883324 46.92020989 5.88867188 46.92456055 C2.57274418 46.92771765 -0.74228805 46.904246 -4.05810547 46.87890625 C-6.18440644 46.87663261 -8.31070978 46.87593006 -10.43701172 46.87695312 C-11.41854218 46.86774338 -12.40007263 46.85853363 -13.41134644 46.8490448 C-20.28633208 46.89471166 -27.18056704 47.53865256 -32.72607422 51.95898438 Z M-15.56982422 60.24023438 C-15.56982422 60.90023437 -15.56982422 61.56023438 -15.56982422 62.24023438 C-13.25982422 62.24023438 -10.94982422 62.24023438 -8.56982422 62.24023438 C-8.56982422 61.58023438 -8.56982422 60.92023437 -8.56982422 60.24023438 C-10.87982422 60.24023438 -13.18982422 60.24023438 -15.56982422 60.24023438 Z M-4.56982422 60.24023438 C-4.56982422 60.90023437 -4.56982422 61.56023438 -4.56982422 62.24023438 C0.05017578 62.24023438 4.67017578 62.24023438 9.43017578 62.24023438 C9.43017578 61.58023438 9.43017578 60.92023437 9.43017578 60.24023438 C4.81017578 60.24023438 0.19017578 60.24023438 -4.56982422 60.24023438 Z M13.43017578 60.24023438 C13.43017578 60.90023437 13.43017578 61.56023438 13.43017578 62.24023438 C15.74017578 62.24023438 18.05017578 62.24023438 20.43017578 62.24023438 C20.43017578 61.58023438 20.43017578 60.92023437 20.43017578 60.24023438 C18.12017578 60.24023438 15.81017578 60.24023438 13.43017578 60.24023438 Z M-15.56982422 66.24023438 C-15.56982422 66.90023437 -15.56982422 67.56023437 -15.56982422 68.24023438 C-13.25982422 68.24023438 -10.94982422 68.24023438 -8.56982422 68.24023438 C-8.56982422 67.58023438 -8.56982422 66.92023438 -8.56982422 66.24023438 C-10.87982422 66.24023438 -13.18982422 66.24023438 -15.56982422 66.24023438 Z M-4.56982422 66.24023438 C-4.56982422 66.90023437 -4.56982422 67.56023437 -4.56982422 68.24023438 C0.05017578 68.24023438 4.67017578 68.24023438 9.43017578 68.24023438 C9.43017578 67.58023438 9.43017578 66.92023438 9.43017578 66.24023438 C4.81017578 66.24023438 0.19017578 66.24023438 -4.56982422 66.24023438 Z M13.43017578 66.24023438 C13.43017578 66.90023437 13.43017578 67.56023437 13.43017578 68.24023438 C15.74017578 68.24023438 18.05017578 68.24023438 20.43017578 68.24023438 C20.43017578 67.58023438 20.43017578 66.92023438 20.43017578 66.24023438 C18.12017578 66.24023438 15.81017578 66.24023438 13.43017578 66.24023438 Z M-15.56982422 72.24023438 C-15.56982422 73.23023437 -15.56982422 74.22023438 -15.56982422 75.24023438 C-13.25982422 75.24023438 -10.94982422 75.24023438 -8.56982422 75.24023438 C-8.56982422 74.25023438 -8.56982422 73.26023437 -8.56982422 72.24023438 C-10.87982422 72.24023438 -13.18982422 72.24023438 -15.56982422 72.24023438 Z M-4.56982422 72.24023438 C-4.56982422 73.23023437 -4.56982422 74.22023438 -4.56982422 75.24023438 C0.05017578 75.24023438 4.67017578 75.24023438 9.43017578 75.24023438 C9.43017578 74.25023438 9.43017578 73.26023437 9.43017578 72.24023438 C4.81017578 72.24023438 0.19017578 72.24023438 -4.56982422 72.24023438 Z M13.43017578 72.24023438 C13.43017578 73.23023437 13.43017578 74.22023438 13.43017578 75.24023438 C15.74017578 75.24023438 18.05017578 75.24023438 20.43017578 75.24023438 C20.43017578 74.25023438 20.43017578 73.26023437 20.43017578 72.24023438 C18.12017578 72.24023438 15.81017578 72.24023438 13.43017578 72.24023438 Z M-39.56982422 79.24023438 C-39.56982422 80.89023438 -39.56982422 82.54023437 -39.56982422 84.24023438 C-11.84982422 84.24023438 15.87017578 84.24023438 44.43017578 84.24023438 C44.43017578 82.59023437 44.43017578 80.94023438 44.43017578 79.24023438 C16.71017578 79.24023438 -11.00982422 79.24023438 -39.56982422 79.24023438 Z M-36.56982422 88.24023438 C-36.61224145 90.57318213 -36.61075359 92.90726004 -36.56982422 95.24023438 C-35.58714563 96.44584621 -35.58714563 96.44584621 -33.72216797 96.33789062 C-31.67138672 96.30533854 -29.62060547 96.27278646 -27.56982422 96.24023438 C-27.56982422 93.60023437 -27.56982422 90.96023437 -27.56982422 88.24023438 C-30.53982422 88.24023438 -33.50982422 88.24023438 -36.56982422 88.24023438 Z M32.43017578 88.24023438 C32.43017578 90.88023438 32.43017578 93.52023438 32.43017578 96.24023438 C36.43272034 96.33204572 36.43272034 96.33204572 40.43017578 96.24023438 C41.84595055 95.05599111 41.84595055 95.05599111 41.49267578 91.67773438 C41.47205078 90.54335937 41.45142578 89.40898438 41.43017578 88.24023438 C38.46017578 88.24023438 35.49017578 88.24023438 32.43017578 88.24023438 Z " fill="#cc0000" transform="translate(47.56982421875,-0.240234375)"/>
<path d="M0 0 C6.6 0 13.2 0 20 0 C20 3.3 20 6.6 20 10 C13.4 10 6.8 10 0 10 C0 6.7 0 3.4 0 0 Z M4 4 C4 4.66 4 5.32 4 6 C7.96 6 11.92 6 16 6 C16 5.34 16 4.68 16 4 C12.04 4 8.08 4 4 4 Z " fill="#cc0000" transform="translate(40,6)"/>
<path d="M0 0 C2.66266871 2.23320602 2.95347082 3.6200117 3.375 7.0625 C3 10 3 10 2 11.875 C-1.33905554 13.75321874 -4.20998874 13.30079454 -8 13 C-10 11 -10 11 -10.3125 7.0625 C-10.23081662 4.56208106 -10.12109418 3.22794199 -8.9375 1 C-5.83132725 -0.60318593 -3.42009021 -0.42751128 0 0 Z M-5 4 C-5.33 5.32 -5.66 6.64 -6 8 C-4.68 8.33 -3.36 8.66 -2 9 C-2 7.68 -2 6.36 -2 5 C-2.99 4.67 -3.98 4.34 -5 4 Z " fill="#cc0000" transform="translate(85,59)"/>
<path d="M0 0 C3.5 0.4375 3.5 0.4375 5.4375 1.4375 C7.21953537 4.79191952 6.79858742 7.67529845 6.5 11.4375 C4.5 13.4375 4.5 13.4375 0.5625 13.75 C-1.98435809 13.6714218 -3.25704973 13.57415953 -5.5 12.3125 C-6.98549091 9.52720454 -6.88050713 7.54497489 -6.5 4.4375 C-4.86658084 0.78632776 -4.0205891 0.50257364 0 0 Z M-0.5 4.4375 C-1.16 5.7575 -1.82 7.0775 -2.5 8.4375 C-1.18 8.7675 0.14 9.0975 1.5 9.4375 C1.83 8.1175 2.16 6.7975 2.5 5.4375 C1.51 5.1075 0.52 4.7775 -0.5 4.4375 Z " fill="#cc0000" transform="translate(18.5,58.5625)"/>
<path d="M0 0 C0.625 2.375 0.625 2.375 1 5 C0.34 5.66 -0.32 6.32 -1 7 C-3.625 6.625 -3.625 6.625 -6 6 C-6 4.02 -6 2.04 -6 0 C-3.50907189 -1.24546405 -2.58919267 -0.7767578 0 0 Z " fill="#cc0000" transform="translate(70,8)"/>
<path d="M0 0 C1.67542976 0.28604898 3.34385343 0.61781233 5 1 C5 2.98 5 4.96 5 7 C2.625 7.625 2.625 7.625 0 8 C-0.66 7.34 -1.32 6.68 -2 6 C-1.44444444 1.44444444 -1.44444444 1.44444444 0 0 Z " fill="#cc0000" transform="translate(31,7)"/>
</svg>
