<?xml version="1.0" encoding="UTF-8"?>
<!DOCTYPE svg PUBLIC "-//W3C//DTD SVG 1.1//EN" "http://www.w3.org/Graphics/SVG/1.1/DTD/svg11.dtd">
<!-- Creator: CorelDRAW -->
<svg xmlns="http://www.w3.org/2000/svg" xml:space="preserve" width="100px" height="100px" version="1.1" style="shape-rendering:geometricPrecision; text-rendering:geometricPrecision; image-rendering:optimizeQuality; fill-rule:evenodd; clip-rule:evenodd"
viewBox="0 0 1.43 1.43"
 xmlns:xlink="http://www.w3.org/1999/xlink"
 xmlns:xodm="http://www.corel.com/coreldraw/odm/2003">
 <defs>
  <style type="text/css">
   <![CDATA[
    .fil0 {fill:#CC0000;fill-rule:nonzero}
   ]]>
  </style>
 </defs>
 <g id="Layer_x0020_1">
  <metadata id="CorelCorpID_0Corel-Layer"/>
  <g id="_1779416754240">
   <g>
    <path class="fil0" d="M0 1.41c0,0 0,0 0,0 0,0.01 0.01,0.02 0.02,0.02 0,0 0,0 0,0l1.39 0c0,0 0,0 0,0 0.01,0 0.02,-0.01 0.02,-0.02 0,0 0,0 0,0l0 -0.1c0,-0.08 -0.05,-0.15 -0.12,-0.18 0.03,-0.02 0.05,-0.06 0.05,-0.1 0,-0.06 -0.05,-0.12 -0.12,-0.12 -0.07,0 -0.13,0.06 -0.13,0.12 0,0.04 0.02,0.08 0.05,0.1 -0.04,0.02 -0.08,0.06 -0.1,0.1 -0.02,-0.04 -0.05,-0.08 -0.1,-0.1 0.04,-0.02 0.05,-0.06 0.05,-0.09 0,-0.07 -0.05,-0.13 -0.12,-0.13 -0.07,0 -0.12,0.06 -0.12,0.13 0,0.03 0.01,0.07 0.05,0.09 -0.05,0.02 -0.08,0.06 -0.1,0.1 -0.02,-0.04 -0.06,-0.08 -0.1,-0.1 0.03,-0.02 0.05,-0.06 0.05,-0.09 0,-0.07 -0.05,-0.12 -0.12,-0.13l0 -0.11 0.75 0c0.01,0 0.02,-0.01 0.02,-0.02l0 -0.09c0,-0.01 -0.01,-0.02 -0.02,-0.02l-0.03 0c0,0 0,0 0,0 0,0 0,0 0,0l0 -0.65c0,0 0,0 0,0 0,-0.01 -0.01,-0.02 -0.02,-0.02l-0.87 0c0,0 0,0 0,0 -0.01,0 -0.02,0.01 -0.02,0.02 0,0 0,0 0,0l0 0.14c-0.07,0.01 -0.13,0.07 -0.13,0.15 0,0.04 0.02,0.07 0.05,0.1l-0.01 0c-0.09,0 -0.16,0.07 -0.16,0.17 0,0 0,0 0,0l0 0.37c-0.03,0.02 -0.04,0.05 -0.04,0.09 0,0.03 0.02,0.07 0.05,0.09 -0.07,0.03 -0.12,0.1 -0.12,0.18l0 0.1zm1.24 -0.46c0.04,0 0.08,0.04 0.08,0.09 0,0.04 -0.04,0.08 -0.08,0.08 -0.05,0 -0.09,-0.04 -0.09,-0.08 0,-0.05 0.04,-0.09 0.09,-0.09l0 0zm0 0.21c0.08,0 0.15,0.07 0.15,0.15l0 0.08 -0.31 0 0 -0.08c0,-0.08 0.07,-0.15 0.16,-0.15 0,0 0,0 0,0l0 0zm-0.35 -0.21c0.05,0 0.08,0.04 0.08,0.09 0,0.04 -0.03,0.08 -0.08,0.08 -0.05,0 -0.08,-0.04 -0.08,-0.08 0,-0.05 0.03,-0.09 0.08,-0.09l0 0zm0 0.21c0.08,0 0.15,0.07 0.15,0.15l0 0.08 -0.3 0 0 -0.08c0,-0.08 0.07,-0.15 0.15,-0.15 0,0 0,0 0,0l0 0zm-0.19 0.15l0 0.08 -0.31 0 0 -0.08c0,-0.08 0.07,-0.15 0.15,-0.15 0.09,0 0.15,0.07 0.16,0.15l0 0zm-0.07 -0.27c0,0.04 -0.04,0.08 -0.09,0.08 -0.04,0 -0.08,-0.04 -0.08,-0.08 0,-0.05 0.04,-0.09 0.08,-0.09 0.05,0 0.09,0.04 0.09,0.09l0 0zm0.65 -0.28l-0.73 0 0 -0.05 0.73 0 0 0.05zm-0.05 -0.72l0 0.63c0,0 0,0 0,0 0,0 0,0 0,0l-0.68 0 0 -0.1 0.13 0c0,0 0,0 0,0 0.01,0 0.01,0 0.02,0l0.12 -0.16c0.01,-0.02 0.02,-0.03 0.02,-0.05 0,-0.01 0,-0.01 0,-0.01 -0.01,-0.03 -0.02,-0.05 -0.04,-0.06 -0.01,-0.01 -0.03,-0.01 -0.04,-0.01 -0.03,0 -0.05,0.01 -0.07,0.03l-0.08 0.1 -0.13 0c0.03,-0.03 0.04,-0.06 0.04,-0.1 0,-0.07 -0.05,-0.13 -0.12,-0.14l0 -0.13 0.83 0zm-0.95 0.27c0,-0.06 0.04,-0.11 0.1,-0.11 0.06,0 0.1,0.05 0.1,0.11 0,0.05 -0.04,0.1 -0.1,0.1 0,0 0,0 0,0 -0.06,0 -0.11,-0.05 -0.11,-0.1 0,0 0,0 0,0l0.01 0zm-0.13 0.27c0,-0.07 0.05,-0.13 0.12,-0.13l0.35 0c0,0 0,0 0,0 0.01,0 0.01,0 0.02,-0.01l0.08 -0.11c0.01,-0.01 0.02,-0.01 0.04,-0.01 0,0 0.01,0 0.02,0 0.01,0.01 0.02,0.02 0.02,0.04 0,0.01 -0.01,0.02 -0.01,0.02l-0.12 0.15 -0.14 0c-0.01,0 -0.02,0.01 -0.02,0.02l0 0.36c-0.05,0.02 -0.09,0.07 -0.09,0.12 0,0.04 0.02,0.08 0.05,0.1 -0.05,0.02 -0.08,0.06 -0.1,0.1 -0.02,-0.04 -0.06,-0.08 -0.1,-0.1 0.03,-0.02 0.05,-0.06 0.05,-0.1 0,-0.03 -0.02,-0.07 -0.05,-0.09l0 -0.35c0,-0.01 0,-0.02 -0.01,-0.02 -0.02,0 -0.02,0.01 -0.02,0.02l0 0.33c-0.02,-0.01 -0.03,-0.01 -0.05,-0.01 0,0 0,0 0,0 -0.01,0 -0.03,0 -0.04,0.01l0 -0.34zm0.05 0.37c0.04,0 0.08,0.04 0.08,0.09 0,0.04 -0.04,0.08 -0.08,0.08 -0.05,0 -0.09,-0.04 -0.09,-0.08 0,-0.05 0.04,-0.09 0.08,-0.09l0.01 0zm-0.16 0.36c0,-0.08 0.07,-0.15 0.15,-0.15 0.09,0 0.16,0.07 0.16,0.15l0 0.08 -0.31 0 0 -0.08z" data-original="#000000"/>
   </g>
  </g>
 </g>
</svg>
