<?xml version="1.0" encoding="UTF-8"?>
<!DOCTYPE svg PUBLIC "-//W3C//DTD SVG 1.1//EN" "http://www.w3.org/Graphics/SVG/1.1/DTD/svg11.dtd">
<!-- Creator: CorelDRAW -->
<svg xmlns="http://www.w3.org/2000/svg" xml:space="preserve" width="110px" height="115px" version="1.1" style="shape-rendering:geometricPrecision; text-rendering:geometricPrecision; image-rendering:optimizeQuality; fill-rule:evenodd; clip-rule:evenodd"
viewBox="0 0 1.92 2"
 xmlns:xlink="http://www.w3.org/1999/xlink"
 xmlns:xodm="http://www.corel.com/coreldraw/odm/2003">
 <defs>
  <style type="text/css">
   <![CDATA[
    .fil1 {fill:none}
    .fil0 {fill:#CC0000;fill-rule:nonzero}
   ]]>
  </style>
   <clipPath id="id0">
    <path d="M0 0l1.92 0 0 2 -1.92 0 0 -2z"/>
   </clipPath>
 </defs>
 <g id="Layer_x0020_1">
  <metadata id="CorelCorpID_0Corel-Layer"/>
  <g id="_1777193430192">
   <g>
    <path class="fil0" d="M1.88 1.3l0 -0.22c0,-0.01 0,-0.01 -0.01,-0.01l-0.19 -0.1c-0.01,0 -0.01,0 -0.02,0l-0.05 0.03 0 -0.05c0,0 0,-0.01 0,-0.01l-0.2 -0.09c-0.01,0 -0.01,0 -0.01,0l-0.2 0.09c-0.01,0 -0.01,0.01 -0.01,0.01l0 0.05 -0.05 -0.03c0,0 -0.01,0 -0.01,0l-0.2 0.1c0,0 -0.01,0 -0.01,0.01l0 0.22c0,0 0.01,0.01 0.01,0.01l0.04 0.02 -0.04 0.02c0,0 -0.01,0.01 -0.01,0.01l0 0.22c0,0.01 0.01,0.01 0.01,0.01l0.2 0.1c0,0 0.01,0 0.01,0l0.05 -0.03 0 0.05c0,0 0,0.01 0.01,0.01l0.2 0.09c0,0.01 0,0.01 0.01,0l0.2 -0.09c0,0 0,-0.01 0,-0.01l0 -0.05 0.05 0.03c0.01,0 0.01,0 0.02,0l0.19 -0.1c0.01,0 0.01,0 0.01,-0.01l0 -0.22c0,0 0,-0.01 -0.01,-0.01l-0.04 -0.02 0.04 -0.02c0.01,0 0.01,-0.01 0.01,-0.01zm-0.21 -0.3l0.17 0.08 -0.17 0.08 -0.17 -0.08 0.17 -0.08zm-0.01 0.66l-0.05 -0.02 0 -0.15c0,-0.01 0,-0.01 0,-0.01l-0.05 -0.02 0.04 -0.02 0.06 0.02 0 0.2zm-0.26 -0.09l-0.17 -0.08 0.04 -0.02 0.13 0.06c0,0 0,0 0.01,0l0.12 -0.06 0.04 0.02 -0.17 0.08zm-0.25 -0.39l0.17 -0.08 0 0.04 -0.12 0.05c-0.01,0.01 -0.01,0.01 -0.01,0.01l0 0.15 -0.04 0.02 0 -0.19zm0.07 -0.21l0.17 0.08 0 0.05 -0.05 0.02 0 -0.04c0,-0.01 0,-0.01 0,-0.01l-0.12 -0.06 0 -0.04zm0.37 0.04l-0.12 0.06c-0.01,0 -0.01,0 -0.01,0.01l0 0.04 -0.04 -0.02 0 -0.05 0.17 -0.08 0 0.04zm-0.17 0.49l0 -0.19 0.17 -0.09 0 0.2 -0.17 0.08zm-0.02 -0.21l-0.17 -0.09 0.17 -0.08 0.17 0.08 -0.17 0.09zm-0.18 -0.07l0.17 0.09 0 0.19 -0.17 -0.08 0 -0.2zm0.39 -0.03l-0.12 -0.05 0 -0.04 0.17 0.08 0 0.19 -0.05 -0.02 0 -0.15c0,0 0,0 0,-0.01l0 0zm-0.21 -0.32l0.17 0.08 -0.17 0.08 -0.17 -0.08 0.17 -0.08zm-0.27 0.13l0.17 0.08 -0.17 0.08 -0.17 -0.08 0.17 -0.08zm-0.18 0.29l0 -0.19 0.17 0.08 0 0.19 -0.11 -0.05 -0.06 -0.03zm0.05 0.05l0.13 0.06c0,0.01 0.01,0.01 0.01,0l0.05 -0.02 0 0.04 -0.06 0.02 -0.17 -0.08 0.04 -0.02zm-0.05 0.04l0.17 0.08 0 0.2 -0.17 -0.08 0 -0.2zm0.2 0.28l0 -0.2 0.05 -0.02 0.04 0.02 -0.04 0.02c-0.01,0 -0.01,0 -0.01,0.01l0 0.15 -0.04 0.02zm0.07 -0.15l0.17 0.08 0 0.19 -0.17 -0.08 0 -0.19zm0.37 0.19l-0.17 0.08 0 -0.19 0.17 -0.08 0 0.19zm0.09 -0.04l0 -0.2 0.17 -0.08 0 0.2 -0.17 0.08zm0.16 -0.3l-0.17 0.08 -0.06 -0.02 0 -0.04 0.05 0.02c0.01,0.01 0.01,0.01 0.02,0l0.12 -0.06 0.04 0.02zm-0.04 -0.04l-0.12 0.05 0 -0.19 0.17 -0.08 0 0.19 -0.05 0.03z" data-original="#000000"/>
   </g>
  </g>
  <g>
  </g>
  <g style="clip-path:url(#id0)">
   <g id="_1777193434224">
    <g>
     <g>
      <path class="fil0" d="M0.67 1.41c0.01,-0.01 0.02,-0.03 0.03,-0.05 0.02,-0.04 0.03,-0.09 0.03,-0.13 0,-0.01 0.01,-0.02 0.01,-0.02 0,0 0,0 0,0 0,-0.01 0,-0.01 0.01,-0.01 0.01,0 0.02,0 0.04,-0.01 0.05,-0.04 0.06,-0.12 0.06,-0.16 0.06,-0.58 0.07,-0.59 0.06,-0.67 -0.02,-0.16 -0.12,-0.24 -0.26,-0.24 -0.07,-0.01 -0.14,0.01 -0.2,0.03 -0.04,0.01 -0.09,0.02 -0.13,0.06 -0.04,0.04 -0.05,0.1 -0.05,0.15l-0.08 0.51c-0.01,0.05 -0.02,0.14 0.01,0.2 0,0 0.01,0.01 0.02,0.02 0.02,0.06 0.08,0.08 0.14,0.1 -0.01,0 -0.01,0.01 -0.01,0.01 -0.01,0.08 -0.03,0.18 0.03,0.24 0.01,0.01 0.03,0.02 0.04,0.03l0 0.22c-0.08,0.01 -0.19,0.03 -0.19,0.08 0,0.01 0,0.01 0,0.02 0,0.02 0,0.04 0.03,0.06 0.03,0.02 0.06,0.02 0.09,0.02 0.15,0.02 0.29,0.03 0.43,-0.02 0.03,-0.01 0.07,-0.03 0.07,-0.07 0,0 0,0 0,-0.01 0,-0.06 -0.14,-0.08 -0.22,-0.08l0 -0.25c0.03,-0.01 0.03,-0.02 0.04,-0.03zm-0.27 -0.07c0.01,-0.05 0.02,-0.09 0.03,-0.14 0.06,0.01 0.12,0.01 0.17,0.02 -0.03,0.16 -0.03,0.18 -0.04,0.19 -0.01,0.01 -0.02,0.01 -0.04,0.01 -0.03,-0.01 -0.06,-0.01 -0.08,-0.02 -0.04,0 -0.05,-0.01 -0.04,-0.06l0 0zm0.24 -0.12c0.02,0 0.04,0 0.06,-0.01 -0.02,0.04 -0.03,0.09 -0.03,0.13 -0.01,0.03 -0.03,0.05 -0.06,0.06 0,-0.01 0,-0.01 0.03,-0.18l0 0zm0.06 -0.06c-0.04,-0.04 -0.07,-0.11 -0.07,-0.17 0.06,0.02 0.1,0.1 0.13,0.17 -0.02,0 -0.04,0 -0.06,0zm-0.05 0c-0.03,0 -0.07,0 -0.09,0 -0.05,-0.05 -0.08,-0.12 -0.07,-0.2l0 0c0.04,0.01 0.07,0.01 0.11,0.02 -0.01,0.06 0.01,0.13 0.05,0.18l0 0zm-0.15 0c-0.05,-0.01 -0.07,-0.01 -0.11,-0.02 0,-0.01 -0.06,-0.08 -0.06,-0.19 0.04,0 0.08,0 0.12,0.01 -0.01,0.07 0.01,0.14 0.05,0.2zm-0.21 -0.21c0,0.06 0.02,0.12 0.05,0.17 -0.1,-0.04 -0.13,-0.08 -0.12,-0.17 0.02,0 0.04,0 0.07,0zm0.06 -0.71c0.03,-0.03 0.07,-0.04 0.11,-0.05 0.06,-0.02 0.12,-0.04 0.19,-0.03 0.06,0 0.12,0.02 0.16,0.06 0.04,0.04 0.05,0.1 0.06,0.14 0,0.06 0,0.12 -0.01,0.17 -0.05,0.52 -0.04,0.55 -0.07,0.6 -0.03,-0.07 -0.07,-0.14 -0.12,-0.17l0.01 -0.09c0.02,0 0.04,0.02 0.06,0.03 0.01,0.01 0.02,0 0.02,-0.01 0.01,-0.01 0.01,-0.02 0,-0.02 -0.02,-0.02 -0.05,-0.04 -0.08,-0.05 0.01,-0.04 0.01,-0.07 0.01,-0.11 0.02,0.01 0.04,0.02 0.06,0.03 0.01,0.01 0.02,0 0.03,-0.01 0,-0.01 0,-0.02 -0.01,-0.02 -0.02,-0.02 -0.04,-0.03 -0.07,-0.05 0,0 0,0 0,0 0,-0.04 0,-0.08 0.01,-0.12 0.02,0.01 0.04,0.02 0.05,0.03 0.01,0 0.01,0 0.02,0 0.02,0 0.02,-0.02 0.01,-0.04 -0.03,-0.01 -0.06,-0.03 -0.08,-0.03 0.01,-0.04 0.01,-0.09 0.01,-0.14l0.06 0.04c0.01,0.01 0.02,0 0.03,-0.01 0,-0.01 0,-0.02 -0.01,-0.03l-0.07 -0.04c0,0 0,0 0,0 0,-0.04 0,-0.07 0,-0.11 0,0 0,0 0,0 0,-0.01 0,-0.02 -0.01,-0.02 -0.01,0 -0.02,0.01 -0.03,0.02 -0.01,0.24 -0.03,0.49 -0.06,0.73 0,0 -0.16,-0.04 -0.41,-0.03 0,-0.02 0.01,-0.04 0.01,-0.08 0.01,0 -0.01,0 0.16,-0.01 0.01,0 0.02,-0.01 0.02,-0.02 0,-0.01 -0.01,-0.02 -0.02,-0.02l-0.15 0.01 0.01 -0.08c0,0 0,0 0.01,0 0,0 0.08,-0.03 0.19,-0.02 0.01,0 0.02,-0.01 0.03,-0.02 0,-0.01 -0.01,-0.02 -0.02,-0.02 -0.07,0 -0.14,0 -0.2,0.01l0.01 -0.1c0.04,-0.01 0.08,-0.02 0.13,-0.02 0.01,0 0.01,-0.01 0.01,-0.02 0,-0.01 0,-0.02 -0.02,-0.02 -0.02,0 -0.07,0.01 -0.11,0.01l0.02 -0.1c0.07,-0.03 0.15,-0.04 0.22,-0.04 0.01,0 0.02,0 0.02,-0.02 0,-0.01 0,-0.02 -0.01,-0.02 -0.08,-0.01 -0.15,0.01 -0.23,0.03 0.01,-0.05 0.02,-0.09 0.05,-0.12l0 0zm0.26 1.51c0.01,0 0.02,-0.01 0.02,-0.02l0 0c0.12,0.01 0.18,0.03 0.18,0.04 -0.01,0.02 -0.11,0.05 -0.27,0.05 -0.16,0 -0.26,-0.03 -0.27,-0.05 0,-0.01 0.05,-0.03 0.15,-0.04l0 0.01c0,0.02 0.01,0.02 0.02,0.02 0.01,0 0.02,0 0.02,-0.02l0 -0.27c0.05,0.01 0.1,0.01 0.13,-0.01l0 0.27c0,0.01 0.01,0.02 0.02,0.02l0 0zm0.38 -1.6c0,-0.01 0,-0.01 -0.01,-0.01 0,0 -0.01,0.01 -0.01,0.01l-0.05 0.09c-0.01,0.01 -0.01,0.02 0,0.03 0.01,0 0.03,0 0.03,-0.01l0.05 -0.09c0.01,-0.01 0,-0.02 -0.01,-0.02l0 0zm0.1 0.12c0,-0.01 -0.01,-0.02 -0.02,-0.02 0,0 0,0.01 -0.01,0.01 -0.02,0.01 -0.05,0.02 -0.08,0.02 -0.01,0 -0.02,0.01 -0.02,0.02 0.01,0.01 0.01,0.02 0.03,0.02 0.03,0 0.06,-0.01 0.09,-0.03 0.01,0 0.02,-0.02 0.01,-0.02l0 0zm-0.11 0.14c0.02,0 0.05,0 0.07,0.02 0.01,0 0.02,0 0.03,-0.01 0.01,-0.01 0,-0.02 -0.01,-0.03 -0.03,-0.02 -0.06,-0.03 -0.1,-0.02 -0.01,0 -0.01,0.01 -0.01,0.02 0,0.01 0.01,0.02 0.02,0.02z" data-original="#000000"/>
     </g>
    </g>
   </g>
  </g>
  <polygon class="fil1" points="0,0 1.92,0 1.92,2 0,2 "/>
 </g>
</svg>
