<?xml version="1.0" encoding="UTF-8"?>
<svg xmlns="http://www.w3.org/2000/svg" width="87" height="100" viewBox="0 0 87 100" fill="none">
  <path d="M40.5996 0V39.9182V79.8364L0.68143 39.9182L40.5996 0Z" fill="#FFDFDF"></path>
  <g clip-path="url(#clip0_629_34879)">
    <path d="M30.2522 72.7408H18.7686V81.8986H30.2522V72.7408ZM20.949 74.9213H23.4201V79.7182H20.949V74.9213ZM28.0717 79.7182H25.6006V74.9213H28.0717V79.7182Z" fill="#CC0000"></path>
    <path d="M18.7686 93.5277H30.2522V84.3699H18.7686V93.5277ZM28.0717 91.3473H25.6006V86.5503H28.0717V91.3473ZM20.949 86.5503H23.4201V91.3473H20.949V86.5503Z" fill="#CC0000"></path>
    <path d="M80.257 72.7408H68.7734V81.8986H80.257V72.7408ZM70.9539 74.9213H73.425V79.7182H70.9539V74.9213ZM78.0766 79.7182H75.6055V74.9213H78.0766V79.7182Z" fill="#CC0000"></path>
    <path d="M68.7734 93.5277H80.257V84.3699H68.7734V93.5277ZM78.0766 91.3473H75.6055V86.5503H78.0766V91.3473ZM70.9539 86.5503H73.425V91.3473H70.9539V86.5503Z" fill="#CC0000"></path>
    <path d="M66.9565 68.0892V70.2697H84.4727V95.9988H64.558V78.4826H62.3776V95.9988H57.5807V86.5502H59.9065V79.7182H39.1197V86.5502H41.4455V95.9988H14.5535V81.9713H12.373V98.1792H86.6531V68.0892H66.9565ZM55.4002 95.9988H50.6033V86.5502H55.4002V95.9988ZM41.3001 81.8987H57.726V84.3698H41.3001V81.8987ZM43.6259 86.5502H48.4229V95.9988H43.6259V86.5502Z" fill="#CC0000"></path>
    <path d="M14.5535 70.2697H34.4681V93.6003H36.6485V61.4907L49.5131 48.6262L62.3776 61.4907V76.1569H64.5581V63.6711L66.9565 66.0696L71.9869 61.0392L50.6033 39.6556V35.3828H59.9065V26.225H48.4229V39.6556L27.0392 61.0392L32.0696 66.0696L34.4681 63.6711V68.0893H12.373V79.6456H14.5535V70.2697ZM50.6033 28.4054H57.726V33.2024H50.6033V28.4054ZM30.1226 61.0392L49.5131 41.6488L68.9035 61.0392L66.9565 62.9862L49.5131 45.5427L32.0696 62.9862L30.1226 61.0392Z" fill="#CC0000"></path>
    <path d="M43.6982 72.7408H46.024V74.9212H43.6982V72.7408Z" fill="#CC0000"></path>
    <path d="M48.3496 72.7408H50.6754V74.9212H48.3496V72.7408Z" fill="#CC0000"></path>
    <path d="M53.001 72.7408H55.3268V74.9212H53.001V72.7408Z" fill="#CC0000"></path>
    <path d="M55.2551 62.2021C55.2551 59.0361 52.6793 56.4603 49.5133 56.4603C46.3473 56.4603 43.7715 59.0361 43.7715 62.2021C43.7715 65.3681 46.3473 67.9439 49.5133 67.9439C52.6793 67.9439 55.2551 65.3681 55.2551 62.2021ZM49.5133 65.7635C47.5496 65.7635 45.9519 64.1658 45.9519 62.2021C45.9519 60.2384 47.5496 58.6408 49.5133 58.6408C51.477 58.6408 53.0747 60.2384 53.0747 62.2021C53.0747 64.1658 51.477 65.7635 49.5133 65.7635Z" fill="#CC0000"></path>
  </g>
  <defs>
    <clipPath id="clip0_629_34879">
      <rect width="74.28" height="74.28" fill="white" transform="translate(12.373 25.0621)"></rect>
    </clipPath>
  </defs>
</svg>
