<svg xmlns="http://www.w3.org/2000/svg" version="1.1" xmlns:xlink="http://www.w3.org/1999/xlink" width="512" height="512" x="0" y="0" viewBox="0 0 64 64" style="enable-background:new 0 0 512 512" xml:space="preserve" class=""><g><path d="M1 61h62v2H1zM25.269 7.916A25.096 25.096 0 0 1 32 7c6.08 0 11.874 2.179 16.429 6.157l-2.385 2.385 11.33 2.832-2.832-11.33-1.866 1.866A30.85 30.85 0 0 0 32 1c-2.804 0-5.584.375-8.266 1.114L23 2.316v5.731l2.047-.096zM25 3.851A29.11 29.11 0 0 1 32 3a28.872 28.872 0 0 1 20.013 8.021l.707.674.738-.738 1.168 4.67-4.67-1.168 1.354-1.354-.746-.706A26.874 26.874 0 0 0 32 5c-2.374 0-4.728.309-7 .916zM2.114 40.266l.202.734h5.731l-.096-2.047-.036-.222A25.135 25.135 0 0 1 7 32a24.89 24.89 0 0 1 6.157-16.43l2.385 2.386 2.832-11.33-11.33 2.832 1.866 1.866A30.85 30.85 0 0 0 1 32c0 2.804.375 5.584 1.114 8.266zm8.907-28.279.674-.707-.738-.738 4.67-1.168-1.168 4.67-1.354-1.355-.706.746A26.88 26.88 0 0 0 5 32c0 2.374.309 4.728.916 7H3.851A29.11 29.11 0 0 1 3 32a28.872 28.872 0 0 1 8.021-20.013zM56.048 22.047l.036.222c.607 2.18.916 4.445.916 6.731a24.89 24.89 0 0 1-6.157 16.43l-2.385-2.386-2.832 11.33 11.33-2.832-1.866-1.866A30.85 30.85 0 0 0 63 29c0-2.804-.375-5.584-1.114-8.266L61.684 20h-5.731zM60.149 22A29.11 29.11 0 0 1 61 29a28.872 28.872 0 0 1-8.021 20.013l-.674.707.738.738-4.67 1.168 1.168-4.67 1.354 1.355.706-.746A26.878 26.878 0 0 0 59 29c0-2.374-.309-4.728-.916-7zM22 39h2v2h-2zM14 39h2v2h-2zM18 39h2v2h-2zM18 43h2v2h-2zM14 43h2v2h-2zM22 43h2v2h-2zM18 47h2v2h-2zM22 47h2v2h-2zM14 47h2v2h-2zM14 51h2v2h-2zM22 51h2v2h-2zM18 51h2v2h-2zM16 31h2v2h-2zM24 31h2v2h-2zM20 31h2v2h-2zM28 31h2v2h-2zM24 27h2v2h-2zM28 27h2v2h-2zM20 27h2v2h-2zM16 27h2v2h-2zM16 23h2v2h-2zM24 23h2v2h-2zM20 23h2v2h-2zM28 23h2v2h-2z" fill="#cc0000" opacity="1" data-original="#000000" class=""></path><path d="M44 43h3c3.859 0 7-3.141 7-7v-1h-5c-1.958 0-3.728.81-5 2.111V33h3c3.859 0 7-3.141 7-7v-1h-5a6.975 6.975 0 0 0-5.054 2.17C43.534 23.701 40.578 21 37 21h-3v-2H12v16h-2v20H1v2h62v-2H44zm5-6h2.899A5.009 5.009 0 0 1 47 41h-2.899A5.008 5.008 0 0 1 49 37zm0-10h2.899A5.009 5.009 0 0 1 47 31h-2.899A5.008 5.008 0 0 1 49 27zm-7 28h-8V36.889A6.973 6.973 0 0 0 39 39h3v4zm-7.899-22H37a5.008 5.008 0 0 1 4.899 4H39a5.008 5.008 0 0 1-4.899-4zM37 23a5.008 5.008 0 0 1 4.899 4H39a5.008 5.008 0 0 1-4.899-4zm2 6h3v4.111A6.973 6.973 0 0 0 37 31h-3v-4.111A6.973 6.973 0 0 0 39 29zm-25-8h18v34h-4V35H14zm-2 16h14v18H12z" fill="#cc0000" opacity="1" data-original="#000000" class=""></path></g></svg>