<?xml version="1.0" encoding="UTF-8"?>
<svg xmlns="http://www.w3.org/2000/svg" width="23" height="18" viewBox="0 0 23 18" fill="none">
  <path d="M10.6 12.616C10.6 13.416 10.4333 14.1493 10.1 14.816C9.76667 15.416 9.33333 15.916 8.8 16.316C8.33333 16.716 7.8 17.016 7.2 17.216C6.66667 17.416 6.16667 17.516 5.7 17.516C3.96667 17.516 2.66667 16.916 1.8 15.716C0.933333 14.516 0.5 12.916 0.5 10.916C0.5 9.51601 0.733333 8.21601 1.2 7.01601C1.73333 5.74935 2.4 4.64935 3.2 3.71601C4 2.71601 4.86667 1.94934 5.8 1.41601C6.8 0.816014 7.76667 0.449346 8.7 0.316011C9.03333 0.182679 9.23333 0.249347 9.3 0.516014C9.43333 0.716012 9.23333 0.882678 8.7 1.01601C8.36667 1.08268 7.96667 1.31601 7.5 1.71601C7.03333 2.11601 6.56667 2.64935 6.1 3.31601C5.63333 3.91601 5.23333 4.61601 4.9 5.41601C4.63333 6.21601 4.53333 7.04935 4.6 7.91601C4.73333 7.84935 4.9 7.81602 5.1 7.81602C5.36667 7.81602 5.56667 7.81602 5.7 7.81602C7.03333 7.81602 8.16667 8.31602 9.1 9.31601C10.1 10.2493 10.6 11.3493 10.6 12.616ZM22.6 12.616C22.6 13.416 22.4333 14.1493 22.1 14.816C21.7667 15.416 21.3333 15.916 20.8 16.316C20.3333 16.716 19.8 17.016 19.2 17.216C18.6667 17.416 18.1667 17.516 17.7 17.516C15.9667 17.516 14.6667 16.916 13.8 15.716C12.9333 14.516 12.5 12.916 12.5 10.916C12.5 9.51601 12.7333 8.21601 13.2 7.01601C13.7333 5.74935 14.4 4.64935 15.2 3.71601C16 2.71601 16.8667 1.94934 17.8 1.41601C18.8 0.816014 19.7667 0.449346 20.7 0.316011C21.0333 0.182679 21.2333 0.249347 21.3 0.516014C21.4333 0.716012 21.2333 0.882678 20.7 1.01601C20.3667 1.08268 19.9667 1.31601 19.5 1.71601C19.0333 2.11601 18.5667 2.64935 18.1 3.31601C17.6333 3.91601 17.2333 4.61601 16.9 5.41601C16.6333 6.21601 16.5333 7.04935 16.6 7.91601C16.7333 7.84935 16.9 7.81602 17.1 7.81602C17.3667 7.81602 17.5667 7.81602 17.7 7.81602C19.0333 7.81602 20.1667 8.31602 21.1 9.31601C22.1 10.2493 22.6 11.3493 22.6 12.616Z" fill="#CC0000"></path>
</svg>
